{"glyphs":{"0":{"ha":697,"x_min":0,"x_max":0,"o":"m 701 650 b 572 804 701 736 668 804 b 72 165 339 804 72 376 b 224 -15 72 71 119 -15 b 701 650 475 -15 701 431 z m 649 676 b 240 13 649 510 429 13 b 156 117 175 13 156 60 b 574 778 156 274 392 778 b 649 676 633 778 649 728 z "},"1":{"ha":525,"x_min":0,"x_max":0,"o":"m 592 782 l 592 789 b 583 790 589 790 586 792 l 540 786 b 478 740 517 783 493 757 b 224 526 399 657 317 597 l 221 518 l 226 507 l 232 507 b 458 678 314 557 388 614 b 83 8 333 456 210 232 l 85 0 b 97 -3 88 0 94 -3 b 169 7 114 -1 156 -1 l 585 768 z "},"2":{"ha":678,"x_min":0,"x_max":0,"o":"m 699 685 b 572 800 699 760 643 800 b 281 544 432 800 324 665 l 283 536 l 300 536 l 306 542 b 535 757 340 632 429 757 b 601 696 575 757 601 739 b 168 149 601 538 282 250 b 138 150 160 153 146 151 b 1 0 129 147 4 10 l 19 -11 l 117 65 b 333 -17 150 51 293 -17 b 553 149 407 -17 508 94 l 553 154 l 543 163 b 386 61 525 157 464 61 b 196 140 353 61 232 122 b 699 685 301 228 699 535 z "},"3":{"ha":636,"x_min":0,"x_max":0,"o":"m 675 717 b 569 803 675 779 625 803 b 317 650 465 803 379 726 l 317 643 l 326 635 l 333 635 b 525 758 378 685 453 758 b 579 708 558 758 579 743 b 260 428 579 574 361 468 l 254 421 l 256 408 l 265 404 b 363 424 296 413 331 424 b 460 338 415 424 460 394 b 128 15 460 190 271 15 b 31 36 99 15 57 24 l 24 33 l 14 25 l 14 18 b 143 -15 50 -8 100 -15 b 554 326 301 -15 554 156 b 367 454 554 426 449 454 b 675 717 475 493 675 578 z "},"4":{"ha":644,"x_min":0,"x_max":0,"o":"m 674 781 l 672 790 l 663 794 b 519 731 589 781 565 790 b 332 504 460 651 397 578 b 115 274 265 429 176 350 b 110 264 113 271 111 267 l 110 253 l 447 261 b 308 -3 435 239 308 7 l 308 -8 l 315 -10 b 404 11 326 -10 397 4 b 535 265 419 26 518 232 l 575 267 l 585 274 l 592 289 l 583 294 l 550 294 b 643 479 560 311 643 472 l 642 488 l 633 492 b 554 465 608 490 567 492 l 464 290 l 163 285 b 674 781 207 325 676 736 z "},"5":{"ha":618,"x_min":0,"x_max":0,"o":"m 704 800 l 699 803 b 379 769 615 739 464 804 b 157 383 361 754 169 421 l 157 375 l 165 372 b 349 450 224 401 281 450 b 439 361 406 450 439 418 b 83 8 439 206 239 8 b -3 21 56 8 24 11 l -8 18 l -17 8 l -17 -1 b 82 -18 6 -17 56 -18 b 532 365 258 -18 532 174 b 393 486 532 449 469 486 b 207 424 331 486 258 458 l 360 689 b 704 800 476 682 654 665 z "},"6":{"ha":585,"x_min":0,"x_max":0,"o":"m 601 801 l 592 817 l 583 815 b 51 133 390 682 51 386 b 201 -15 51 40 110 -15 b 556 358 363 -15 556 201 b 457 468 556 419 522 468 b 200 204 333 468 226 313 l 203 196 l 217 197 l 222 204 b 424 425 251 281 331 425 b 471 369 458 425 471 401 b 210 17 471 253 340 17 b 133 103 160 17 133 56 b 321 514 133 233 244 413 b 500 710 375 585 435 650 b 594 790 529 736 569 763 b 601 801 597 793 599 799 z "},"7":{"ha":678,"x_min":0,"x_max":0,"o":"m 803 781 l 797 789 b 769 775 790 789 775 779 b 572 785 704 783 638 785 b 303 604 407 785 378 751 l 303 596 l 307 593 b 472 693 349 596 350 693 b 693 688 546 693 619 689 b 14 3 625 624 28 57 l 15 -3 l 24 -7 b 124 7 51 -4 100 -4 b 217 119 132 10 207 108 b 528 482 315 244 418 367 b 800 771 619 578 714 672 z "},"8":{"ha":583,"x_min":0,"x_max":0,"o":"m 640 694 b 513 801 640 769 582 801 b 279 575 393 801 279 697 b 303 464 279 538 288 499 b 19 119 206 392 19 250 b 178 -15 19 31 97 -15 b 457 239 311 -15 457 100 b 431 394 457 300 456 339 b 640 694 511 465 640 579 z m 590 696 b 421 424 590 593 496 485 b 369 621 400 479 369 560 b 514 774 369 697 435 774 b 590 696 563 774 590 744 z m 368 218 b 181 14 368 118 285 14 b 83 115 117 14 83 54 b 310 438 83 249 213 365 b 368 218 336 374 368 286 z "},"9":{"ha":604,"x_min":0,"x_max":0,"o":"m 608 633 b 472 801 608 718 568 801 b 103 397 313 801 103 554 b 201 289 103 336 138 289 b 464 558 324 289 425 458 l 463 565 l 447 567 l 442 563 b 251 369 410 486 349 369 b 182 447 203 369 182 403 b 449 772 182 569 317 772 b 525 676 507 772 525 728 b 511 576 525 643 519 608 b 86 -10 447 326 293 136 l 81 -18 l 88 -31 l 96 -31 b 608 633 294 100 608 375 z "}," ":{"ha":360,"x_min":0,"x_max":0,"o":""},"¾":{"ha":864,"x_min":0,"x_max":0,"o":"m 733 472 b 614 329 697 422 654 375 l 557 269 b 478 185 528 242 500 213 l 472 158 l 676 163 b 590 -1 660 131 590 4 b 678 10 615 -15 672 4 l 758 167 l 779 167 b 785 201 822 183 819 196 l 778 201 b 831 308 794 232 831 304 b 750 303 851 343 771 326 b 697 199 724 250 714 233 l 529 194 b 589 254 549 219 567 236 b 850 496 686 338 849 474 b 733 472 831 508 757 511 z m 439 804 b 360 867 439 849 401 867 b 189 764 289 867 231 815 b 207 754 185 740 197 744 b 317 821 235 786 278 821 b 353 799 331 821 353 814 b 163 619 353 706 233 633 b 182 603 150 614 147 594 b 246 621 199 607 233 621 b 289 569 272 621 289 599 b 89 360 289 482 196 360 b 24 407 60 360 33 382 b 10 389 1 418 4 404 b 94 338 24 353 54 338 b 364 560 222 338 364 449 b 274 644 364 614 319 638 b 439 804 344 674 439 726 z m 757 842 b 90 13 689 747 254 197 b 106 -1 75 -6 82 -17 b 818 835 219 71 697 683 b 757 842 839 861 778 865 z "},"¦":{"ha":674,"x_min":0,"x_max":0,"o":"m 594 1040 l 522 1040 l 397 454 l 464 447 z m 432 300 l 367 306 l 233 -321 l 306 -321 z "},"−":{"ha":518,"x_min":0,"x_max":0,"o":"m 503 289 l 503 318 l 501 319 l 150 319 l 149 318 l 149 289 l 150 288 l 501 288 z "},"×":{"ha":422,"x_min":0,"x_max":0,"o":"m 361 396 b 346 425 361 401 351 425 l 243 314 l 185 432 b 158 404 179 431 160 410 l 218 288 l 115 176 b 131 147 115 172 126 149 l 233 258 l 292 140 b 318 168 297 142 317 163 l 258 285 z "},"¼":{"ha":864,"x_min":0,"x_max":0,"o":"m 733 472 b 614 329 697 422 654 375 l 557 269 b 478 185 528 242 500 213 l 472 158 l 676 163 b 590 -1 660 131 590 4 b 678 10 615 -15 672 4 l 758 167 l 779 167 b 785 201 822 183 819 196 l 778 201 b 831 308 794 232 831 304 b 750 303 851 343 771 326 b 697 199 724 250 714 233 l 529 194 b 589 254 549 219 567 236 b 850 496 686 338 849 474 b 733 472 831 508 757 511 z m 757 842 b 90 13 689 747 254 197 b 106 -1 75 -6 82 -17 b 818 835 219 71 697 683 b 757 842 839 861 778 865 z m 340 856 b 293 825 321 854 303 836 b 151 693 253 785 196 726 l 129 676 b 144 664 100 646 128 654 b 251 732 178 689 224 710 l 44 347 b 121 356 43 333 108 338 b 368 835 208 515 281 676 b 340 856 378 860 368 858 z "},"!":{"ha":486,"x_min":0,"x_max":0,"o":"m 750 849 l 747 857 l 740 860 b 625 832 704 858 644 869 l 272 160 l 271 150 l 285 149 b 750 849 336 226 735 807 z m 281 38 b 233 94 286 69 264 94 b 167 38 201 94 171 69 b 214 -19 161 6 182 -19 b 281 38 246 -19 275 6 z "},"\"":{"ha":442,"x_min":0,"x_max":0,"o":"m 460 885 b 428 913 457 903 447 913 b 388 868 403 913 385 894 l 399 638 l 413 638 b 460 885 422 679 468 844 z m 308 886 b 278 913 306 904 294 913 b 236 867 254 913 235 890 l 249 638 l 263 638 b 308 886 274 681 317 844 z "},"#":{"ha":1036,"x_min":0,"x_max":0,"o":"m 999 646 l 793 646 l 986 967 l 911 967 l 718 646 l 524 646 l 718 967 l 642 967 l 450 646 l 214 646 l 174 579 l 410 579 l 293 383 l 76 383 l 35 318 l 254 318 l 63 0 l 136 0 l 329 318 l 521 318 l 331 0 l 404 0 l 597 318 l 821 318 l 861 383 l 638 383 l 753 579 l 960 579 z m 678 579 l 561 383 l 367 383 l 485 579 z "},"$":{"ha":624,"x_min":0,"x_max":0,"o":"m 660 676 b 557 794 660 728 632 782 l 603 879 l 558 871 l 519 799 b 218 583 394 799 218 733 b 301 407 218 517 261 457 l 94 29 b -56 107 39 40 -15 65 l -68 107 b -93 74 -74 101 -92 82 b 78 0 -60 29 25 10 l 29 -85 l 76 -76 l 115 -3 b 471 267 268 -3 471 89 b 378 472 471 343 422 414 l 540 767 b 628 683 579 758 619 739 b 585 707 624 694 600 707 b 522 649 549 707 524 682 b 583 585 521 614 549 585 b 660 676 628 585 660 628 z m 506 772 l 356 503 b 306 619 332 542 306 572 b 486 774 306 711 403 774 b 506 772 493 774 499 772 z m 383 242 b 131 25 383 111 250 25 l 326 378 b 383 242 356 339 383 292 z "},"%":{"ha":863,"x_min":0,"x_max":0,"o":"m 861 918 b 825 924 861 933 829 926 b 574 661 806 913 636 710 b 331 600 472 581 369 531 b 379 1017 428 690 586 1011 b 115 783 286 1018 169 910 b 183 529 63 660 78 532 b 304 576 225 528 267 547 b 607 657 378 500 499 564 b -46 -110 396 396 186 135 l -44 -117 l 7 -117 z m 681 446 b 417 213 588 449 471 340 b 485 -40 364 89 379 -37 b 681 446 679 -46 925 440 z m 408 969 b 354 667 497 944 394 724 b 357 682 357 672 357 676 b 315 724 357 706 339 724 b 268 664 282 724 268 696 b 289 596 267 643 275 618 b 194 563 256 568 222 554 b 211 788 144 576 158 674 b 408 969 264 899 349 986 z m 725 240 b 656 97 704 182 675 122 b 496 -8 622 56 560 -26 b 513 218 446 6 460 103 b 711 399 565 328 650 417 b 725 240 760 385 750 313 z "},"&":{"ha":842,"x_min":0,"x_max":0,"o":"m 1015 583 b 1000 572 1006 599 990 588 b 749 393 1074 463 814 393 l 503 393 b 392 63 221 393 149 193 b 392 92 408 54 407 83 b 300 219 321 129 293 176 b 699 226 326 378 706 381 b 363 -44 693 117 558 -44 b 436 529 39 -44 107 481 b 576 468 465 500 515 468 b 581 556 674 468 661 549 b 465 553 539 558 494 553 b 567 825 422 643 503 768 b 838 939 660 906 764 940 b 931 856 888 938 942 918 b 885 881 926 868 901 881 b 818 818 847 882 819 856 b 883 751 817 782 846 751 b 968 854 931 751 968 801 b 801 976 968 947 878 975 b 379 674 629 979 383 871 b 418 549 379 631 393 583 b 363 -62 -79 496 -136 -62 b 719 349 669 -62 871 224 b 1015 583 904 346 1100 457 z m 579 532 b 576 492 629 528 644 492 b 476 533 531 492 497 507 b 579 532 510 535 543 535 z "},"'":{"ha":219,"x_min":0,"x_max":0,"o":"m 261 700 b 204 776 261 736 244 776 b 138 719 172 776 143 750 b 185 661 132 688 154 661 b 225 675 200 661 213 667 b 118 554 217 613 169 572 b 122 539 101 549 104 533 b 261 700 181 558 261 610 z "},"(":{"ha":486,"x_min":0,"x_max":0,"o":"m 689 1049 b 57 450 369 967 111 654 b 319 -82 -25 132 122 -106 b 329 -51 365 -76 365 -47 b 151 463 122 -76 68 206 b 689 1019 203 624 371 936 b 689 1049 729 1031 735 1060 z "},")":{"ha":719,"x_min":0,"x_max":0,"o":"m 683 528 b 421 1060 765 846 618 1083 b 413 1029 375 1054 375 1025 b 589 515 618 1053 672 772 b 53 -42 538 354 369 42 b 51 -71 11 -53 6 -82 b 683 528 371 11 631 324 z "},"*":{"ha":599,"x_min":0,"x_max":0,"o":"m 544 540 l 356 540 l 474 668 b 464 718 510 707 492 747 l 303 556 l 221 715 b 174 714 197 760 156 750 b 253 540 203 653 229 594 l 51 540 b 50 478 1 540 25 476 l 233 485 l 94 344 b 135 300 57 307 117 282 l 286 465 l 356 310 b 408 343 379 264 419 321 b 335 489 382 393 358 440 l 518 496 b 544 540 567 497 583 540 z "},"+":{"ha":636,"x_min":0,"x_max":0,"o":"m 640 331 b 460 332 581 332 514 331 b 501 539 471 389 489 488 b 463 533 510 576 471 565 b 414 332 447 478 426 383 b 221 336 340 333 251 336 b 204 269 179 336 183 267 b 400 282 244 274 335 276 b 353 94 382 207 360 126 b 419 94 343 54 417 75 b 451 285 424 136 440 217 b 636 293 511 289 583 293 b 640 331 674 293 671 329 z "},",":{"ha":213,"x_min":0,"x_max":0,"o":"m 158 28 b 97 94 158 64 138 94 b 31 38 65 94 35 69 b 78 -19 25 6 46 -19 b 117 -6 92 -19 106 -14 b 11 -126 110 -68 63 -110 b 14 -142 -7 -132 -3 -149 b 158 28 72 -122 158 -64 z "},"-":{"ha":564,"x_min":0,"x_max":0,"o":"m 539 293 b 533 331 576 293 565 329 b 228 336 372 335 286 336 b 228 269 188 336 208 267 b 539 293 311 279 411 293 z "},".":{"ha":289,"x_min":0,"x_max":0,"o":"m 257 38 b 210 94 263 69 240 94 b 143 38 178 94 147 69 b 190 -19 138 6 158 -19 b 257 38 222 -19 251 6 z "},"/":{"ha":761,"x_min":0,"x_max":0,"o":"m 969 1111 b 38 -24 588 629 175 97 b 61 -46 10 -47 24 -69 b 1039 1094 231 65 808 829 b 969 1111 1072 1132 999 1149 z "},":":{"ha":356,"x_min":0,"x_max":0,"o":"m 353 349 b 306 406 358 381 336 406 b 239 349 274 406 243 381 b 286 292 233 317 254 292 b 353 349 318 292 347 317 z m 200 38 b 153 94 206 69 185 94 b 86 38 121 94 92 69 b 133 -19 81 6 103 -19 b 200 38 165 -19 196 6 z "},";":{"ha":354,"x_min":0,"x_max":0,"o":"m 353 349 b 306 406 358 381 336 406 b 239 349 274 406 243 381 b 286 292 233 317 254 292 b 353 349 318 292 347 317 z m 210 19 b 153 94 210 56 193 94 b 86 38 121 94 92 69 b 133 -19 81 6 103 -19 b 174 -6 149 -19 161 -14 b 67 -126 165 -68 118 -110 b 71 -142 50 -132 53 -149 b 210 19 129 -122 210 -72 z "},"<":{"ha":457,"x_min":0,"x_max":0,"o":"m 463 413 l 461 422 l 451 426 b 156 249 436 428 186 267 b 208 33 172 179 182 99 b 219 29 211 31 215 29 l 229 33 l 236 47 l 238 236 b 463 413 276 265 438 371 z "},"=":{"ha":636,"x_min":0,"x_max":0,"o":"m 568 447 b 432 475 568 476 451 475 l 228 475 b 204 449 213 475 204 463 b 228 408 204 436 211 408 b 335 421 264 408 299 417 b 544 432 404 428 475 432 b 568 447 554 432 568 435 z m 568 308 b 432 336 568 338 451 336 l 228 336 b 204 310 213 336 204 324 b 228 269 204 297 211 269 b 335 282 264 269 299 278 b 544 293 404 289 475 293 b 568 308 554 293 568 296 z "},">":{"ha":457,"x_min":0,"x_max":0,"o":"m 344 208 b 294 421 329 276 321 356 l 282 426 l 271 421 b 264 408 268 418 267 413 l 263 219 b 38 38 257 215 38 67 l 39 32 b 50 29 42 31 47 29 l 60 31 z "},"?":{"ha":531,"x_min":0,"x_max":0,"o":"m 589 617 b 399 857 804 860 592 967 b 297 765 361 835 315 806 b 417 668 257 669 343 611 b 361 769 481 718 443 814 b 313 719 339 757 318 742 b 390 815 307 753 349 794 b 531 651 525 881 653 806 b 251 232 428 522 285 371 b 278 222 247 214 271 206 b 589 617 349 410 469 481 z m 281 38 b 233 94 286 69 264 94 b 167 38 201 94 171 69 b 214 -19 161 6 182 -19 b 281 38 246 -19 275 6 z "},"@":{"ha":1328,"x_min":0,"x_max":0,"o":"m 1308 614 b 851 943 1290 850 1061 943 b 106 199 465 943 74 600 b 626 -206 129 -89 371 -206 b 1081 -60 794 -206 947 -149 b 1065 -37 1103 -50 1082 -21 b 636 -175 942 -121 792 -175 b 174 182 415 -175 193 -65 b 854 914 143 563 478 914 b 1253 611 1049 914 1235 832 b 1061 164 1265 446 1185 264 b 818 203 981 99 782 26 b 981 529 839 308 943 493 b 907 538 956 525 929 536 b 788 424 851 542 826 499 b 632 179 743 339 694 253 b 471 190 550 83 453 68 b 543 368 481 257 528 343 b 775 617 606 471 696 574 b 925 574 839 653 906 639 b 943 624 953 568 967 597 b 538 543 843 733 642 668 b 607 114 274 228 406 -79 b 733 278 658 164 706 232 b 843 63 681 94 785 58 b 1068 136 911 63 1018 96 b 1308 614 1207 247 1324 426 z "},"A":{"ha":989,"x_min":0,"x_max":0,"o":"m 1194 897 b 956 1074 1194 1000 1104 1074 b 278 711 685 1074 453 906 b 156 799 228 735 186 764 b 126 908 124 835 108 867 b 101 935 142 942 118 957 b 114 778 71 913 75 822 b 253 682 149 739 197 708 b 131 506 206 628 165 568 b 125 -49 -8 254 -8 8 b 696 267 322 -133 582 132 b 753 -89 633 185 599 -89 b 957 31 831 -89 910 -33 b 1086 253 1008 99 1061 197 b 1063 258 1101 286 1075 285 b 942 61 1032 189 985 117 b 738 125 832 -75 694 -110 b 919 497 763 261 842 410 b 840 536 1000 585 926 697 b 476 99 767 400 619 219 b 142 303 221 -114 0 -51 b 343 653 192 426 293 582 b 763 621 474 611 606 607 b 1194 897 1086 650 1194 796 z m 1138 914 b 763 654 1138 776 993 674 b 365 681 586 639 474 646 b 960 1038 521 867 700 1038 b 1138 914 1061 1038 1138 996 z "},"B":{"ha":1446,"x_min":0,"x_max":0,"o":"m 1481 678 b 1194 1024 1575 839 1433 963 b 1235 1061 1197 1031 1217 1049 b 1221 1082 1268 1082 1265 1100 b 1144 1035 1197 1074 1168 1056 b 597 1047 983 1069 790 1075 b 260 476 108 978 -24 575 b 554 649 382 433 533 511 l 554 650 b 525 661 554 681 525 669 b 274 510 532 621 438 458 b 579 989 68 574 194 907 b 1111 1004 767 1029 957 1031 l 1032 914 b 510 100 794 650 694 278 b 308 203 422 143 360 183 b 183 -50 -4 313 -100 -15 b 538 47 310 -67 431 -32 b 907 -49 624 8 731 -26 b 1431 336 1157 -79 1506 82 b 1168 533 1400 440 1260 504 b 1481 678 1272 538 1421 576 z m 1308 946 b 1160 572 1564 826 1332 575 b 958 553 1051 572 958 600 b 1217 451 972 522 1108 504 b 906 -11 1486 322 1268 -44 b 568 72 763 3 654 36 l 621 122 b 1178 989 806 322 992 733 b 1308 946 1226 978 1271 964 z m 479 74 b 218 -11 406 18 319 -15 b 274 167 38 -1 61 240 b 479 74 356 138 415 104 z "},"C":{"ha":986,"x_min":0,"x_max":0,"o":"m 1083 254 b 1067 268 1097 282 1078 292 b 839 -12 1008 149 960 58 b 374 -71 701 -94 522 -115 b 290 668 13 40 240 603 b 635 432 363 518 490 453 b 863 1078 1207 349 1404 1017 b 285 824 643 1103 435 1017 b 274 1088 271 899 258 1000 b 246 1094 281 1126 251 1118 b 251 776 218 992 229 863 b 319 -97 58 533 -29 50 b 860 -35 521 -183 718 -132 b 1083 254 978 49 1024 132 z m 875 1025 b 656 465 1281 967 1157 410 b 318 713 504 482 381 553 b 875 1025 456 922 668 1056 z "},"D":{"ha":1408,"x_min":0,"x_max":0,"o":"m 1421 332 b 1136 929 1447 596 1325 804 b 1258 1072 1153 960 1221 1072 b 1258 1090 1268 1072 1276 1086 b 1076 964 1219 1099 1147 1047 b 588 1047 932 1040 758 1072 b 250 476 15 964 7 561 b 543 649 372 433 524 511 b 515 661 547 675 517 675 b 264 510 513 613 428 458 b 560 999 58 574 175 917 b 1038 921 732 1035 901 1003 b 510 100 819 678 715 297 b 299 203 465 124 351 183 b 174 -50 -14 311 -110 -17 b 521 50 307 -67 419 -32 b 1421 332 801 -108 1378 -110 z m 1333 329 b 554 75 1294 -28 822 -85 b 607 125 572 90 589 106 b 1103 876 760 289 940 621 b 1333 329 1260 753 1357 557 z m 474 72 b 208 -11 397 17 308 -15 b 264 167 39 -3 63 236 b 474 72 347 138 407 104 z "},"E":{"ha":1132,"x_min":0,"x_max":0,"o":"m 1101 357 b 1072 339 1056 379 1008 354 b 996 143 1149 321 1099 224 b 456 -46 876 50 669 -46 b 376 501 -22 -46 86 421 b 742 544 553 551 725 489 b 450 792 763 643 413 574 b 988 1081 482 969 771 1101 b 960 793 1242 1054 1088 807 b 964 768 897 786 885 750 b 993 1114 1244 831 1317 1076 b 344 757 772 1139 365 996 b 511 583 338 675 433 611 b 371 560 467 582 418 574 b 450 -76 -83 424 -110 -76 b 1053 106 679 -76 915 -3 b 1101 357 1175 201 1203 306 z "},"F":{"ha":1456,"x_min":0,"x_max":0,"o":"m 1925 794 b 1900 801 1933 829 1919 846 b 1444 854 1847 689 1538 806 b 1528 881 1464 872 1496 893 b 1528 914 1558 846 1564 903 b 1411 871 1465 932 1426 888 b 1039 1032 1325 925 1192 990 b 574 576 582 1161 343 707 b 900 697 685 513 860 563 b 876 692 917 747 878 722 b 586 608 878 653 726 521 b 1015 979 460 688 636 1036 b 1393 847 1151 960 1275 906 b 1192 483 1367 817 1257 643 b 847 371 1058 507 911 513 b 869 358 840 356 853 336 b 1172 432 935 453 1119 432 b 511 -115 1040 129 819 -129 b 106 314 308 -107 57 42 b 213 475 122 408 178 450 b 239 511 254 504 283 525 b 94 367 199 499 119 446 b 528 -181 -4 64 204 -181 b 1222 428 976 -181 1126 168 b 1503 435 1293 419 1454 422 b 1500 463 1546 446 1547 465 b 1239 471 1443 460 1324 460 b 1424 829 1278 561 1335 728 b 1749 710 1450 818 1588 736 b 1925 794 1843 696 1917 738 z "},"G":{"ha":971,"x_min":0,"x_max":0,"o":"m 1069 -156 b 765 -119 986 -135 889 -121 b 954 339 867 47 935 185 b 789 276 964 410 869 465 b 314 96 750 183 497 36 b 219 642 151 149 97 378 b 585 546 308 582 450 543 b 838 1131 1172 554 1267 1064 b 186 789 614 1165 333 1029 b 156 735 175 771 164 753 b 146 1085 71 836 54 969 b 128 1096 168 1114 147 1117 b 133 693 0 965 26 804 b 267 50 -17 378 93 110 b 842 246 496 -26 758 167 l 836 222 b 696 -119 807 93 764 -4 b 401 -142 608 -121 474 -131 b 35 -507 56 -190 -224 -412 b 746 -156 190 -564 568 -412 b 1058 -181 857 -154 994 -164 b 1069 -156 1111 -193 1110 -165 z m 844 1089 b 607 589 1185 1038 1075 636 b 238 678 465 575 324 613 b 281 754 250 703 265 729 b 844 1089 411 968 656 1117 z m 674 -157 b 71 -471 511 -390 194 -499 b 418 -179 -133 -428 172 -217 b 674 -157 496 -167 586 -160 z "},"H":{"ha":1918,"x_min":0,"x_max":0,"o":"m 2115 1042 b 2050 1040 2167 1068 2104 1060 b 1747 493 1940 1003 1768 551 b 1276 517 1650 493 1463 517 b 1456 969 1300 576 1403 867 b 1619 1072 1511 969 1619 1007 b 1540 1111 1619 1111 1581 1122 b 1433 1000 1496 1097 1443 1017 b 619 658 1163 974 707 1010 b 897 383 574 476 731 322 b 1036 667 997 419 1089 551 b 1018 657 1026 688 1003 679 b 896 410 1036 631 999 447 b 714 636 756 358 667 485 b 1414 967 814 957 1142 936 b 1211 517 1385 908 1281 690 l 1157 517 b 1071 464 1121 513 1083 485 b 1108 449 1050 428 1093 442 b 1192 471 1135 461 1163 471 b 529 -139 1100 229 918 -51 b 36 194 335 -182 -3 -108 b 178 414 51 310 132 394 b 175 433 192 419 204 433 b 6 257 131 432 29 347 b 543 -232 -85 -90 226 -272 b 1264 468 901 -186 1156 146 b 1735 450 1390 463 1672 450 b 1689 -46 1701 354 1563 19 b 1846 -8 1738 -71 1797 -56 b 2015 253 1908 53 1943 100 b 1994 263 2031 286 2010 293 b 1821 11 1950 172 1892 64 b 1743 11 1790 -11 1761 -8 b 1815 450 1682 78 1790 368 b 1950 488 1856 453 1914 463 b 1939 504 1974 504 1965 514 b 1828 494 1917 496 1856 494 b 2115 1042 1939 818 2089 1028 z m 1554 1071 b 1481 1004 1571 1071 1599 1022 b 1554 1071 1500 1029 1540 1078 z "},"I":{"ha":1267,"x_min":0,"x_max":0,"o":"m 1661 1118 b 1582 1151 1660 1156 1624 1164 b 1475 1038 1538 1136 1486 1060 b 683 560 1213 993 756 888 b 940 349 647 396 793 292 b 1085 636 1054 392 1139 532 b 1056 624 1074 661 1050 631 b 939 381 1078 603 1085 439 b 776 560 819 335 746 426 b 1453 1001 843 860 1203 947 b 1244 553 1424 951 1326 771 b 540 -158 1169 351 944 -57 b 29 192 318 -214 -44 -111 b 197 415 58 307 149 394 b 196 435 211 422 225 436 b 6 253 151 432 40 344 b 567 -203 -125 -94 175 -268 b 1115 138 768 -169 963 -58 b 1496 1008 1336 421 1326 697 b 1554 1021 1508 1008 1538 1021 b 1661 1118 1607 1039 1663 1061 z m 1594 1113 b 1519 1043 1611 1113 1642 1068 b 1594 1113 1540 1069 1581 1118 z "},"J":{"ha":1342,"x_min":0,"x_max":0,"o":"m 1764 1075 b 1686 1111 1764 1113 1728 1122 b 1574 1000 1640 1097 1586 1021 b 801 517 1319 968 853 838 b 1053 303 775 353 904 251 b 1211 588 1169 344 1257 481 b 1182 576 1189 615 1160 590 b 1054 336 1203 554 1203 389 b 894 508 938 293 875 381 b 1550 964 939 778 1326 928 b 1328 542 1519 915 1425 757 b 472 -461 1197 253 960 -353 b -31 -90 249 -510 -118 -394 b 144 128 1 24 96 108 b 146 147 160 135 175 149 b -51 -29 101 146 -14 61 b 489 -506 -197 -376 94 -560 b 1129 -83 669 -481 967 -336 b 1592 969 1378 303 1411 661 b 1651 981 1604 969 1635 981 b 1764 1075 1706 997 1763 1018 z m 1697 1071 b 1617 1004 1713 1071 1740 1025 b 1697 1071 1640 1029 1682 1078 z "},"K":{"ha":1589,"x_min":0,"x_max":0,"o":"m 2251 1133 b 2217 1151 2275 1172 2249 1200 b 1244 389 1929 710 1346 381 b 1313 4 1219 378 1235 176 b 1650 -256 1379 -142 1497 -256 b 1963 -61 1768 -256 1913 -162 b 1944 -50 1982 -22 1956 -22 b 1657 -196 1893 -150 1765 -196 b 1408 21 1549 -196 1467 -114 b 1325 360 1339 179 1308 367 b 2251 1133 1565 421 2029 764 z m 1540 1111 b 1433 1000 1496 1097 1443 1017 b 994 953 1313 989 1146 986 b 906 392 426 825 594 278 b 1036 667 1004 428 1075 569 b 1011 676 1028 686 1008 690 b 896 417 1028 588 989 451 b 1011 911 638 324 601 797 b 1414 967 1140 947 1290 953 b 1203 507 1367 872 1229 567 b 524 -154 1097 269 919 -64 b 36 194 329 -197 -3 -108 b 175 404 53 319 150 393 b 165 424 186 410 188 426 b 6 257 129 419 32 357 b 578 -231 -85 -90 263 -278 b 1456 969 1206 -136 1246 592 b 1540 1111 1679 993 1644 1142 z m 1542 1021 b 1481 1004 1528 1014 1508 1008 b 1535 1063 1494 1021 1517 1049 b 1542 1021 1581 1100 1603 1050 z "},"L":{"ha":989,"x_min":0,"x_max":0,"o":"m 1329 1088 b 829 776 1319 1201 1035 1306 b 711 479 829 776 728 517 b 644 949 265 426 358 914 b 642 972 706 957 700 986 b 692 444 167 864 292 432 b 546 176 642 342 599 258 b 197 161 444 194 296 190 b 311 -125 -176 49 21 -265 b 557 101 401 -82 485 0 b 1060 -93 733 67 925 26 b 1128 -364 1154 -175 1150 -315 b 1146 -406 1117 -387 1086 -437 b 1181 -368 1157 -400 1169 -389 b 1054 -43 1215 -310 1186 -146 b 599 164 925 57 735 131 l 628 211 b 750 450 678 300 710 368 b 1329 1088 1046 500 1353 807 z m 1272 1057 b 769 488 1274 800 1019 543 b 892 729 826 606 892 729 b 1272 1057 1107 1150 1271 1150 z m 503 110 b 289 -86 436 15 364 -50 b 214 104 35 -208 -122 18 b 503 110 304 128 411 129 z "},"M":{"ha":1846,"x_min":0,"x_max":0,"o":"m 1908 -136 b 1964 664 1585 -150 1843 424 b 1594 672 2124 983 1915 1074 b 1319 294 1481 531 1376 383 b 1456 814 1376 468 1439 636 b 1142 865 1478 1050 1249 994 b 915 529 1043 746 996 675 b 897 544 892 485 879 492 b 969 821 932 636 960 733 b 63 632 1021 1374 263 1099 b 392 182 -76 301 186 97 b 489 621 692 307 721 654 b 482 592 422 613 457 589 b 393 208 703 621 571 275 b 136 618 210 142 19 294 b 889 824 271 988 965 1376 b 550 -58 857 597 668 125 b 664 -50 536 -103 642 -101 b 1165 840 854 372 924 540 b 1371 807 1275 976 1393 986 b 1094 0 1315 349 1117 46 b 1221 28 1068 -40 1168 -94 b 1594 622 1271 149 1507 514 b 1888 693 1844 935 1999 949 b 1668 106 1797 488 1685 272 b 1886 -158 1646 -129 1829 -153 b 1908 -136 1942 -164 1961 -133 z "},"N":{"ha":1443,"x_min":0,"x_max":0,"o":"m 1650 928 b 1364 1022 1653 1079 1494 1083 b 1035 733 1257 974 1139 860 b 851 483 965 650 901 561 b 844 499 825 443 772 342 b 960 822 892 603 947 715 b 418 1018 1001 1164 647 1143 b 38 631 258 931 104 790 b 247 169 -79 347 71 169 b 467 614 615 169 796 693 b 469 592 453 611 442 589 b 251 196 717 624 543 196 b 433 958 -24 196 24 704 b 869 769 672 1107 950 1135 b 518 -58 803 475 586 42 b 633 -50 507 -103 610 -100 b 1063 711 724 139 867 474 b 1371 964 1161 829 1268 915 b 1540 913 1468 1011 1557 1010 b 1214 157 1518 769 1263 301 b 1383 -203 1139 -68 1194 -194 b 1414 -150 1485 -207 1510 -106 b 1333 224 1254 -224 1207 -53 b 1650 928 1471 524 1647 763 z "},"O":{"ha":1008,"x_min":0,"x_max":0,"o":"m 1256 760 b 1235 775 1276 793 1244 794 b 1054 600 1200 707 1129 650 b 71 635 1082 1286 17 1168 b 178 460 78 558 118 500 b 321 -67 83 218 163 -15 b 1017 403 615 -162 931 140 b 1049 551 1033 456 1044 504 b 1256 760 1136 607 1204 679 z m 969 556 b 274 469 743 433 438 389 b 724 867 332 600 550 921 b 735 886 742 861 756 875 b 203 517 525 1004 279 678 b 147 622 172 543 153 579 b 969 556 74 1118 1035 1289 z m 961 507 b 936 408 957 475 947 440 b 325 -22 840 136 568 -142 b 253 421 190 44 186 246 b 961 507 436 347 732 385 z "},"P":{"ha":1236,"x_min":0,"x_max":0,"o":"m 1339 979 b 1178 1046 1290 1008 1236 1031 b 1240 1097 1201 1069 1226 1088 b 1226 1118 1274 1118 1271 1136 b 1122 1060 1185 1103 1153 1083 b 622 1061 958 1093 776 1083 b 58 681 424 1032 71 929 b 264 465 51 539 154 469 b 494 660 372 463 493 533 b 475 661 494 679 479 682 b 267 493 443 568 354 490 b 131 669 183 496 115 572 b 628 1015 164 876 453 983 b 1085 1025 744 1038 926 1049 b 1011 947 1060 1001 1038 975 b 488 133 775 682 669 313 b 168 -11 394 43 292 -17 b 254 185 -24 -1 32 268 b 258 203 278 175 288 192 b 133 -50 -56 308 -150 -17 b 542 93 282 -68 424 -18 b 750 346 621 169 689 256 b 1061 379 824 340 947 351 b 1339 979 1336 446 1689 771 z m 1307 950 b 1017 413 1525 804 1318 504 b 769 375 929 386 840 372 b 1151 1013 904 582 1010 814 b 1307 950 1211 999 1265 978 z "},"Q":{"ha":1044,"x_min":0,"x_max":0,"o":"m 735 886 b 164 96 461 1040 10 481 b 701 -3 256 -136 519 -122 b 433 1078 1211 333 1253 1217 b 149 621 201 1039 46 831 b 182 629 167 585 189 599 b 439 1047 129 844 222 1018 b 699 44 1053 1128 1188 414 b 224 113 515 -94 289 -115 b 724 867 138 422 506 933 b 735 886 742 861 756 875 z m 924 -512 b 894 -150 1278 -512 1218 -201 b 899 -176 868 -146 871 -172 b 924 -471 1164 -219 1225 -529 b 154 -85 507 -390 401 -85 b 40 -183 92 -85 43 -146 b 63 -192 39 -211 60 -219 b 154 -126 67 -151 119 -126 b 924 -512 371 -126 435 -512 z "},"R":{"ha":1422,"x_min":0,"x_max":0,"o":"m 1522 260 b 1499 260 1536 290 1511 283 b 1365 53 1483 229 1432 119 b 1126 110 1265 -46 1196 4 b 972 524 1022 268 979 485 b 1100 536 1003 525 1046 528 b 1335 1021 1540 608 1713 911 b 1197 1047 1293 1032 1247 1039 b 1146 1054 1211 1090 1206 1119 b 617 1047 985 1076 810 1075 b 132 686 308 1003 146 833 b 519 536 111 451 379 389 b 574 649 547 565 567 604 b 556 651 575 664 558 685 b 503 561 554 633 538 599 b 203 686 383 433 164 499 b 599 989 228 806 363 940 b 1115 1021 786 1029 958 1036 b 786 492 1001 894 899 689 b 238 -11 638 231 483 -24 b 319 186 46 -1 97 271 b 328 203 343 178 353 193 b 203 -50 4 314 -92 -15 b 640 122 364 -71 518 -10 b 885 507 754 247 818 375 b 1086 14 900 417 960 146 b 1381 13 1176 -81 1294 -81 b 1522 260 1440 78 1504 219 z m 1317 986 b 1089 578 1589 904 1376 614 b 914 560 1022 569 968 569 b 1181 1013 994 721 1093 860 b 1317 986 1231 1004 1276 997 z "},"S":{"ha":1251,"x_min":0,"x_max":0,"o":"m 1250 864 b 1204 1097 1336 935 1303 1049 b 758 1090 1104 1147 897 1139 b 636 675 556 1018 429 813 b 1013 486 740 606 926 556 b 849 -11 1181 350 1082 111 b 75 225 571 -156 72 -119 b 153 485 76 314 103 407 b 249 589 178 525 211 560 b 235 610 294 624 254 618 b -3 225 99 546 -10 357 b 926 -18 21 -167 613 -206 b 1064 558 1161 122 1347 383 b 736 722 961 622 821 671 b 811 1053 549 838 646 993 b 1164 847 1258 1213 1338 868 b 1157 819 1118 842 1119 810 b 1250 864 1197 831 1228 846 z "},"T":{"ha":1275,"x_min":0,"x_max":0,"o":"m 1944 847 b 1931 876 1944 854 1940 876 b 1915 856 1918 876 1915 868 b 1458 893 1915 761 1578 854 b 1531 949 1476 911 1518 958 b 1521 989 1576 935 1565 1003 l 1522 989 b 1419 904 1492 989 1432 919 b 967 1025 1331 929 1133 1011 b 624 463 446 1072 340 561 b 931 646 754 418 913 497 b 903 657 931 664 917 669 l 903 654 b 638 497 908 615 808 443 b 976 954 419 567 579 974 b 1397 878 1125 947 1251 924 b 989 128 1339 800 1157 310 b 517 -81 883 13 735 -75 b 96 353 303 -85 46 68 b 239 544 118 485 217 517 b 68 417 247 603 110 546 b 1056 61 -119 -176 761 -274 b 1438 864 1260 294 1271 599 b 1788 775 1467 851 1582 801 b 1944 847 1875 764 1944 794 z "},"U":{"ha":1308,"x_min":0,"x_max":0,"o":"m 1369 669 b 1292 596 1353 669 1322 650 b 1058 163 1235 493 1151 297 b 749 63 906 -58 764 -82 b 996 801 728 265 946 582 b 878 1153 1031 954 1014 1094 b 425 1092 754 1207 583 1179 b 388 217 -251 722 -28 40 b 453 682 694 346 739 803 b 460 658 442 678 388 642 b 389 249 725 718 579 319 b 422 1046 3 104 -133 721 b 885 1108 581 1138 771 1178 b 914 807 951 1068 947 940 b 669 63 863 606 639 250 b 1079 124 699 -115 894 -114 b 1164 249 1114 168 1143 214 b 1246 -118 1140 129 1115 -94 b 1256 -86 1289 -125 1322 -81 b 1236 229 1179 -90 1196 79 b 1319 454 1263 328 1301 415 b 1369 669 1357 539 1438 636 z "},"V":{"ha":1354,"x_min":0,"x_max":0,"o":"m 1433 540 b 1322 860 1513 746 1390 842 b 1317 822 1267 874 1268 832 b 1383 751 1349 817 1371 824 b 1139 183 1411 582 1288 357 b 756 28 1092 128 701 -286 b 933 553 778 154 844 372 b 899 1144 1040 772 1101 1056 b 31 700 653 1253 181 1043 b 278 188 -99 404 86 188 b 682 547 451 188 682 371 b 488 675 682 653 606 731 b 494 656 461 663 453 643 b 621 544 588 683 621 619 b 300 224 621 392 456 224 b 104 656 143 224 -1 365 b 904 1101 218 965 679 1240 b 842 569 1013 1035 914 740 b 736 -131 656 125 621 -110 b 1433 540 915 -162 1300 189 z "},"W":{"ha":1867,"x_min":0,"x_max":0,"o":"m 1869 313 b 1663 850 2001 650 1840 865 b 1643 817 1599 863 1518 783 b 1783 325 1864 847 1899 599 b 1211 119 1667 47 1161 -279 b 1350 503 1226 236 1314 399 b 1258 550 1389 618 1331 651 b 778 -119 1138 382 947 -19 b 706 -42 722 -153 686 -137 b 906 525 732 90 824 342 b 865 1096 1004 747 1067 1007 b 22 646 619 1204 171 989 b 357 158 -133 290 139 68 b 428 631 697 301 735 725 b 431 608 397 621 388 601 b 360 192 676 649 553 263 b 100 594 175 124 -29 246 b 871 1051 215 906 644 1190 b 806 519 979 985 876 690 b 625 -28 701 271 633 89 b 722 -172 617 -142 667 -175 b 1172 282 875 -165 1094 154 b 1144 83 1156 226 1140 151 b 1869 313 1171 -283 1728 -47 z "},"X":{"ha":1121,"x_min":0,"x_max":0,"o":"m 1499 1067 b 1501 1135 1561 1128 1524 1135 b 1400 1054 1479 1135 1449 1101 b 776 601 1268 924 1053 796 b 600 1094 775 847 782 1094 b 150 842 418 1094 165 865 b 172 797 121 800 165 792 b 676 914 236 935 640 1158 b 690 549 693 800 692 682 b -143 -235 386 332 76 69 b -150 -306 -178 -282 -174 -306 b -65 -235 -131 -306 -99 -289 b 692 496 114 46 400 285 b 697 24 688 286 682 90 b 1218 256 750 -221 1015 -169 b 1194 263 1235 290 1206 286 b 799 74 1078 -7 863 -164 b 778 549 776 158 774 356 b 1499 1067 1104 782 1394 965 z "},"Y":{"ha":1332,"x_min":0,"x_max":0,"o":"m 1556 -40 b 1539 -39 1544 -4 1536 -18 b 1131 -178 1511 -193 1267 -169 b 1378 535 1233 4 1329 321 b 1310 624 1425 742 1317 657 b 953 10 1267 479 1125 132 b 753 110 844 -68 717 -57 b 969 585 781 236 876 426 b 950 1142 1094 796 1154 1050 b 81 688 707 1251 244 1025 b 394 206 -89 340 174 114 b 508 676 706 333 801 756 b 511 657 483 671 464 647 b 400 238 753 700 593 307 b 153 651 219 172 10 308 b 956 1097 282 958 732 1240 b 858 567 1063 1029 982 768 b 656 118 782 442 675 257 b 972 -19 628 -93 831 -115 b 1254 358 1101 68 1201 244 b 1064 -179 1204 172 1136 -1 b 464 -268 863 -179 653 -190 b 725 -510 117 -411 363 -649 b 1110 -214 867 -456 1017 -354 b 1456 -182 1250 -212 1383 -211 b 1556 -40 1540 -146 1567 -76 z m 1044 -214 b 704 -481 961 -347 828 -435 b 486 -326 482 -562 214 -482 b 1044 -214 651 -231 857 -214 z "},"Z":{"ha":940,"x_min":0,"x_max":0,"o":"m 1453 918 b 1358 1044 1544 996 1474 1085 b 1204 951 1315 1029 1261 996 b 681 1063 1050 999 851 1076 b 414 739 357 1038 338 824 b 469 697 435 715 458 700 b 486 724 483 693 535 690 b 597 969 342 819 479 939 b 1178 931 763 1013 1014 976 b 882 639 1074 846 960 731 b 413 85 774 507 413 85 b 214 185 317 146 256 174 b 128 -51 -17 246 -47 -11 b 406 44 193 -65 285 -42 b 1060 -219 406 44 856 -224 b 1386 -18 1331 -214 1381 -71 b 1354 3 1394 61 1361 47 b 969 -131 1332 -156 1075 -151 b 440 64 821 -101 440 64 b 875 481 542 147 717 285 b 1228 918 979 610 1128 826 b 1453 918 1328 893 1410 882 z m 1428 929 b 1249 939 1392 907 1328 917 b 1413 1029 1313 993 1369 1029 b 1428 929 1463 1029 1468 954 z m 386 58 b 208 -11 347 25 272 -8 b 203 144 35 -17 38 163 b 344 90 239 140 288 122 b 386 58 358 81 386 58 z "},"[":{"ha":813,"x_min":0,"x_max":0,"o":"m 810 947 b 683 997 810 997 717 997 l 656 997 b 471 892 565 997 526 956 b 53 39 318 714 53 272 b 214 -24 53 -24 172 -24 b 386 8 246 -24 386 -28 b 328 39 386 33 346 39 b 228 33 294 39 261 33 b 135 94 186 33 135 40 b 607 921 135 254 467 850 b 672 928 622 929 656 928 b 775 922 707 928 740 922 b 810 947 796 922 810 921 z "},"\\":{"ha":1204,"x_min":0,"x_max":0,"o":"m 1193 -47 b 1181 -26 1192 -39 1186 -33 b 601 713 954 208 793 454 b 128 1097 457 906 282 1097 b 28 1047 89 1097 42 1088 l 38 1038 b 96 1057 57 1043 76 1057 b 1183 -56 346 1057 929 19 z "},"]":{"ha":772,"x_min":0,"x_max":0,"o":"m 761 931 b 674 994 761 990 722 994 b 471 926 618 994 489 996 l 475 924 b 629 929 526 924 578 929 b 675 924 644 929 660 929 b 679 882 678 910 679 896 b 349 107 679 679 483 258 b 24 -17 239 -17 43 85 b 128 -24 44 -26 100 -24 b 382 40 211 -24 319 -22 b 761 931 571 231 761 663 z "},"^":{"ha":514,"x_min":0,"x_max":0,"o":"m 560 543 l 553 554 b 400 713 496 601 443 653 l 392 717 b 164 546 361 713 168 571 l 172 536 b 361 658 197 540 332 638 b 543 531 388 622 499 531 b 560 543 550 531 560 533 z "},"_":{"ha":1119,"x_min":0,"x_max":0,"o":"m 1101 -74 b 1063 -35 1100 -54 1083 -35 l 35 -35 b 11 -61 19 -35 11 -47 b 35 -101 11 -74 18 -101 b 304 -93 125 -101 214 -94 b 1092 -83 567 -87 829 -83 z "},"`":{"ha":293,"x_min":0,"x_max":0,"o":"m 268 567 b 39 742 268 576 65 742 b 13 713 24 742 13 729 b 64 650 13 682 39 663 b 254 554 90 638 242 554 b 268 567 261 554 268 558 z "},"a":{"ha":486,"x_min":0,"x_max":0,"o":"m 585 256 b 565 267 599 283 578 292 b 386 33 536 207 444 31 b 372 117 368 33 361 60 b 501 376 390 201 472 347 b 443 382 482 372 461 381 b 349 293 399 385 379 351 b 225 99 313 225 274 157 b 97 107 160 21 83 10 b 154 247 106 160 143 228 b 339 446 204 329 276 411 b 457 411 390 474 442 463 b 472 451 481 407 492 431 b 150 388 393 538 233 486 b 206 46 -60 136 46 -107 b 306 176 246 85 283 140 b 375 -3 264 31 329 -6 b 585 256 458 4 543 171 z "},"b":{"ha":479,"x_min":0,"x_max":0,"o":"m 364 790 b -33 72 244 613 61 197 b -22 54 -42 60 -33 44 b 125 301 6 81 61 181 b 64 149 97 244 75 192 b 256 10 39 49 97 -33 b 482 289 372 40 457 172 b 371 485 500 378 472 469 b 351 457 308 494 310 453 b 404 285 439 465 440 376 b 300 113 381 229 339 158 b 181 33 251 54 213 26 b 217 389 86 53 146 249 b 522 853 310 574 472 800 b 464 858 503 849 482 857 l 457 858 b 364 790 426 860 397 839 z "},"c":{"ha":361,"x_min":0,"x_max":0,"o":"m 469 254 b 450 264 482 282 463 289 b 207 19 394 154 328 19 b 125 126 147 19 125 71 b 201 339 125 207 176 303 b 350 458 240 394 300 458 b 378 390 376 458 390 439 b 335 319 371 365 350 338 b 428 393 365 289 422 347 b 332 489 435 450 401 489 b 146 379 265 489 197 449 b 193 -6 46 244 -26 -6 b 469 254 346 -6 401 110 z "},"d":{"ha":510,"x_min":0,"x_max":0,"o":"m 767 864 b 707 869 746 861 725 868 b 613 797 663 874 639 860 b 451 468 579 722 518 594 b 153 388 351 526 231 478 b 106 6 51 265 -25 42 b 308 160 201 -19 267 92 b 321 38 294 103 306 61 b 383 0 339 11 361 0 b 608 258 494 0 575 181 b 588 267 621 286 599 292 b 408 36 558 208 478 36 b 400 185 343 36 386 153 b 767 864 481 376 725 825 z m 440 446 b 254 132 375 324 306 204 b 144 224 136 -35 53 51 b 440 446 218 360 371 514 z "},"e":{"ha":342,"x_min":0,"x_max":0,"o":"m 442 260 b 417 261 456 289 428 286 b 188 24 385 188 310 24 b 140 214 96 24 119 164 b 311 275 178 214 268 243 b 388 478 400 343 440 438 b 150 388 326 524 221 471 b 43 128 89 315 42 211 b 176 -6 44 40 107 -6 b 442 260 331 -6 390 149 z m 297 299 b 150 238 247 257 175 238 b 233 368 163 263 197 324 b 297 299 404 575 411 394 z "},"f":{"ha":275,"x_min":0,"x_max":0,"o":"m 504 863 b 443 869 483 860 460 869 b 325 772 385 869 356 832 b 40 179 249 629 140 404 b -10 164 22 182 4 175 b -19 40 -36 144 -49 85 b -162 -411 -101 -153 -165 -321 b -90 -483 -161 -467 -129 -482 b 149 -1 60 -490 165 -196 b 375 261 247 -1 324 144 b 354 271 385 282 364 289 b 146 25 308 174 229 19 l 142 43 b 97 147 132 92 115 125 b 504 863 236 460 417 781 z m 119 -7 b 4 -390 122 -131 72 -301 b -76 -328 -50 -462 -114 -489 b 39 15 -54 -236 -10 -107 b 119 -7 57 0 92 -10 z m 117 19 l 108 19 b 53 46 83 19 61 31 l 83 115 b 104 82 90 107 99 94 b 117 19 111 64 115 43 z "},"g":{"ha":544,"x_min":0,"x_max":0,"o":"m 643 256 b 622 267 657 283 635 292 b 542 119 608 240 588 181 b 444 29 514 82 478 53 b 463 367 474 139 481 256 b 376 311 440 350 396 375 b 133 46 350 224 215 11 b 240 360 61 78 139 246 b 464 411 325 454 428 510 b 479 451 479 369 528 411 b 157 388 375 533 239 486 b 110 6 54 265 -29 65 b 376 246 221 -28 332 160 b 375 132 381 231 381 186 b 343 -22 369 76 360 26 b -26 -172 236 -65 110 -92 b -147 -332 -93 -211 -147 -264 b -17 -439 -147 -404 -104 -439 b 429 -17 185 -439 368 -192 b 643 256 532 32 572 110 z m 329 -62 b 250 -203 310 -110 283 -156 b 125 -339 211 -254 168 -304 b -50 -411 92 -364 10 -411 b -25 -212 -165 -411 -115 -272 b 281 -79 63 -154 179 -114 z "},"h":{"ha":461,"x_min":0,"x_max":0,"o":"m 558 254 b 539 268 572 283 551 293 b 351 24 510 208 415 19 b 331 97 333 25 319 40 b 497 456 349 194 497 456 b 240 325 450 472 307 385 b 128 203 203 293 165 250 b 483 838 242 435 422 775 b 425 843 464 835 443 842 b 326 756 381 846 358 814 b -56 -10 192 507 57 224 b -8 -1 -42 -1 -29 -3 b 43 19 21 -1 33 0 b 238 294 122 174 190 251 b 336 303 344 394 369 357 b 260 157 297 240 271 193 b 333 -6 218 28 285 -6 b 558 254 436 -6 513 158 z "},"i":{"ha":242,"x_min":0,"x_max":0,"o":"m 293 581 b 244 638 299 613 276 638 b 178 581 214 638 183 613 b 226 524 174 549 194 524 b 293 581 258 524 288 549 z m 97 118 b 114 158 100 128 114 158 l 225 418 b 196 467 240 451 240 467 l 119 465 b 133 407 125 458 144 433 l 44 181 b 119 0 15 108 15 0 b 338 254 222 0 301 176 b 319 267 350 282 331 292 b 189 57 281 189 235 103 b 126 31 174 43 147 28 b 97 118 88 33 85 72 z "},"j":{"ha":246,"x_min":0,"x_max":0,"o":"m 82 225 b -15 25 58 176 18 92 b -60 -56 -28 -1 -44 -29 b -397 -156 -172 -87 -304 -111 b -528 -269 -451 -181 -501 -218 b -417 -439 -569 -347 -556 -439 b 14 -69 -211 -439 -74 -226 b 344 256 214 3 250 63 b 325 268 358 283 338 293 b 242 119 311 242 286 185 b 38 -25 179 28 121 7 b 124 158 68 36 97 97 l 235 418 b 206 467 250 451 250 467 l 129 465 b 143 407 135 458 156 432 l 69 247 b 82 225 61 229 74 225 z m -86 -100 b -117 -151 -96 -118 -106 -136 b -450 -411 -179 -239 -328 -411 b -374 -186 -568 -411 -517 -247 b -86 -100 -294 -151 -175 -124 z m 293 581 b 244 638 299 613 276 638 b 178 581 214 638 183 613 b 226 524 174 549 194 524 b 293 581 258 524 288 549 z "},"k":{"ha":504,"x_min":0,"x_max":0,"o":"m 364 790 b -33 72 244 613 61 197 b -22 54 -42 60 -33 44 b 125 301 6 81 61 181 b 11 31 83 206 36 126 b 22 0 6 13 3 0 l 110 0 b 149 217 86 19 124 169 b 263 343 186 269 226 311 b 396 311 422 479 483 382 b 286 269 364 285 317 267 b 221 110 256 267 204 200 b 328 -8 235 38 278 -3 b 604 258 408 -17 494 6 b 586 271 614 281 597 293 b 474 81 547 190 508 118 b 310 247 346 -56 257 118 b 450 301 371 253 408 272 b 393 465 556 376 572 532 b 167 271 313 435 225 343 b 217 389 181 313 199 353 b 522 853 310 574 451 799 b 464 858 503 849 482 857 l 457 858 b 364 790 426 860 397 839 z "},"l":{"ha":294,"x_min":0,"x_max":0,"o":"m 440 685 b 292 761 540 907 390 926 b 81 271 211 626 124 426 b 146 -3 57 188 -10 -3 b 393 258 286 -3 358 185 b 372 265 406 286 385 289 b 269 89 354 229 315 154 b 126 176 196 -14 85 10 b 156 268 135 211 149 244 b 440 685 292 392 376 542 z m 419 706 b 167 313 365 576 265 413 b 386 768 210 424 318 672 b 419 706 461 875 447 769 z "},"m":{"ha":704,"x_min":0,"x_max":0,"o":"m 803 256 b 783 268 817 283 794 293 b 593 28 754 204 665 28 b 569 97 575 28 560 40 b 736 456 589 194 736 456 b 479 325 690 472 546 385 b 364 200 438 288 392 235 b 465 394 397 268 440 336 b 444 456 478 422 469 446 b 242 325 397 472 308 385 b 126 200 199 288 154 235 b 294 461 176 300 253 439 b 236 467 275 457 254 465 b 138 379 192 469 174 446 b -51 -7 69 254 15 125 b -6 1 -37 1 -25 0 b 47 24 25 1 38 3 b 239 294 126 176 192 251 b 294 235 385 431 340 329 b 236 76 271 183 246 138 b 281 0 229 36 249 0 b 476 294 299 83 417 239 b 575 303 583 394 608 357 b 499 157 536 240 510 193 b 574 -6 457 28 524 -6 b 803 256 679 -6 761 171 z "},"n":{"ha":465,"x_min":0,"x_max":0,"o":"m 564 256 b 544 268 578 283 556 293 b 354 28 515 210 426 28 b 332 97 336 28 321 40 b 499 456 350 194 499 456 b 242 325 451 472 308 385 b 126 200 199 288 154 235 b 294 461 176 300 253 439 b 236 467 275 457 254 465 b 138 379 192 469 174 446 b -54 -10 69 254 13 122 b -7 -1 -40 -1 -28 -3 b 46 19 22 -1 35 0 b 239 294 124 174 192 251 b 338 303 346 394 371 357 b 261 157 299 240 272 193 b 335 -6 219 28 286 -6 b 564 256 442 -6 522 171 z "},"o":{"ha":465,"x_min":0,"x_max":0,"o":"m 567 261 b 546 274 576 282 553 288 b 351 35 513 207 440 35 b 286 69 318 35 297 49 b 403 233 339 119 382 185 b 335 486 456 357 440 485 b 71 253 240 489 125 381 b 139 0 18 129 33 3 b 260 47 179 -1 221 18 b 349 11 278 26 307 11 b 567 261 465 11 543 208 z m 364 440 b 353 213 414 425 407 326 b 310 138 340 186 325 160 b 313 153 311 143 313 147 b 271 194 313 175 294 194 b 222 135 236 194 224 167 b 244 67 222 114 229 89 b 150 32 211 39 176 25 b 167 258 100 47 113 144 b 364 440 218 368 304 457 z "},"p":{"ha":467,"x_min":0,"x_max":0,"o":"m 426 486 b 178 253 332 513 219 321 b 217 419 196 300 215 374 b 167 476 219 488 207 481 b 99 465 156 475 99 465 b 90 292 132 458 117 353 b 63 229 83 275 69 243 b 94 242 53 210 79 218 b -201 -369 69 115 -167 -336 b -143 -376 -182 -367 -161 -375 b -50 -304 -97 -379 -78 -364 l 82 25 b 379 106 181 -33 303 14 b 426 486 481 228 558 450 z m 389 269 b 93 46 314 132 161 -22 b 279 361 158 168 226 289 b 389 269 397 526 481 440 z "},"q":{"ha":475,"x_min":0,"x_max":0,"o":"m 508 351 b 450 357 489 349 467 357 b 365 288 414 360 401 349 b 133 46 329 229 207 14 b 464 411 1 104 385 626 b 478 451 479 369 528 411 b 157 388 375 533 239 486 b 108 6 54 265 -29 65 b 263 78 168 -12 224 32 b 360 219 275 94 351 204 b 150 -225 301 89 263 35 b 142 -357 122 -286 111 -324 b 182 -399 153 -369 172 -382 b 508 351 194 -312 401 188 z "},"r":{"ha":361,"x_min":0,"x_max":0,"o":"m 458 254 b 442 268 472 282 454 292 b 269 36 413 208 326 35 b 349 338 186 40 328 294 b 378 444 365 372 388 425 b 186 439 310 438 238 436 b 263 532 210 456 254 493 b 178 582 282 625 192 660 b -36 72 150 426 74 217 b -25 54 -44 60 -36 44 b 143 361 43 119 110 274 l 160 406 b 267 340 238 404 286 386 b 181 176 251 306 201 233 b 257 1 125 32 210 -10 b 458 254 347 24 418 171 z "},"s":{"ha":356,"x_min":0,"x_max":0,"o":"m 457 263 b 436 271 464 276 443 285 b 332 89 407 214 364 128 b 207 25 297 47 254 18 l 197 26 b 296 181 251 63 293 126 b 246 344 299 242 268 292 b 275 521 225 394 211 490 b 319 519 289 528 306 525 b 325 543 344 507 350 531 b 274 550 311 550 294 553 b 158 431 225 543 183 485 b 39 190 122 351 76 261 b 108 -6 -28 188 -60 -6 b 165 8 126 -6 146 0 b 457 263 322 -39 406 147 z m 211 181 b 150 36 207 107 181 60 b 92 143 118 51 89 90 b 63 188 93 189 63 188 b 193 444 96 249 156 369 b 211 181 182 382 215 268 z m 126 24 b 99 18 118 19 108 18 b 71 128 44 18 26 83 b 126 24 74 75 97 42 z "},"t":{"ha":278,"x_min":0,"x_max":0,"o":"m 421 528 l 354 528 b 414 647 375 567 394 606 b 271 725 517 869 367 893 b 169 528 236 665 201 597 l 86 528 b 83 497 71 528 68 497 l 156 497 b 47 143 111 389 60 238 b 239 39 26 -10 164 -33 b 375 256 290 90 314 128 b 357 264 389 283 368 289 b 210 54 319 189 274 101 b 121 126 164 21 100 33 b 153 268 121 126 140 232 b 338 497 235 343 290 417 l 418 497 b 421 528 432 497 435 528 z m 393 669 b 324 528 374 624 350 575 l 254 528 b 353 731 289 607 319 683 b 393 669 439 851 419 728 z m 306 497 b 165 313 265 431 218 367 b 240 497 185 361 211 429 z "},"u":{"ha":496,"x_min":0,"x_max":0,"o":"m 594 256 b 575 268 608 283 586 293 b 390 36 528 168 458 36 b 364 119 371 38 351 60 b 457 340 372 167 418 263 b 553 478 499 426 513 446 l 478 478 b 424 449 451 478 435 471 b 217 86 371 339 294 176 b 135 182 126 -18 68 38 b 222 361 160 235 222 361 b 311 478 260 438 279 454 l 226 478 b 172 449 200 478 183 471 b 94 296 151 406 122 349 l 69 247 b 82 225 61 229 74 225 b 35 64 57 175 22 124 b 122 1 46 11 94 1 b 310 179 190 1 263 96 b 374 1 274 67 311 1 b 594 256 475 1 550 161 z "},"v":{"ha":364,"x_min":0,"x_max":0,"o":"m 444 467 b 326 404 471 528 365 528 b 338 265 314 367 318 308 b 140 40 282 128 207 11 b 174 251 104 57 139 160 b 214 419 192 297 213 374 b 164 476 217 488 204 481 b 96 465 153 475 96 465 b 92 293 133 456 119 347 l 67 246 b 92 242 58 226 76 218 b 101 -7 53 135 18 10 b 442 460 293 -46 410 360 b 444 467 442 463 443 465 z "},"w":{"ha":661,"x_min":0,"x_max":0,"o":"m 694 468 b 583 406 719 528 619 529 b 594 267 572 368 575 310 b 390 25 542 133 469 19 b 419 281 301 31 403 246 b 496 426 456 357 467 378 b 551 478 513 456 540 467 l 467 478 b 414 449 442 478 424 471 b 189 58 382 382 274 140 b 135 182 119 -8 75 53 b 222 361 160 235 222 361 b 311 478 260 438 279 454 l 226 478 b 172 449 200 478 183 471 b 94 296 151 406 122 350 l 69 247 b 82 225 61 229 74 225 b 35 64 57 175 22 124 b 121 0 43 24 82 0 b 306 188 197 0 274 129 b 354 0 288 128 279 17 b 692 461 556 -43 663 364 b 694 468 692 464 693 467 z "},"x":{"ha":463,"x_min":0,"x_max":0,"o":"m 563 260 b 542 267 572 279 556 293 b 332 35 489 165 421 15 b 294 186 297 42 281 106 b 444 428 324 275 389 375 b 479 404 449 414 461 404 b 535 449 504 404 529 424 b 479 490 543 486 510 497 b 314 290 439 479 363 383 b 258 465 329 368 333 457 b 181 433 232 468 206 454 b 61 228 144 400 88 283 b 74 210 47 199 61 188 b 160 369 90 239 143 342 b 250 390 213 456 250 433 b 238 285 251 356 244 322 b 51 -6 199 157 107 21 b -19 -6 21 -19 -4 -19 b -43 -28 -32 8 -56 -14 b 61 -33 -15 -56 28 -50 b 221 164 111 -10 174 72 b 219 136 219 156 219 146 b 321 0 217 75 251 0 b 563 260 454 0 517 168 z "},"y":{"ha":554,"x_min":0,"x_max":0,"o":"m 651 253 b 632 265 665 281 644 290 b 544 113 618 239 588 175 b 344 -25 490 35 406 -7 b 456 293 385 85 421 200 b 564 478 490 386 511 442 l 489 478 b 435 449 463 478 446 471 b 217 86 382 339 294 176 b 135 182 126 -18 68 38 b 260 428 174 265 213 347 b 311 478 276 457 299 467 l 226 478 b 172 449 200 478 183 471 b 94 296 151 406 122 349 l 69 247 b 82 225 61 229 74 225 b 35 64 57 175 22 124 b 122 1 46 11 94 1 b 367 257 229 1 319 174 b 247 -56 344 185 300 36 b -90 -156 135 -87 3 -111 b -221 -269 -144 -181 -194 -218 b -110 -439 -262 -347 -249 -439 b 321 -69 96 -439 233 -226 b 651 253 521 3 557 61 z m 222 -100 l 192 -151 b -142 -411 128 -239 -19 -411 b -67 -186 -261 -411 -208 -247 b 222 -100 13 -151 132 -124 z "},"z":{"ha":474,"x_min":0,"x_max":0,"o":"m 572 256 b 553 267 586 283 565 292 b 339 18 499 153 431 36 b 354 119 346 40 354 100 b 258 210 353 171 328 211 b 394 401 346 263 392 340 b 136 375 400 514 221 529 b 54 217 106 319 79 265 b 71 201 39 185 60 178 b 144 340 92 246 128 313 b 303 300 229 486 368 400 b 147 178 285 272 239 206 b 158 151 125 171 136 143 b 219 178 181 160 201 168 b 246 -15 300 192 267 51 b -242 -240 69 -71 -167 -128 b -83 -421 -315 -354 -225 -462 b 331 -17 117 -362 260 -211 b 572 256 449 7 508 126 z m 233 -50 b -126 -397 158 -247 -18 -374 b -111 -171 -272 -428 -233 -242 b 233 -50 -31 -122 110 -89 z "},"{":{"ha":513,"x_min":0,"x_max":0,"o":"m 585 1008 l 579 1008 b 376 960 488 1008 419 992 b 254 631 292 894 274 722 b 189 490 240 561 219 514 b 29 442 160 465 107 450 b 21 404 29 442 -3 404 b 111 392 61 404 90 400 b 160 356 131 383 147 371 b 169 215 181 331 183 283 b 146 -133 157 151 85 -67 b 328 -182 176 -165 238 -182 l 335 -182 b 339 -151 349 -182 356 -150 b 214 -115 276 -151 235 -140 b 204 25 193 -92 190 -44 b 236 347 218 93 274 279 b 93 422 215 383 168 408 b 278 511 179 438 242 467 b 435 939 368 621 344 860 b 578 976 463 964 511 976 b 585 1008 589 976 617 1008 z "},"|":{"ha":674,"x_min":0,"x_max":0,"o":"m 367 -321 l 367 1040 l 307 1040 l 307 -321 z "},"}":{"ha":674,"x_min":0,"x_max":0,"o":"m 663 422 b 529 468 592 429 547 444 b 583 954 463 556 663 853 b 404 1003 558 988 499 1003 l 397 1003 b 389 971 397 1003 361 971 b 514 933 456 971 497 958 b 507 794 531 908 528 863 b 454 478 488 728 421 549 b 588 403 474 440 517 415 b 407 326 507 388 447 363 b 194 -114 289 218 296 -33 b 47 -151 164 -139 114 -151 b 36 -182 29 -151 19 -181 l 43 -182 b 247 -135 133 -182 201 -167 b 485 336 394 -32 367 247 b 650 385 528 369 583 385 b 663 422 650 385 686 421 z "},"~":{"ha":674,"x_min":0,"x_max":0,"o":"m 629 686 b 600 689 632 692 603 696 b 524 640 585 657 561 636 b 356 690 468 644 415 686 b 219 586 292 696 246 633 b 251 583 217 579 249 575 b 324 629 265 610 290 632 b 492 575 381 625 433 581 b 629 686 557 569 604 635 z "},"Ä":{"ha":989,"x_min":0,"x_max":0,"o":"m 1163 1135 b 1115 1181 1163 1163 1142 1181 b 1071 1135 1089 1181 1071 1161 b 1118 1089 1071 1107 1092 1089 b 1163 1135 1144 1089 1163 1108 z m 983 1135 b 936 1181 983 1163 963 1181 b 892 1135 910 1181 892 1161 b 939 1089 892 1107 913 1089 b 983 1135 965 1089 983 1108 z m 1135 819 b 910 982 1135 914 1050 982 b 268 668 656 982 432 846 b 153 749 221 689 182 717 b 125 849 122 781 108 811 b 101 874 139 879 117 893 b 114 729 74 853 76 769 b 244 640 146 693 192 665 b 125 -49 65 443 -71 35 b 696 267 322 -133 582 132 b 753 -89 633 185 599 -89 b 957 31 831 -89 910 -33 b 1086 253 1008 99 1061 197 b 1063 258 1101 286 1075 285 b 942 61 1032 189 985 117 b 738 125 832 -75 694 -110 b 876 451 763 261 803 371 b 801 488 951 532 883 635 b 476 99 732 361 619 219 b 142 303 221 -114 0 -51 b 326 603 192 426 286 567 b 729 565 449 564 581 553 b 1135 819 1033 592 1135 726 z m 1081 835 b 729 596 1081 708 946 614 b 347 628 563 582 449 596 b 914 949 493 800 669 949 b 1081 835 1010 949 1081 910 z "},"Å":{"ha":989,"x_min":0,"x_max":0,"o":"m 1049 1104 b 1096 1157 1051 1133 1072 1156 b 1135 1107 1119 1158 1138 1136 b 1088 1053 1132 1078 1113 1053 b 1049 1104 1064 1053 1047 1075 z m 1000 1101 b 1083 1029 994 1061 1032 1028 b 1185 1107 1135 1031 1179 1065 b 1101 1179 1189 1147 1153 1181 b 1000 1101 1051 1176 1004 1143 z m 1135 819 b 910 982 1135 914 1050 982 b 268 668 656 982 432 846 b 153 749 221 689 182 717 b 125 849 122 781 108 811 b 101 874 139 879 117 893 b 114 729 74 853 76 769 b 244 640 146 693 192 665 b 125 -49 65 443 -71 35 b 696 267 322 -133 582 132 b 753 -89 633 185 599 -89 b 957 31 831 -89 910 -33 b 1086 253 1008 99 1061 197 b 1063 258 1101 286 1075 285 b 942 61 1032 189 985 117 b 738 125 832 -75 694 -110 b 876 451 763 261 803 371 b 801 488 951 532 883 635 b 476 99 732 361 619 219 b 142 303 221 -114 0 -51 b 326 603 192 426 286 567 b 729 565 449 564 581 553 b 1135 819 1033 592 1135 726 z m 1081 835 b 729 596 1081 708 946 614 b 347 628 563 582 449 596 b 914 949 493 800 669 949 b 1081 835 1010 949 1081 910 z "},"Ç":{"ha":986,"x_min":0,"x_max":0,"o":"m 681 -290 b 515 -185 681 -211 578 -185 b 461 -189 497 -185 479 -186 b 521 -140 460 -181 511 -149 b 860 -35 649 -143 765 -99 b 1083 254 978 49 1024 132 b 1067 268 1097 282 1078 292 b 839 -12 1008 149 960 58 b 374 -71 701 -94 522 -115 b 290 668 13 40 240 603 b 635 432 363 518 490 453 b 863 1078 1207 349 1404 1017 b 285 824 643 1103 435 1017 b 274 1088 271 899 258 1000 b 246 1094 281 1126 251 1118 b 251 776 218 992 229 863 b 319 -97 58 533 -29 50 b 493 -139 378 -122 436 -135 b 404 -210 465 -160 411 -201 b 399 -222 400 -214 399 -217 b 425 -243 399 -235 413 -243 b 525 -210 439 -243 472 -210 b 629 -289 572 -210 629 -235 b 610 -346 629 -308 621 -329 b 476 -396 585 -385 519 -396 b 357 -361 442 -396 382 -387 b 336 -346 351 -356 344 -346 b 328 -356 331 -346 328 -350 b 503 -419 328 -404 468 -419 b 608 -396 536 -419 579 -415 b 681 -290 643 -372 681 -335 z m 875 1025 b 656 465 1281 967 1157 410 b 318 713 504 482 381 553 b 875 1025 456 922 668 1056 z "},"É":{"ha":1253,"x_min":0,"x_max":0,"o":"m 1238 1143 b 1226 1175 1243 1156 1239 1169 b 1158 1161 1203 1186 1178 1175 b 1014 1054 1140 1146 1018 1063 b 1017 1039 1010 1049 1011 1042 b 1238 1143 1025 1035 1228 1124 z m 1100 267 b 1071 249 1054 289 1007 264 b 994 53 1147 231 1097 133 b 454 -136 875 -40 668 -136 b 375 411 -24 -136 85 331 b 740 454 551 461 724 399 b 449 701 761 553 411 483 b 976 976 481 879 760 997 b 949 689 1231 950 1076 703 b 953 664 886 682 874 646 b 982 1010 1233 726 1306 972 b 343 667 761 1035 364 906 b 510 493 336 585 432 521 b 369 469 465 492 417 483 b 449 -167 -85 333 -111 -167 b 1051 15 678 -167 914 -93 b 1100 267 1174 111 1201 215 z "},"Ñ":{"ha":1443,"x_min":0,"x_max":0,"o":"m 1656 889 b 1369 983 1658 1040 1500 1044 b 1040 694 1263 935 1144 821 b 857 444 971 611 907 522 b 850 460 831 404 778 303 b 965 783 897 564 953 676 b 424 979 1007 1125 653 1104 b 43 592 264 892 110 751 b 253 131 -74 308 76 131 b 472 575 621 131 801 654 b 475 553 458 572 447 550 b 257 157 722 585 549 157 b 439 919 -18 157 29 665 b 875 731 678 1068 956 1096 b 524 -97 808 436 592 3 b 639 -89 513 -142 615 -139 b 1068 672 729 100 872 435 b 1376 925 1167 790 1274 876 b 1546 874 1474 972 1563 971 b 1219 118 1524 731 1268 263 b 1389 -242 1144 -107 1200 -233 b 1419 -189 1490 -246 1515 -144 b 1339 185 1260 -262 1213 -92 b 1656 889 1476 485 1653 724 z m 1624 1174 b 1600 1176 1626 1179 1603 1182 b 1536 1136 1588 1150 1568 1133 b 1397 1178 1490 1140 1447 1174 b 1285 1092 1344 1182 1307 1131 b 1311 1089 1282 1086 1308 1082 b 1371 1126 1322 1111 1343 1129 b 1510 1082 1418 1124 1461 1086 b 1624 1174 1564 1078 1603 1132 z "},"Ö":{"ha":1089,"x_min":0,"x_max":0,"o":"m 981 1135 b 933 1181 981 1163 960 1181 b 889 1135 907 1181 889 1161 b 936 1089 889 1107 910 1089 b 981 1135 963 1089 981 1108 z m 801 1135 b 754 1181 801 1163 781 1181 b 710 1135 728 1181 710 1161 b 757 1089 710 1107 731 1089 b 801 1135 783 1089 801 1108 z m 1238 733 b 1217 749 1258 767 1226 768 b 1036 574 1182 681 1111 624 b 53 608 1064 1260 -1 1142 b 160 433 60 532 100 474 b 303 -93 65 192 144 -42 b 999 376 597 -189 913 114 b 1031 525 1015 429 1026 478 b 1238 733 1118 581 1186 653 z m 951 529 b 256 443 725 407 419 363 b 706 840 314 574 532 894 b 717 860 724 835 738 849 b 185 490 507 978 261 651 b 129 596 154 517 135 553 b 951 529 56 1092 1017 1263 z m 943 481 b 918 382 939 449 929 414 b 307 -49 822 110 550 -168 b 235 394 172 18 168 219 b 943 481 418 321 714 358 z "},"Ü":{"ha":1308,"x_min":0,"x_max":0,"o":"m 1369 669 b 1292 596 1353 669 1322 650 b 1058 163 1235 493 1151 297 b 749 63 906 -58 764 -82 b 996 801 728 265 946 582 b 878 1153 1031 954 1014 1094 b 425 1092 754 1207 583 1179 b 388 217 -251 722 -28 40 b 453 682 694 346 739 803 b 460 658 442 678 388 642 b 389 249 725 718 579 319 b 422 1046 3 104 -133 721 b 885 1108 581 1138 771 1178 b 914 807 951 1068 947 940 b 669 63 863 606 639 250 b 1079 124 699 -115 894 -114 b 1164 249 1114 168 1143 214 b 1246 -118 1140 129 1115 -94 b 1256 -86 1289 -125 1322 -81 b 1236 229 1179 -90 1196 79 b 1319 454 1263 328 1301 415 b 1369 669 1357 539 1438 636 z m 1382 999 b 1335 1044 1382 1026 1361 1044 b 1290 999 1308 1044 1290 1025 b 1338 953 1290 971 1311 953 b 1382 999 1364 953 1382 972 z m 1203 999 b 1156 1044 1203 1026 1182 1044 b 1111 999 1129 1044 1111 1025 b 1158 953 1111 971 1132 953 b 1203 999 1185 953 1203 972 z "},"á":{"ha":486,"x_min":0,"x_max":0,"o":"m 585 256 b 565 267 599 283 578 292 b 386 33 536 207 444 31 b 372 117 368 33 361 60 b 501 376 390 201 472 347 b 443 382 482 372 461 381 b 349 293 399 385 379 351 b 225 99 313 225 274 157 b 97 107 160 21 83 10 b 154 247 106 160 143 228 b 339 446 204 329 276 411 b 457 411 390 474 442 463 b 472 451 481 407 492 431 b 150 388 393 538 233 486 b 206 46 -60 136 46 -107 b 306 176 246 85 283 140 b 375 -3 264 31 329 -6 b 585 256 458 4 543 171 z m 571 671 b 558 708 578 685 572 701 b 478 692 531 722 500 708 b 307 565 456 674 313 576 b 311 547 303 560 304 551 b 571 671 321 543 560 647 z "},"à":{"ha":486,"x_min":0,"x_max":0,"o":"m 585 256 b 565 267 599 283 578 292 b 386 33 536 207 444 31 b 372 117 368 33 361 60 b 501 376 390 201 472 347 b 443 382 482 372 461 381 b 349 293 399 385 379 351 b 225 99 313 225 274 157 b 97 107 160 21 83 10 b 154 247 106 160 143 228 b 339 446 204 329 276 411 b 457 411 390 474 442 463 b 472 451 481 407 492 431 b 150 388 393 538 233 486 b 206 46 -60 136 46 -107 b 306 176 246 85 283 140 b 375 -3 264 31 329 -6 b 585 256 458 4 543 171 z m 449 564 b 219 739 449 574 246 739 b 193 710 204 739 193 726 b 244 647 193 679 219 660 b 435 551 271 635 422 551 b 449 564 442 551 449 556 z "},"â":{"ha":486,"x_min":0,"x_max":0,"o":"m 585 256 b 565 267 599 283 578 292 b 386 33 536 207 444 31 b 372 117 368 33 361 60 b 501 376 390 201 472 347 b 443 382 482 372 461 381 b 349 293 399 385 379 351 b 225 99 313 225 274 157 b 97 107 160 21 83 10 b 154 247 106 160 143 228 b 339 446 204 329 276 411 b 457 411 390 474 442 463 b 472 451 481 407 492 431 b 150 388 393 538 233 486 b 206 46 -60 136 46 -107 b 306 176 246 85 283 140 b 375 -3 264 31 329 -6 b 585 256 458 4 543 171 z m 569 569 l 519 717 b 467 717 518 724 467 717 l 260 569 b 294 569 249 561 281 557 b 478 668 313 579 478 668 l 542 569 b 569 569 547 560 575 557 z "},"ä":{"ha":486,"x_min":0,"x_max":0,"o":"m 585 256 b 565 267 599 283 578 292 b 386 33 536 207 444 31 b 372 117 368 33 361 60 b 501 376 390 201 472 347 b 443 382 482 372 461 381 b 349 293 399 385 379 351 b 225 99 313 225 274 157 b 97 107 160 21 83 10 b 154 247 106 160 143 228 b 339 446 204 329 276 411 b 457 411 390 474 442 463 b 472 451 481 407 492 431 b 150 388 393 538 233 486 b 206 46 -60 136 46 -107 b 306 176 246 85 283 140 b 375 -3 264 31 329 -6 b 585 256 458 4 543 171 z m 569 638 b 522 683 569 665 549 683 b 478 638 496 683 478 664 b 525 592 478 610 499 592 b 569 638 551 592 569 611 z m 390 638 b 343 683 390 665 369 683 b 299 638 317 683 299 664 b 346 592 299 610 319 592 b 390 638 372 592 390 611 z "},"ã":{"ha":486,"x_min":0,"x_max":0,"o":"m 585 256 b 565 267 599 283 578 292 b 386 33 536 207 444 31 b 372 117 368 33 361 60 b 501 376 390 201 472 347 b 443 382 482 372 461 381 b 349 293 399 385 379 351 b 225 99 313 225 274 157 b 97 107 160 21 83 10 b 154 247 106 160 143 228 b 339 446 204 329 276 411 b 457 411 390 474 442 463 b 472 451 481 407 492 431 b 150 388 393 538 233 486 b 206 46 -60 136 46 -107 b 306 176 246 85 283 140 b 375 -3 264 31 329 -6 b 585 256 458 4 543 171 z m 621 724 b 592 726 624 729 594 733 b 515 678 576 694 553 674 b 347 728 460 682 407 724 b 211 624 283 733 238 671 b 243 621 208 617 240 613 b 315 667 257 647 282 669 b 483 613 372 663 425 618 b 621 724 549 607 596 672 z "},"å":{"ha":486,"x_min":0,"x_max":0,"o":"m 585 256 b 565 267 599 283 578 292 b 386 33 536 207 444 31 b 372 117 368 33 361 60 b 501 376 390 201 472 347 b 443 382 482 372 461 381 b 349 293 399 385 379 351 b 225 99 313 225 274 157 b 97 107 160 21 83 10 b 154 247 106 160 143 228 b 339 446 204 329 276 411 b 457 411 390 474 442 463 b 472 451 481 407 492 431 b 150 388 393 538 233 486 b 206 46 -60 136 46 -107 b 306 176 246 85 283 140 b 375 -3 264 31 329 -6 b 585 256 458 4 543 171 z m 389 682 b 436 735 392 711 413 733 b 475 685 460 736 478 714 b 428 631 472 656 453 631 b 389 682 404 631 388 653 z m 340 679 b 424 607 335 639 372 606 b 525 685 475 608 519 643 b 442 757 529 725 493 758 b 340 679 392 754 344 721 z "},"ç":{"ha":361,"x_min":0,"x_max":0,"o":"m 376 -160 b 211 -54 376 -81 274 -54 b 157 -58 193 -54 175 -56 b 218 -10 156 -50 210 -17 l 215 -4 b 469 254 351 6 404 117 b 450 264 482 282 463 289 b 207 19 394 154 328 19 b 125 126 147 19 125 71 b 201 339 125 207 176 303 b 350 458 240 394 300 458 b 378 390 376 458 390 439 b 335 319 371 365 350 338 b 428 393 365 289 422 347 b 332 489 435 450 401 489 b 146 379 265 489 197 449 b 193 -6 46 244 -26 -6 l 194 -6 b 100 -79 168 -24 107 -71 b 94 -92 96 -83 94 -86 b 121 -112 94 -104 108 -112 b 221 -79 135 -112 168 -79 b 325 -158 268 -79 325 -104 b 306 -215 325 -178 317 -199 b 172 -265 281 -254 215 -265 b 53 -231 138 -265 78 -257 b 32 -215 47 -225 40 -215 b 24 -225 26 -215 24 -219 b 199 -289 24 -274 164 -289 b 304 -265 232 -289 275 -285 b 376 -160 339 -242 376 -204 z "},"é":{"ha":342,"x_min":0,"x_max":0,"o":"m 442 260 b 417 261 456 289 428 286 b 188 24 385 188 310 24 b 140 214 96 24 119 164 b 311 275 178 214 268 243 b 388 478 400 343 440 438 b 150 388 326 524 221 471 b 43 128 89 315 42 211 b 176 -6 44 40 107 -6 b 442 260 331 -6 390 149 z m 297 299 b 150 238 247 257 175 238 b 233 368 163 263 197 324 b 297 299 404 575 411 394 z m 547 671 b 535 708 554 685 549 701 b 454 692 507 722 476 708 b 283 565 432 674 289 576 b 288 547 279 560 281 551 b 547 671 297 543 536 647 z "},"è":{"ha":342,"x_min":0,"x_max":0,"o":"m 442 260 b 417 261 456 289 428 286 b 188 24 385 188 310 24 b 140 214 96 24 119 164 b 311 275 178 214 268 243 b 388 478 400 343 440 438 b 150 388 326 524 221 471 b 43 128 89 315 42 211 b 176 -6 44 40 107 -6 b 442 260 331 -6 390 149 z m 297 299 b 150 238 247 257 175 238 b 233 368 163 263 197 324 b 297 299 404 575 411 394 z m 399 551 b 169 726 399 561 196 726 b 143 697 154 726 143 714 b 194 635 143 667 169 647 b 385 539 221 622 372 539 b 399 551 392 539 399 543 z "},"ê":{"ha":342,"x_min":0,"x_max":0,"o":"m 442 260 b 417 261 456 289 428 286 b 188 24 385 188 310 24 b 140 214 96 24 119 164 b 311 275 178 214 268 243 b 388 478 400 343 440 438 b 150 388 326 524 221 471 b 43 128 89 315 42 211 b 176 -6 44 40 107 -6 b 442 260 331 -6 390 149 z m 297 299 b 150 238 247 257 175 238 b 233 368 163 263 197 324 b 297 299 404 575 411 394 z m 508 569 l 458 717 b 406 717 457 724 406 717 l 199 569 b 233 569 188 561 219 557 b 417 668 251 579 417 668 l 481 569 b 508 569 486 560 514 557 z "},"ë":{"ha":342,"x_min":0,"x_max":0,"o":"m 442 260 b 417 261 456 289 428 286 b 188 24 385 188 310 24 b 140 214 96 24 119 164 b 311 275 178 214 268 243 b 388 478 400 343 440 438 b 150 388 326 524 221 471 b 43 128 89 315 42 211 b 176 -6 44 40 107 -6 b 442 260 331 -6 390 149 z m 297 299 b 150 238 247 257 175 238 b 233 368 163 263 197 324 b 297 299 404 575 411 394 z m 494 611 b 447 657 494 639 474 657 b 403 611 421 657 403 638 b 450 565 403 583 424 565 b 494 611 476 565 494 585 z m 315 611 b 268 657 315 639 294 657 b 224 611 242 657 224 638 b 271 565 224 583 244 565 b 315 611 297 565 315 585 z "},"í":{"ha":233,"x_min":0,"x_max":0,"o":"m 328 254 b 310 267 342 282 322 292 b 179 57 272 189 226 103 b 118 31 165 43 139 28 b 89 118 78 33 75 72 b 106 158 92 128 106 158 b 250 428 143 254 250 428 b 301 478 265 457 290 467 l 231 478 b 156 411 186 478 190 478 l 35 181 b 110 0 -1 113 7 0 b 328 254 214 0 292 176 z m 525 700 b 513 738 532 714 526 731 b 432 721 485 751 454 738 b 261 594 410 703 267 606 b 265 576 257 589 258 581 b 525 700 275 572 514 676 z "},"ì":{"ha":233,"x_min":0,"x_max":0,"o":"m 328 254 b 310 267 342 282 322 292 b 179 57 272 189 226 103 b 118 31 165 43 139 28 b 89 118 78 33 75 72 b 106 158 92 128 106 158 b 250 428 143 254 250 428 b 301 478 265 457 290 467 l 231 478 b 156 411 186 478 190 478 l 35 181 b 110 0 -1 113 7 0 b 328 254 214 0 292 176 z m 331 567 b 101 742 331 576 128 742 b 75 713 86 742 75 729 b 126 650 75 682 101 663 b 317 554 153 638 304 554 b 331 567 324 554 331 558 z "},"î":{"ha":233,"x_min":0,"x_max":0,"o":"m 328 254 b 310 267 342 282 322 292 b 179 57 272 189 226 103 b 118 31 165 43 139 28 b 89 118 78 33 75 72 b 106 158 92 128 106 158 b 250 428 143 254 250 428 b 301 478 265 457 290 467 l 231 478 b 156 411 186 478 190 478 l 35 181 b 110 0 -1 113 7 0 b 328 254 214 0 292 176 z m 439 564 l 389 711 b 336 711 388 718 336 711 l 129 564 b 164 564 118 556 150 551 b 347 663 182 574 347 663 l 411 564 b 439 564 417 554 444 551 z "},"ï":{"ha":233,"x_min":0,"x_max":0,"o":"m 328 254 b 310 267 342 282 322 292 b 179 57 272 189 226 103 b 118 31 165 43 139 28 b 89 118 78 33 75 72 b 106 158 92 128 106 158 b 250 428 143 254 250 428 b 301 478 265 457 290 467 l 231 478 b 156 411 186 478 190 478 l 35 181 b 110 0 -1 113 7 0 b 328 254 214 0 292 176 z m 419 596 b 372 642 419 624 399 642 b 328 596 346 642 328 622 b 375 550 328 568 349 550 b 419 596 401 550 419 569 z m 240 596 b 193 642 240 624 219 642 b 149 596 167 642 149 622 b 196 550 149 568 169 550 b 240 596 222 550 240 569 z "},"ñ":{"ha":465,"x_min":0,"x_max":0,"o":"m 564 256 b 544 268 578 283 556 293 b 354 28 515 210 426 28 b 332 97 336 28 321 40 b 499 456 350 194 499 456 b 242 325 451 472 308 385 b 126 200 199 288 154 235 b 294 461 176 300 253 439 b 236 467 275 457 254 465 b 138 379 192 469 174 446 b -54 -10 69 254 13 122 b -7 -1 -40 -1 -28 -3 b 46 19 22 -1 35 0 b 239 294 124 174 192 251 b 338 303 346 394 371 357 b 261 157 299 240 272 193 b 335 -6 219 28 286 -6 b 564 256 442 -6 522 171 z m 607 679 b 578 682 610 685 581 689 b 501 633 563 650 539 629 b 333 683 446 638 393 679 b 197 579 269 689 224 626 b 229 576 194 572 226 568 b 301 622 243 603 268 625 b 469 568 358 618 411 574 b 607 679 535 563 582 628 z "},"ó":{"ha":465,"x_min":0,"x_max":0,"o":"m 567 261 b 546 274 576 282 553 288 b 351 35 513 207 440 35 b 286 69 318 35 297 49 b 403 233 339 119 382 185 b 335 486 456 357 440 485 b 71 253 240 489 125 381 b 139 0 18 129 33 3 b 260 47 179 -1 221 18 b 349 11 278 26 307 11 b 567 261 465 11 543 208 z m 364 440 b 353 213 414 425 407 326 b 310 138 340 186 325 160 b 313 153 311 143 313 147 b 271 194 313 175 294 194 b 222 135 236 194 224 167 b 244 67 222 114 229 89 b 150 32 211 39 176 25 b 167 258 100 47 113 144 b 364 440 218 368 304 457 z m 614 704 b 601 742 621 718 615 735 b 521 725 574 756 543 742 b 350 599 499 707 356 610 b 354 581 346 593 347 585 b 614 704 364 576 603 681 z "},"ò":{"ha":465,"x_min":0,"x_max":0,"o":"m 567 261 b 546 274 576 282 553 288 b 351 35 513 207 440 35 b 286 69 318 35 297 49 b 403 233 339 119 382 185 b 335 486 456 357 440 485 b 71 253 240 489 125 381 b 139 0 18 129 33 3 b 260 47 179 -1 221 18 b 349 11 278 26 307 11 b 567 261 465 11 543 208 z m 364 440 b 353 213 414 425 407 326 b 310 138 340 186 325 160 b 313 153 311 143 313 147 b 271 194 313 175 294 194 b 222 135 236 194 224 167 b 244 67 222 114 229 89 b 150 32 211 39 176 25 b 167 258 100 47 113 144 b 364 440 218 368 304 457 z m 429 567 b 200 742 429 576 226 742 b 174 713 185 742 174 729 b 225 650 174 682 200 663 b 415 554 251 638 403 554 b 429 567 422 554 429 558 z "},"ô":{"ha":465,"x_min":0,"x_max":0,"o":"m 567 261 b 546 274 576 282 553 288 b 351 35 513 207 440 35 b 286 69 318 35 297 49 b 403 233 339 119 382 185 b 335 486 456 357 440 485 b 71 253 240 489 125 381 b 139 0 18 129 33 3 b 260 47 179 -1 221 18 b 349 11 278 26 307 11 b 567 261 465 11 543 208 z m 364 440 b 353 213 414 425 407 326 b 310 138 340 186 325 160 b 313 153 311 143 313 147 b 271 194 313 175 294 194 b 222 135 236 194 224 167 b 244 67 222 114 229 89 b 150 32 211 39 176 25 b 167 258 100 47 113 144 b 364 440 218 368 304 457 z m 532 569 l 482 717 b 429 717 481 724 429 717 l 222 569 b 257 569 211 561 243 557 b 440 668 275 579 440 668 l 504 569 b 532 569 510 560 538 557 z "},"ö":{"ha":465,"x_min":0,"x_max":0,"o":"m 567 261 b 546 274 576 282 553 288 b 351 35 513 207 440 35 b 286 69 318 35 297 49 b 403 233 339 119 382 185 b 335 486 456 357 440 485 b 71 253 240 489 125 381 b 139 0 18 129 33 3 b 260 47 179 -1 221 18 b 349 11 278 26 307 11 b 567 261 465 11 543 208 z m 364 440 b 353 213 414 425 407 326 b 310 138 340 186 325 160 b 313 153 311 143 313 147 b 271 194 313 175 294 194 b 222 135 236 194 224 167 b 244 67 222 114 229 89 b 150 32 211 39 176 25 b 167 258 100 47 113 144 b 364 440 218 368 304 457 z m 542 635 b 494 681 542 663 521 681 b 450 635 468 681 450 661 b 497 589 450 607 471 589 b 542 635 524 589 542 608 z m 363 635 b 315 681 363 663 342 681 b 271 635 289 681 271 661 b 318 589 271 607 292 589 b 363 635 344 589 363 608 z "},"õ":{"ha":465,"x_min":0,"x_max":0,"o":"m 567 261 b 546 274 576 282 553 288 b 351 35 513 207 440 35 b 286 69 318 35 297 49 b 403 233 339 119 382 185 b 335 486 456 357 440 485 b 71 253 240 489 125 381 b 139 0 18 129 33 3 b 260 47 179 -1 221 18 b 349 11 278 26 307 11 b 567 261 465 11 543 208 z m 364 440 b 353 213 414 425 407 326 b 310 138 340 186 325 160 b 313 153 311 143 313 147 b 271 194 313 175 294 194 b 222 135 236 194 224 167 b 244 67 222 114 229 89 b 150 32 211 39 176 25 b 167 258 100 47 113 144 b 364 440 218 368 304 457 z m 601 710 b 572 713 604 715 575 719 b 496 664 557 681 533 660 b 328 714 440 668 388 710 b 192 610 264 719 218 657 b 224 607 189 603 221 599 b 296 653 238 633 263 656 b 464 599 353 649 406 604 b 601 710 529 593 576 658 z "},"ú":{"ha":496,"x_min":0,"x_max":0,"o":"m 594 256 b 575 268 608 283 586 293 b 390 36 528 168 458 36 b 364 119 371 38 351 60 b 457 340 372 167 418 263 b 553 478 499 426 513 446 l 478 478 b 424 449 451 478 435 471 b 217 86 371 339 294 176 b 135 182 126 -18 68 38 b 222 361 160 235 222 361 b 311 478 260 438 279 454 l 226 478 b 172 449 200 478 183 471 b 94 296 151 406 122 349 l 69 247 b 82 225 61 229 74 225 b 35 64 57 175 22 124 b 122 1 46 11 94 1 b 310 179 190 1 263 96 b 374 1 274 67 311 1 b 594 256 475 1 550 161 z m 603 688 b 590 725 610 701 604 718 b 510 708 563 739 532 725 b 339 582 488 690 344 593 b 343 564 335 576 336 568 b 603 688 353 560 592 664 z "},"ù":{"ha":496,"x_min":0,"x_max":0,"o":"m 594 256 b 575 268 608 283 586 293 b 390 36 528 168 458 36 b 364 119 371 38 351 60 b 457 340 372 167 418 263 b 553 478 499 426 513 446 l 478 478 b 424 449 451 478 435 471 b 217 86 371 339 294 176 b 135 182 126 -18 68 38 b 222 361 160 235 222 361 b 311 478 260 438 279 454 l 226 478 b 172 449 200 478 183 471 b 94 296 151 406 122 349 l 69 247 b 82 225 61 229 74 225 b 35 64 57 175 22 124 b 122 1 46 11 94 1 b 310 179 190 1 263 96 b 374 1 274 67 311 1 b 594 256 475 1 550 161 z m 453 571 b 224 746 453 581 250 746 b 197 717 208 746 197 733 b 249 654 197 686 224 667 b 439 558 275 642 426 558 b 453 571 446 558 453 563 z "},"û":{"ha":496,"x_min":0,"x_max":0,"o":"m 594 256 b 575 268 608 283 586 293 b 390 36 528 168 458 36 b 364 119 371 38 351 60 b 457 340 372 167 418 263 b 553 478 499 426 513 446 l 478 478 b 424 449 451 478 435 471 b 217 86 371 339 294 176 b 135 182 126 -18 68 38 b 222 361 160 235 222 361 b 311 478 260 438 279 454 l 226 478 b 172 449 200 478 183 471 b 94 296 151 406 122 349 l 69 247 b 82 225 61 229 74 225 b 35 64 57 175 22 124 b 122 1 46 11 94 1 b 310 179 190 1 263 96 b 374 1 274 67 311 1 b 594 256 475 1 550 161 z m 565 585 l 515 732 b 463 732 514 739 463 732 l 256 585 b 290 585 244 576 276 572 b 474 683 308 594 474 683 l 538 585 b 565 585 543 575 571 572 z "},"ü":{"ha":496,"x_min":0,"x_max":0,"o":"m 594 256 b 575 268 608 283 586 293 b 390 36 528 168 458 36 b 364 119 371 38 351 60 b 457 340 372 167 418 263 b 553 478 499 426 513 446 l 478 478 b 424 449 451 478 435 471 b 217 86 371 339 294 176 b 135 182 126 -18 68 38 b 222 361 160 235 222 361 b 311 478 260 438 279 454 l 226 478 b 172 449 200 478 183 471 b 94 296 151 406 122 349 l 69 247 b 82 225 61 229 74 225 b 35 64 57 175 22 124 b 122 1 46 11 94 1 b 310 179 190 1 263 96 b 374 1 274 67 311 1 b 594 256 475 1 550 161 z m 374 663 b 326 708 374 690 353 708 b 282 663 300 708 282 689 b 329 617 282 635 303 617 b 374 663 356 617 374 636 z m 553 663 b 506 708 553 690 532 708 b 461 663 479 708 461 689 b 508 617 461 635 482 617 b 553 663 535 617 553 636 z "},"†":{"ha":613,"x_min":0,"x_max":0,"o":"m 599 504 b 572 508 597 507 588 508 l 564 508 b 469 500 521 508 492 503 b 433 496 457 497 444 497 b 608 703 482 558 571 658 b 611 715 611 706 615 711 b 529 718 590 740 539 731 b 340 486 456 635 393 561 l 271 476 b 156 451 203 468 164 458 b 126 425 139 442 126 433 b 131 419 126 424 128 421 b 142 414 132 417 135 414 b 157 417 144 414 150 415 l 161 417 b 308 442 217 425 265 435 b 46 -79 168 243 94 78 b 28 -150 36 -118 28 -140 l 28 -153 b 46 -164 28 -161 36 -164 b 58 -156 51 -164 56 -160 b 76 -81 67 -112 74 -93 b 404 458 121 42 263 267 b 454 469 424 464 439 465 l 572 492 b 599 504 590 494 599 497 z "},"°":{"ha":449,"x_min":0,"x_max":0,"o":"m 315 956 b 226 1044 315 1004 275 1044 b 138 956 178 1044 138 1004 b 226 867 138 908 171 867 b 315 956 275 867 315 906 z m 289 954 b 225 888 289 921 258 888 b 161 954 210 888 161 897 b 225 1018 161 990 190 1018 b 289 954 261 1018 289 990 z "},"¢":{"ha":439,"x_min":0,"x_max":0,"o":"m 467 1140 b 432 1147 475 1163 453 1196 b 336 913 403 1078 369 996 l 328 913 b 143 810 261 914 186 860 b 158 418 56 706 -28 435 b 101 6 135 344 -32 49 b 114 31 124 -1 140 25 b 196 418 22 51 181 374 b 374 526 274 421 329 464 b 357 544 382 538 372 564 b 203 442 314 492 260 442 b 126 533 163 442 129 465 b 207 761 124 615 158 694 b 385 878 260 831 336 889 b 415 819 400 874 421 851 b 368 844 411 831 386 844 b 303 782 331 846 304 819 b 368 715 301 746 331 715 b 443 801 413 715 442 756 b 371 906 444 849 415 892 b 467 1140 417 1019 456 1111 z "},"£":{"ha":796,"x_min":0,"x_max":0,"o":"m 1136 738 b 1036 815 1136 792 1085 815 b 583 374 847 815 667 519 b 521 378 563 376 542 378 b 408 358 483 378 442 375 b 404 347 404 356 404 351 b 411 329 404 343 406 329 b 421 333 415 329 417 332 l 446 342 b 521 349 471 347 496 349 b 568 346 536 349 553 347 b 356 40 510 244 444 115 b 140 144 292 89 225 144 b 33 63 93 144 33 118 b 199 -37 33 -8 143 -37 b 314 -10 239 -37 278 -26 b 592 -108 361 -36 536 -96 b 724 -125 635 -118 679 -125 b 913 -1 806 -125 903 -99 l 913 1 b 907 11 913 6 913 11 b 901 4 903 11 901 7 b 732 -112 901 -83 803 -112 b 664 -104 710 -112 686 -110 b 388 15 596 -89 446 -26 b 674 332 522 93 603 197 b 754 326 701 329 728 326 b 822 338 774 326 804 331 b 826 349 826 339 826 346 b 819 367 826 353 826 367 b 794 360 818 367 799 361 b 754 356 781 357 768 356 b 689 360 732 356 710 357 b 738 468 706 396 722 432 b 811 604 758 515 782 561 b 1064 785 863 678 965 785 b 1117 739 1094 785 1117 772 b 954 510 1117 658 1011 557 b 946 499 950 507 946 503 b 953 493 946 494 950 493 b 969 500 960 493 965 496 b 1136 738 1033 546 1136 653 z m 293 3 b 189 -25 261 -15 226 -25 b 164 -24 181 -25 172 -25 b 44 72 117 -19 44 17 b 88 111 44 97 64 111 b 293 3 140 111 246 32 z "},"•":{"ha":1064,"x_min":0,"x_max":0,"o":"m 536 21 b 997 481 790 21 997 226 b 536 940 997 735 790 940 b 76 481 282 940 76 735 b 536 21 76 226 282 21 z "},"¶":{"ha":560,"x_min":0,"x_max":0,"o":"m 839 908 l 600 908 b 458 889 554 908 506 907 b 274 701 369 854 303 782 b 410 504 226 571 285 504 l 225 0 l 318 0 l 625 839 l 693 839 l 386 0 l 479 0 l 786 839 l 814 839 z "},"ß":{"ha":607,"x_min":0,"x_max":0,"o":"m 411 400 b 461 181 424 335 464 240 b 400 36 457 107 431 60 b 342 143 368 51 339 90 b 289 190 343 182 317 194 b 358 -6 222 188 190 -6 b 415 8 376 -6 396 0 b 707 263 572 -39 656 147 b 686 271 714 276 693 285 b 582 89 657 214 614 128 b 457 25 547 47 504 18 l 447 26 b 546 181 501 63 543 126 b 454 401 549 242 490 344 b 586 608 392 503 536 568 b 682 788 649 661 681 722 b 575 950 683 858 665 918 b 283 792 421 1001 349 919 b 8 96 81 297 138 422 b -408 -411 -117 -218 -243 -368 b -519 -375 -447 -421 -506 -410 b -478 -392 -508 -385 -494 -392 b -403 -324 -440 -392 -407 -361 b -464 -256 -399 -286 -426 -256 b -557 -361 -518 -256 -560 -306 b -408 -451 -551 -432 -487 -457 b -79 -237 -297 -443 -171 -344 b 328 774 75 -58 185 378 b 544 922 353 844 436 961 b 557 632 656 883 633 721 b 411 400 485 546 388 513 z m 376 24 b 349 18 368 19 358 18 b 321 128 294 18 276 83 b 376 24 324 75 347 42 z "},"®":{"ha":996,"x_min":0,"x_max":0,"o":"m 36 367 b 454 -22 11 144 199 -29 b 964 392 710 -17 939 169 b 546 782 990 613 803 788 b 36 367 290 775 61 589 z m 97 367 b 543 761 121 578 319 754 b 901 389 765 767 925 600 b 456 -3 876 179 678 3 b 97 367 232 -10 74 157 z m 793 306 b 782 306 799 318 788 315 b 728 219 776 293 756 247 b 628 243 686 178 657 199 b 564 415 585 308 567 399 b 639 422 576 415 617 418 b 714 622 822 451 872 576 b 657 633 697 626 678 629 b 636 636 663 651 661 663 b 415 633 569 646 496 644 b 214 483 288 615 219 544 b 375 421 206 385 317 360 b 397 467 388 432 394 449 b 390 468 399 474 392 482 b 368 431 390 461 383 446 b 243 483 318 378 228 406 b 408 608 254 532 310 589 b 624 622 486 625 558 628 b 486 401 576 569 533 483 b 258 193 425 293 360 188 b 292 275 178 197 200 310 b 296 282 301 271 306 278 b 243 176 161 328 121 192 b 428 239 311 168 378 183 b 531 399 476 290 503 343 b 596 206 536 361 543 261 b 733 203 633 167 697 164 b 793 306 758 229 785 289 z m 711 606 b 628 440 814 572 735 454 l 561 433 b 661 615 592 499 628 554 b 711 606 679 613 697 610 z "},"©":{"ha":996,"x_min":0,"x_max":0,"o":"m 97 367 b 543 761 121 578 319 754 b 901 389 765 767 925 600 b 456 -3 876 179 678 3 b 97 367 232 -10 74 157 z m 36 367 b 454 -22 11 144 199 -29 b 964 392 710 -17 939 169 b 546 782 990 613 803 788 b 36 367 290 775 61 589 z m 592 293 b 444 193 556 239 508 193 b 374 286 393 193 374 238 b 439 469 374 356 418 439 b 568 574 472 518 524 574 b 592 514 590 574 603 556 b 554 453 586 493 568 468 b 635 517 581 426 629 476 b 551 600 640 565 613 600 b 392 504 494 600 436 564 b 432 172 304 388 243 172 b 613 282 519 172 572 217 b 592 293 625 303 608 318 z "},"™":{"ha":1022,"x_min":0,"x_max":0,"o":"m 901 547 b 924 728 911 607 915 667 b 942 803 928 753 940 775 b 924 838 942 815 939 838 b 714 608 889 821 767 608 b 622 846 639 608 664 846 b 578 753 581 846 586 782 b 471 525 568 711 472 549 b 492 513 471 515 485 513 b 599 706 550 513 576 657 b 700 574 615 657 646 574 b 874 700 753 574 836 658 b 833 540 867 675 833 556 b 853 525 832 529 843 525 b 901 547 871 525 889 529 z m 192 506 b 222 518 203 506 214 508 b 342 796 254 558 300 736 b 522 842 357 815 522 814 b 490 857 522 857 499 857 b 143 819 444 857 161 844 b 179 799 149 803 164 799 b 263 804 207 799 236 804 b 289 801 272 804 281 803 b 164 525 288 763 167 568 b 192 506 164 508 179 506 z "},"´":{"ha":371,"x_min":0,"x_max":0,"o":"m 343 697 b 331 735 350 711 344 728 b 250 718 303 749 272 735 b 79 592 228 700 85 603 b 83 574 75 586 76 578 b 343 697 93 569 332 674 z "},"¨":{"ha":386,"x_min":0,"x_max":0,"o":"m 324 644 b 276 690 324 672 303 690 b 232 644 250 690 232 671 b 279 599 232 617 253 599 b 324 644 306 599 324 618 z m 144 644 b 97 690 144 672 124 690 b 53 644 71 690 53 671 b 100 599 53 617 74 599 b 144 644 126 599 144 618 z "},"≠":{"ha":636,"x_min":0,"x_max":0,"o":"m 544 293 b 539 331 582 293 571 329 l 368 335 l 444 429 b 544 432 475 431 510 432 b 539 469 582 432 571 469 l 476 471 b 521 532 492 490 506 511 b 485 528 538 554 501 550 l 443 472 b 228 475 339 474 274 475 b 228 408 188 475 208 406 b 408 426 279 414 340 422 l 333 335 b 228 336 289 336 256 336 b 228 269 188 336 208 267 l 286 276 l 232 206 b 269 206 215 183 253 183 b 326 281 288 231 307 256 b 544 293 390 288 463 293 z "},"Æ":{"ha":1907,"x_min":0,"x_max":0,"o":"m 1801 304 b 1788 286 1751 329 1717 303 b 1724 76 1871 267 1825 163 b 1149 -125 1604 -22 1376 -125 b 1015 460 639 -125 713 374 b 1401 506 1199 513 1388 447 b 1071 713 1414 601 1111 549 b 1194 897 1160 769 1194 840 b 1183 954 1194 918 1190 936 b 1615 1078 1296 1042 1468 1093 b 1613 771 1889 1051 1747 785 b 1618 744 1546 764 1535 725 b 1618 1114 1913 811 1967 1075 b 1153 1004 1485 1129 1294 1088 b 956 1074 1113 1047 1044 1074 b 278 711 685 1074 453 906 b 156 799 228 735 186 764 b 126 908 124 835 108 867 b 101 935 142 942 118 957 b 114 778 71 913 75 822 b 253 682 149 739 197 708 b 131 506 206 628 165 568 b 125 -49 -8 254 -8 8 b 688 258 318 -132 571 121 b 1146 -158 617 63 761 -158 b 1774 36 1392 -158 1636 -79 b 1801 304 1896 139 1917 250 z m 1151 547 b 1004 521 1104 544 1053 536 b 913 486 971 511 940 500 l 919 497 b 840 536 1000 585 926 697 b 476 99 767 400 619 219 b 142 303 221 -114 0 -51 b 343 653 192 426 293 582 b 763 621 474 611 606 607 b 978 667 849 629 921 646 b 1151 547 1014 611 1089 568 z m 1115 981 b 957 733 1022 917 958 832 b 963 699 957 721 960 710 b 763 654 907 676 839 660 b 365 681 586 639 474 646 b 960 1038 521 867 700 1038 b 1115 981 1029 1038 1086 1018 z m 1138 913 b 1067 764 1138 856 1113 806 l 1068 769 b 1138 913 1071 822 1099 869 z "},"∞":{"ha":963,"x_min":0,"x_max":0,"o":"m 918 539 b 729 700 918 631 836 700 b 522 565 638 700 574 622 b 281 694 472 639 382 694 b 90 522 163 694 90 621 b 258 361 90 436 156 361 b 476 496 353 361 422 439 b 728 350 526 428 628 350 b 918 539 842 350 918 449 z m 897 528 b 751 403 897 457 832 403 b 663 421 721 403 689 410 b 531 554 589 451 571 497 b 549 581 538 563 542 572 b 714 657 589 624 649 657 b 897 528 801 657 897 608 z m 467 510 b 261 413 413 461 343 413 b 115 515 190 413 115 447 b 249 643 115 586 165 643 b 467 510 343 643 422 575 z "},"±":{"ha":636,"x_min":0,"x_max":0,"o":"m 649 399 b 468 399 590 400 522 399 b 510 607 479 457 497 556 b 471 601 518 644 479 633 b 422 400 456 546 436 451 b 229 404 350 401 260 404 b 213 338 188 404 193 335 b 410 350 253 342 343 344 b 361 163 390 275 368 194 b 428 163 351 122 425 143 b 460 353 432 203 449 285 b 644 361 521 356 592 361 b 649 399 682 361 681 397 z m 574 49 b 568 86 611 49 600 86 b 207 97 407 90 265 97 b 207 31 167 97 188 28 b 574 49 290 40 446 49 z "},"≤":{"ha":349,"x_min":0,"x_max":0,"o":"m 294 126 b 276 154 294 142 285 146 l 132 294 l 221 393 b 276 457 240 414 260 435 b 283 486 282 465 283 476 b 279 501 283 489 283 501 b 72 311 276 501 92 332 b 64 278 64 303 64 289 b 72 246 64 267 64 253 b 286 117 96 228 269 117 b 294 126 292 117 294 121 z m 290 29 l 290 58 l 288 60 l 24 60 l 21 58 l 21 29 l 24 28 l 288 28 z "},"≥":{"ha":349,"x_min":0,"x_max":0,"o":"m 304 278 b 294 311 304 289 303 303 b 225 376 274 335 249 356 l 92 500 l 89 501 b 83 486 83 500 83 490 b 92 457 83 476 85 465 b 146 393 108 435 128 414 l 235 294 l 92 154 b 72 126 83 146 72 142 b 82 117 72 121 75 117 b 294 246 97 117 274 228 b 304 278 304 253 304 267 z m 290 29 l 290 58 l 288 60 l 24 60 l 21 58 l 21 29 l 24 28 l 288 28 z "},"¥":{"ha":1003,"x_min":0,"x_max":0,"o":"m 1011 761 b 919 854 1011 811 969 854 b 600 546 801 854 658 635 b 542 451 582 517 563 478 b 528 428 536 444 526 439 l 500 385 b 469 547 497 439 488 494 b 233 783 436 647 354 783 b 100 611 150 783 100 685 b 136 499 100 572 113 531 b 143 494 138 497 140 494 b 153 504 149 494 153 499 b 117 611 153 507 117 557 b 233 765 117 674 163 765 b 436 457 357 765 419 550 l 265 457 b 240 429 257 457 240 439 b 244 426 240 428 243 426 l 440 426 b 450 307 446 386 450 347 l 443 296 l 128 296 b 103 269 119 296 103 278 b 107 265 103 267 104 265 l 422 265 b 89 -43 358 169 219 -43 b 69 -51 82 -43 69 -40 b 96 -61 69 -64 88 -61 b 493 265 269 -61 407 136 l 632 265 b 657 292 640 265 657 283 b 653 296 657 294 656 296 l 513 296 l 586 426 l 725 426 b 750 453 735 426 750 444 b 747 457 750 456 749 457 l 603 457 b 919 836 651 542 811 836 b 993 761 958 836 993 800 b 990 744 993 756 990 750 b 1000 735 990 739 994 735 b 1011 761 1011 735 1011 754 z "},"µ":{"ha":450,"x_min":0,"x_max":0,"o":"m 574 224 l 571 226 l 563 226 b 375 3 539 171 451 3 b 351 31 357 3 351 15 b 447 263 351 86 419 211 l 556 472 l 551 474 b 508 446 544 457 526 446 b 474 456 496 446 483 450 l 471 456 b 364 250 439 385 401 317 b 149 7 331 190 228 7 b 114 44 124 7 114 22 b 196 250 114 101 168 200 b 260 360 218 286 239 322 b 328 467 279 396 300 436 l 325 469 b 258 440 308 456 279 440 b 236 447 250 440 242 443 l 233 447 b 89 176 176 363 135 268 l -179 -350 b -174 -357 -181 -353 -175 -356 b -125 -365 -161 -362 -139 -365 b -107 -361 -121 -365 -110 -365 l 72 31 b 138 -8 85 7 111 -8 b 314 143 208 -8 281 89 b 300 69 306 119 300 94 b 372 -11 300 24 325 -11 b 574 224 463 -11 542 153 z "},"∂":{"ha":511,"x_min":0,"x_max":0,"o":"m 503 522 b 250 864 503 685 440 864 b 169 835 231 864 169 864 b 185 825 169 826 178 825 b 235 831 201 825 217 831 b 453 478 394 831 453 603 b 415 281 453 411 442 343 b 431 367 425 308 431 338 b 363 447 431 413 413 447 b 100 215 251 447 129 317 b 88 125 92 186 88 156 b 176 -7 88 71 110 -7 b 476 331 342 -7 442 194 b 503 522 493 393 503 458 z m 424 364 b 382 222 424 317 406 264 b 183 3 349 161 263 3 b 149 65 151 3 149 43 b 176 213 149 111 161 169 b 372 438 199 278 292 438 b 424 364 413 438 424 399 z "},"π":{"ha":586,"x_min":0,"x_max":0,"o":"m 564 500 l 564 503 b 560 506 564 504 561 506 b 461 436 543 506 539 436 b 203 510 374 436 286 510 b 174 504 193 510 183 508 b 85 389 140 489 85 428 b 92 382 85 385 86 382 b 160 446 110 382 103 438 b 176 447 165 447 171 447 b 206 444 186 447 196 446 l 110 -8 l 135 -8 l 229 439 b 403 378 288 422 343 390 l 321 -4 l 346 -4 l 426 375 b 465 381 439 375 453 376 l 464 381 b 564 500 497 394 567 461 z "},"∫":{"ha":694,"x_min":0,"x_max":0,"o":"m 601 836 b 711 810 639 836 675 824 l 714 840 b 579 867 671 856 625 867 b 350 638 446 867 392 772 l 140 -71 b -57 -256 99 -207 18 -256 b -153 -231 -89 -256 -124 -244 l -167 -253 b -22 -282 -119 -269 -74 -282 b 211 -75 111 -282 167 -208 l 456 688 b 601 836 485 767 517 836 z "},"ª":{"ha":519,"x_min":0,"x_max":0,"o":"m 347 715 b 338 721 354 729 343 733 b 247 604 322 690 276 603 b 242 646 239 604 235 617 b 306 775 250 688 290 761 b 276 778 296 774 285 778 b 229 733 254 781 244 763 b 167 636 211 700 192 665 b 103 640 135 599 96 592 b 132 711 107 667 126 701 b 224 810 157 751 193 793 b 283 793 250 824 275 818 b 290 813 294 790 300 803 b 129 781 251 856 171 831 b 157 610 25 656 78 533 b 207 675 178 629 196 657 b 242 586 186 603 219 585 b 347 715 285 590 326 674 z "},"º":{"ha":379,"x_min":0,"x_max":0,"o":"m 342 722 b 333 729 346 733 336 736 b 236 611 324 708 286 611 b 203 628 219 611 208 617 b 261 710 229 651 251 685 b 228 836 288 771 281 835 b 96 719 181 838 122 783 b 129 593 69 657 76 594 b 190 617 150 592 171 601 b 229 599 200 606 213 599 b 342 722 293 599 325 683 z m 242 813 b 236 699 267 806 264 756 b 215 661 231 685 222 672 b 217 669 215 664 217 667 b 196 689 217 681 207 689 b 171 660 178 689 172 676 b 182 625 171 650 175 636 b 135 608 165 611 149 606 b 143 721 110 615 117 664 b 242 813 169 776 213 821 z "},"∑":{"ha":657,"x_min":0,"x_max":0,"o":"m 8 -8 l 592 -8 l 539 51 l 144 44 l 457 314 l 242 561 l 568 550 l 611 610 l 83 610 l 356 297 z "},"Ω":{"ha":618,"x_min":0,"x_max":0,"o":"m 492 -19 b 588 51 528 -19 581 7 b 575 64 586 58 581 69 b 517 17 563 51 553 17 b 429 26 476 17 453 22 b 581 304 500 104 576 186 b 375 489 585 435 478 489 b 90 261 251 489 96 421 b 194 17 88 175 144 78 b 53 46 153 25 94 46 b -14 7 31 46 -12 40 b 24 0 -17 -22 17 -25 l 28 6 b 49 7 35 7 42 7 b 179 -8 93 7 133 -8 b 232 17 193 -8 231 -8 b 151 249 232 25 147 121 b 356 426 156 372 257 426 b 517 286 436 426 519 390 b 357 17 513 186 438 63 b 353 3 356 13 353 7 b 372 -19 351 -11 361 -19 b 411 -10 385 -19 397 -10 b 492 -19 439 -10 465 -19 z "},"æ":{"ha":606,"x_min":0,"x_max":0,"o":"m 707 260 b 682 261 721 289 693 286 b 453 24 650 188 575 24 b 401 203 368 24 378 149 l 407 214 b 576 275 444 214 533 243 b 653 478 665 343 707 438 b 476 446 608 511 539 492 l 472 451 b 150 388 393 538 233 486 b 206 46 -60 136 46 -107 b 306 176 246 85 283 140 b 360 21 296 92 325 44 b 442 -6 383 4 411 -6 b 707 260 596 -6 656 149 z m 451 425 b 349 293 411 389 374 340 b 225 99 313 225 275 157 b 97 107 160 21 83 10 b 154 247 106 160 143 228 b 339 446 204 329 276 411 b 451 425 385 471 432 464 z m 563 299 b 418 238 514 258 446 239 l 447 296 b 499 368 463 319 481 346 b 563 299 669 575 676 394 z "},"¿":{"ha":550,"x_min":0,"x_max":0,"o":"m 100 -169 b 290 -410 -115 -412 97 -519 b 392 -318 328 -387 374 -358 b 272 -221 432 -222 346 -164 b 328 -322 208 -271 246 -367 b 376 -272 350 -310 371 -294 b 299 -368 382 -306 340 -347 b 158 -204 164 -433 36 -358 b 438 215 261 -75 404 76 b 411 225 442 233 418 242 b 100 -169 340 38 219 -33 z m 408 410 b 456 353 403 378 425 353 b 522 410 488 353 518 378 b 475 467 528 442 507 467 b 408 410 443 467 414 442 z "},"¡":{"ha":557,"x_min":0,"x_max":0,"o":"m -61 -401 l -58 -410 l -51 -412 b 64 -385 -15 -411 44 -422 l 417 288 l 418 297 l 404 299 b -61 -401 353 221 -46 -360 z m 408 410 b 456 353 403 378 425 353 b 522 410 488 353 518 378 b 475 467 528 442 507 467 b 408 410 443 467 414 442 z "},"¬":{"ha":1122,"x_min":0,"x_max":0,"o":"m 929 385 l 140 385 b 99 336 125 385 99 351 b 126 318 99 322 115 318 b 851 318 368 318 610 319 l 794 50 b 821 19 792 35 807 19 b 858 50 840 19 856 32 z "},"√":{"ha":864,"x_min":0,"x_max":0,"o":"m 233 288 l 304 -4 b 844 774 482 257 661 515 b 813 788 835 782 818 797 b 331 150 747 672 385 231 b 263 364 313 201 292 328 b 104 193 168 269 68 213 b 233 288 151 218 190 257 z "},"ƒ":{"ha":694,"x_min":0,"x_max":0,"o":"m -382 -362 b -389 -415 -387 -375 -390 -392 b -376 -469 -387 -439 -383 -457 b -286 -518 -357 -501 -326 -518 b -90 -394 -207 -518 -143 -476 b 281 497 -65 -356 -33 -296 l 467 497 l 483 528 l 293 528 b 408 769 350 654 389 735 b 563 917 463 868 514 917 b 617 888 582 917 600 907 b 624 794 632 868 635 838 l 647 796 b 654 849 653 808 656 825 b 642 903 653 872 649 890 b 551 951 622 935 592 951 b 356 828 472 951 408 910 b 261 644 331 789 299 729 b 213 528 244 608 229 569 l 108 528 l 92 497 l 200 497 b -143 -336 149 389 11 -28 b -297 -483 -193 -436 -249 -483 b -351 -454 -317 -483 -335 -474 b -358 -361 -367 -435 -369 -404 z "},"≈":{"ha":519,"x_min":0,"x_max":0,"o":"m 439 419 l 439 421 b 435 424 438 422 436 424 b 349 376 421 424 413 376 b 154 428 281 376 221 428 b 51 347 118 428 51 381 b 57 342 51 343 53 342 b 118 385 74 342 67 379 b 132 386 122 386 128 386 b 324 335 201 386 263 335 b 349 339 332 335 340 336 b 439 419 372 346 440 390 z m 439 286 l 439 288 b 435 290 438 289 436 290 b 349 243 421 290 413 243 b 154 294 281 243 221 294 b 51 214 118 294 51 247 b 57 208 51 210 53 208 b 118 251 74 208 67 246 b 132 253 122 253 128 253 b 324 201 201 253 263 201 b 349 206 332 201 340 203 b 439 286 372 213 440 257 z "},"∆":{"ha":806,"x_min":0,"x_max":0,"o":"m 661 -14 b 729 76 693 3 728 35 l 726 89 l 492 617 b 476 622 489 619 482 622 b 428 579 461 622 435 596 b 110 32 422 575 111 40 b 142 -14 110 17 125 -14 z m 442 500 l 633 57 l 182 57 z "},"«":{"ha":626,"x_min":0,"x_max":0,"o":"m 663 413 l 661 422 l 653 426 b 357 249 639 428 388 267 b 410 33 368 204 392 67 l 421 29 l 431 33 l 438 47 l 439 236 b 663 413 483 269 635 368 z m 463 413 l 461 422 l 451 426 b 156 249 436 428 186 267 b 208 33 172 179 182 99 b 219 29 211 31 215 29 l 229 33 l 236 47 l 238 236 b 463 413 276 265 438 371 z "},"»":{"ha":626,"x_min":0,"x_max":0,"o":"m 546 208 b 493 421 539 238 507 407 l 482 426 l 471 421 b 464 219 458 397 465 256 b 240 44 419 185 269 90 l 240 32 l 250 29 l 261 31 z m 344 208 b 294 421 329 276 321 356 l 282 426 l 271 421 b 264 408 268 418 267 413 l 263 219 b 38 38 257 215 38 67 l 39 32 b 50 29 42 31 47 29 l 60 31 z "},"…":{"ha":746,"x_min":0,"x_max":0,"o":"m 700 38 b 653 94 706 69 683 94 b 586 38 621 94 590 69 b 633 -19 581 6 601 -19 b 700 38 665 -19 694 6 z m 414 38 b 367 94 419 69 397 94 b 300 38 335 94 304 69 b 347 -19 294 6 315 -19 b 414 38 379 -19 408 6 z m 144 38 b 97 94 150 69 128 94 b 31 38 65 94 35 69 b 78 -19 25 6 46 -19 b 144 38 110 -19 139 6 z "}," ":{"ha":360,"x_min":0,"x_max":0,"o":""},"À":{"ha":989,"x_min":0,"x_max":0,"o":"m 1135 819 b 910 982 1135 914 1050 982 b 268 668 656 982 432 846 b 153 749 221 689 182 717 b 125 849 122 781 108 811 b 101 874 139 879 117 893 b 114 729 74 853 76 769 b 244 640 146 693 192 665 b 125 -49 65 443 -71 35 b 696 267 322 -133 582 132 b 753 -89 633 185 599 -89 b 957 31 831 -89 910 -33 b 1086 253 1008 99 1061 197 b 1063 258 1101 286 1075 285 b 942 61 1032 189 985 117 b 738 125 832 -75 694 -110 b 876 451 763 261 803 371 b 801 488 951 532 883 635 b 476 99 732 361 619 219 b 142 303 221 -114 0 -51 b 326 603 192 426 286 567 b 729 565 449 564 581 553 b 1135 819 1033 592 1135 726 z m 1081 835 b 729 596 1081 708 946 614 b 347 628 563 582 449 596 b 914 949 493 800 669 949 b 1081 835 1010 949 1081 910 z m 1042 1019 b 826 1181 1042 1028 851 1181 b 801 1153 813 1181 801 1168 b 850 1096 801 1125 826 1107 b 1029 1007 875 1085 1017 1007 b 1042 1019 1036 1007 1042 1011 z "},"Ã":{"ha":989,"x_min":0,"x_max":0,"o":"m 1206 1174 b 1176 1176 1208 1179 1179 1183 b 1100 1128 1161 1144 1138 1124 b 932 1178 1044 1132 992 1174 b 796 1074 868 1183 822 1121 b 828 1071 793 1067 825 1063 b 900 1117 842 1097 867 1119 b 1068 1063 957 1113 1010 1068 b 1206 1174 1133 1057 1181 1122 z m 1135 819 b 910 982 1135 914 1050 982 b 268 668 656 982 432 846 b 153 749 221 689 182 717 b 125 849 122 781 108 811 b 101 874 139 879 117 893 b 114 729 74 853 76 769 b 244 640 146 693 192 665 b 125 -49 65 443 -71 35 b 696 267 322 -133 582 132 b 753 -89 633 185 599 -89 b 957 31 831 -89 910 -33 b 1086 253 1008 99 1061 197 b 1063 258 1101 286 1075 285 b 942 61 1032 189 985 117 b 738 125 832 -75 694 -110 b 876 451 763 261 803 371 b 801 488 951 532 883 635 b 476 99 732 361 619 219 b 142 303 221 -114 0 -51 b 326 603 192 426 286 567 b 729 565 449 564 581 553 b 1135 819 1033 592 1135 726 z m 1081 835 b 729 596 1081 708 946 614 b 347 628 563 582 449 596 b 914 949 493 800 669 949 b 1081 835 1010 949 1081 910 z "},"Õ":{"ha":1089,"x_min":0,"x_max":0,"o":"m 1238 733 b 1217 749 1258 767 1226 768 b 1036 574 1182 681 1111 624 b 53 608 1064 1260 -1 1142 b 160 433 60 532 100 474 b 303 -93 65 192 144 -42 b 999 376 597 -189 913 114 b 1031 525 1015 429 1026 478 b 1238 733 1118 581 1186 653 z m 951 529 b 256 443 725 407 419 363 b 706 840 314 574 532 894 b 717 860 724 835 738 849 b 185 490 507 978 261 651 b 129 596 154 517 135 553 b 951 529 56 1092 1017 1263 z m 943 481 b 918 382 939 449 929 414 b 307 -49 822 110 550 -168 b 235 394 172 18 168 219 b 943 481 418 321 714 358 z m 919 1175 b 896 1178 922 1179 899 1183 b 833 1138 883 1151 864 1133 b 694 1178 788 1140 744 1175 b 582 1093 642 1183 604 1132 b 608 1090 581 1086 607 1083 b 668 1128 621 1113 640 1131 b 807 1083 715 1125 758 1088 b 919 1175 861 1079 900 1132 z "},"Œ":{"ha":2074,"x_min":0,"x_max":0,"o":"m 1968 304 b 1953 286 1917 329 1882 303 b 1889 76 2036 267 1992 163 b 1314 -125 1769 -22 1543 -125 b 1181 460 804 -125 878 374 b 1568 506 1364 513 1554 447 b 1233 728 1579 604 1258 546 l 1256 760 b 1235 775 1276 793 1244 794 l 1233 774 b 1781 1078 1254 961 1549 1101 b 1778 771 2056 1051 1913 785 b 1785 744 1711 764 1701 725 b 1785 1114 2078 811 2132 1075 b 1124 733 1546 1142 1125 988 b 1144 667 1124 710 1131 688 b 1054 600 1115 643 1085 621 b 71 635 1082 1286 17 1168 b 178 460 78 558 118 500 b 321 -67 83 218 163 -15 b 840 118 507 -128 700 -29 b 1311 -158 865 -31 1018 -158 b 1939 36 1557 -158 1801 -79 b 1968 304 2061 139 2082 250 z m 969 556 b 274 469 743 433 438 389 b 724 867 332 600 550 921 b 735 886 742 861 756 875 b 203 517 525 1004 279 678 b 147 622 172 543 153 579 b 969 556 74 1118 1035 1289 z m 961 507 b 936 408 957 475 947 440 b 921 371 932 396 926 383 b 843 222 881 325 856 274 b 325 -22 715 28 513 -114 b 253 421 190 44 186 246 b 961 507 436 347 732 385 z m 1317 547 b 1169 521 1269 544 1219 536 b 1033 463 1118 506 1074 486 b 1049 551 1042 493 1047 522 b 1163 643 1090 578 1129 608 b 1317 547 1201 599 1264 565 z "},"œ":{"ha":628,"x_min":0,"x_max":0,"o":"m 728 260 b 703 261 740 289 714 286 b 474 24 671 188 596 24 b 426 214 382 24 406 164 b 596 275 464 214 554 243 b 674 478 686 343 726 438 b 436 388 613 524 506 472 l 432 382 b 335 486 426 442 396 485 b 71 253 240 489 125 381 b 139 0 18 129 33 3 b 329 119 203 -1 275 56 b 461 -6 333 38 396 -6 b 728 260 617 -6 676 149 z m 583 299 b 435 238 533 257 461 238 b 519 368 449 263 482 324 b 583 299 690 575 697 394 z m 392 325 b 333 178 364 279 343 226 b 150 32 292 110 210 15 b 167 258 100 47 113 144 b 364 440 218 368 304 457 b 392 325 396 431 404 386 z "},"–":{"ha":742,"x_min":0,"x_max":0,"o":"m 711 293 b 706 331 749 293 738 329 b 228 336 544 335 286 336 b 228 269 188 336 208 267 b 711 293 311 279 583 293 z "},"—":{"ha":1138,"x_min":0,"x_max":0,"o":"m 1108 293 b 1103 331 1146 293 1135 329 b 228 336 942 335 286 336 b 228 269 188 336 208 267 b 1108 293 311 279 981 293 z "},"“":{"ha":422,"x_min":0,"x_max":0,"o":"m 394 996 b 394 1013 414 1003 413 1018 b 229 850 333 993 243 942 b 275 775 224 814 235 775 b 350 832 307 775 340 800 b 311 889 361 864 343 889 b 271 876 297 889 283 885 b 394 996 288 938 342 979 z m 229 996 b 229 1013 249 1003 247 1018 b 64 850 168 993 78 942 b 110 775 58 814 69 775 b 185 832 142 775 175 800 b 146 889 196 864 178 889 b 106 876 132 889 118 885 b 229 996 122 938 176 979 z "},"”":{"ha":546,"x_min":0,"x_max":0,"o":"m 538 917 b 481 992 538 953 521 992 b 414 935 449 992 418 967 b 461 878 408 903 429 878 b 500 892 475 878 489 883 b 394 771 493 829 446 788 b 397 756 376 765 381 749 b 538 917 456 775 538 825 z m 372 917 b 315 992 372 953 356 992 b 249 935 283 992 253 967 b 296 878 243 903 264 878 b 335 892 310 878 324 883 b 229 771 328 829 281 788 b 232 756 211 765 215 749 b 372 917 290 775 372 825 z "},"‘":{"ha":257,"x_min":0,"x_max":0,"o":"m 231 996 b 231 1013 249 1003 249 1018 b 65 850 168 993 79 942 b 111 775 60 814 69 775 b 186 832 142 775 176 800 b 147 889 196 864 179 889 b 106 876 133 889 118 885 b 231 996 124 938 176 979 z "},"’":{"ha":219,"x_min":0,"x_max":0,"o":"m 372 917 b 315 992 372 953 356 992 b 249 935 283 992 253 967 b 296 878 243 903 264 878 b 335 892 310 878 324 883 b 229 771 328 829 281 788 b 232 756 211 765 215 749 b 372 917 290 775 372 825 z "},"€":{"ha":918,"x_min":0,"x_max":0,"o":"m 935 864 b 728 1053 935 986 844 1053 b 196 588 496 1053 279 783 l 144 588 l 126 553 l 181 553 b 161 493 169 526 169 521 l 103 493 l 88 457 l 153 457 b 128 271 138 396 128 333 b 393 -39 128 96 201 -39 b 874 251 604 -39 758 83 b 860 272 881 268 881 303 b 454 -11 775 164 604 -11 b 224 283 281 -11 224 132 b 246 457 224 342 232 400 l 553 457 l 568 493 l 254 493 b 275 553 263 521 264 526 l 592 553 l 610 588 l 292 588 b 801 1013 379 776 572 1013 b 890 911 865 1013 890 971 b 807 681 890 806 807 683 b 822 671 807 672 815 671 b 935 864 897 671 935 804 z "},"ÿ":{"ha":554,"x_min":0,"x_max":0,"o":"m 651 253 b 632 265 665 281 644 290 b 544 113 618 239 588 175 b 344 -25 490 35 406 -7 b 456 293 385 85 421 200 b 564 478 490 386 511 442 l 489 478 b 435 449 463 478 446 471 b 217 86 382 339 294 176 b 135 182 126 -18 68 38 b 260 428 174 265 213 347 b 311 478 276 457 299 467 l 226 478 b 172 449 200 478 183 471 b 94 296 151 406 122 349 l 69 247 b 82 225 61 229 74 225 b 35 64 57 175 22 124 b 122 1 46 11 94 1 b 367 257 229 1 319 174 b 247 -56 344 185 300 36 b -90 -156 135 -87 3 -111 b -221 -269 -144 -181 -194 -218 b -110 -439 -262 -347 -249 -439 b 321 -69 96 -439 233 -226 b 651 253 521 3 557 61 z m 222 -100 l 192 -151 b -142 -411 128 -239 -19 -411 b -67 -186 -261 -411 -208 -247 b 222 -100 13 -151 132 -124 z m 526 644 b 479 690 526 672 506 690 b 435 644 453 690 435 671 b 482 599 435 617 456 599 b 526 644 508 599 526 618 z m 347 644 b 300 690 347 672 326 690 b 256 644 274 690 256 671 b 303 599 256 617 276 599 b 347 644 329 599 347 618 z "},"Ÿ":{"ha":1332,"x_min":0,"x_max":0,"o":"m 1556 -40 b 1539 -39 1544 -4 1536 -18 b 1131 -178 1511 -193 1267 -169 b 1378 535 1233 4 1329 321 b 1310 624 1425 742 1317 657 b 953 10 1267 479 1125 132 b 753 110 844 -68 717 -57 b 969 585 781 236 876 426 b 950 1142 1094 796 1154 1050 b 81 688 707 1251 244 1025 b 394 206 -89 340 174 114 b 508 676 706 333 801 756 b 511 657 483 671 464 647 b 400 238 753 700 593 307 b 153 651 219 172 10 308 b 956 1097 282 958 732 1240 b 858 567 1063 1029 982 768 b 656 118 782 442 675 257 b 972 -19 628 -93 831 -115 b 1254 358 1101 68 1201 244 b 1064 -179 1204 172 1136 -1 b 464 -268 863 -179 653 -190 b 725 -510 117 -411 363 -649 b 1110 -214 867 -456 1017 -354 b 1456 -182 1250 -212 1383 -211 b 1556 -40 1540 -146 1567 -76 z m 1044 -214 b 704 -481 961 -347 828 -435 b 486 -326 482 -562 214 -482 b 1044 -214 651 -231 857 -214 z m 1397 838 b 1350 883 1397 865 1376 883 b 1306 838 1324 883 1306 864 b 1353 792 1306 810 1326 792 b 1397 838 1379 792 1397 811 z m 1218 838 b 1171 883 1218 865 1197 883 b 1126 838 1144 883 1126 864 b 1174 792 1126 810 1147 792 b 1218 838 1200 792 1218 811 z "},"⁄":{"ha":761,"x_min":0,"x_max":0,"o":"m 757 842 b 90 13 689 747 254 197 b 106 -1 75 -6 82 -17 b 818 835 219 71 697 683 b 757 842 839 861 778 865 z "},"¤":{"ha":932,"x_min":0,"x_max":0,"o":"m 654 507 l 908 744 l 606 564 b 494 597 574 588 533 597 b 367 564 451 597 406 585 l 153 736 l 297 511 b 235 371 260 474 236 425 b 251 294 233 344 239 318 l 1 58 l 301 240 b 415 208 336 218 375 208 b 540 242 458 208 500 219 l 757 65 l 610 293 b 672 426 642 329 671 376 b 654 507 674 456 668 483 z m 457 544 b 594 401 529 544 597 485 b 447 258 590 317 519 258 b 314 401 376 258 310 318 b 457 544 317 485 386 544 z "},"‹":{"ha":694,"x_min":0,"x_max":0,"o":"m 415 667 b 404 682 419 678 414 682 b 365 663 393 682 378 675 b 221 515 338 636 288 588 b 100 374 143 433 104 386 b 107 358 100 367 100 360 b 269 164 215 246 250 197 b 310 181 296 154 306 165 b 189 401 278 243 229 317 b 415 667 331 575 413 650 z m 697 667 b 686 682 703 678 696 682 b 647 663 676 682 660 675 b 503 515 619 636 569 588 b 382 374 425 433 386 386 b 390 358 382 367 382 360 b 551 164 499 246 533 197 b 592 181 578 154 588 165 b 471 401 561 243 513 317 b 697 667 613 575 694 650 z "},"›":{"ha":694,"x_min":0,"x_max":0,"o":"m 388 169 b 399 154 383 158 389 154 b 438 174 410 154 425 161 b 582 321 465 200 515 249 b 703 463 660 403 699 450 b 696 478 703 469 703 476 b 533 672 588 590 553 639 b 493 656 507 682 497 671 b 614 435 525 593 574 519 b 388 169 472 261 390 186 z m 106 169 b 117 154 100 158 107 154 b 156 174 126 154 143 161 b 300 321 183 200 233 249 b 421 463 378 403 417 450 b 413 478 421 469 421 476 b 251 672 304 590 269 639 b 211 656 225 682 215 671 b 332 435 242 593 290 519 b 106 169 190 261 108 186 z "},"‡":{"ha":613,"x_min":0,"x_max":0,"o":"m 375 278 l 268 264 b 404 458 311 329 356 396 b 454 469 424 464 439 465 l 572 492 b 599 504 590 494 599 497 b 572 508 597 507 588 508 l 564 508 b 469 500 521 508 492 503 b 433 496 457 497 444 497 b 608 703 482 558 571 658 b 611 715 611 706 615 711 b 529 718 590 740 539 731 b 340 486 456 635 393 561 l 271 476 b 156 451 203 468 164 458 b 126 425 139 442 126 433 b 131 419 126 424 128 421 b 142 414 132 417 135 414 b 157 417 144 414 150 415 l 161 417 b 308 442 217 425 265 435 b 189 254 261 375 221 314 b 61 229 89 240 67 233 b 33 203 44 219 33 211 b 36 197 33 201 33 199 b 47 192 36 194 40 192 b 61 194 50 192 56 193 l 67 194 b 164 210 101 200 135 204 b 46 -79 110 107 74 13 b 28 -150 36 -118 28 -140 l 28 -153 b 46 -164 28 -161 36 -164 b 58 -156 51 -164 56 -160 b 76 -81 67 -112 74 -93 b 243 225 104 -6 167 106 b 361 247 281 233 321 240 l 478 269 b 506 282 496 272 504 275 b 479 286 503 285 494 286 l 471 286 b 375 278 428 286 399 281 z "},"‚":{"ha":214,"x_min":0,"x_max":0,"o":"m 261 161 b 204 238 261 197 244 238 b 138 179 172 238 143 211 b 185 122 132 149 154 122 b 225 136 200 122 213 128 b 118 15 217 74 169 33 b 122 0 101 10 104 -7 b 261 161 181 19 261 69 z "},"„":{"ha":340,"x_min":0,"x_max":0,"o":"m 317 286 b 285 314 314 304 304 314 b 244 269 260 314 242 296 l 256 39 l 269 39 b 317 286 279 81 325 246 z m 165 288 b 135 314 163 306 151 314 b 93 268 111 314 92 292 l 106 39 l 119 39 b 165 288 131 82 174 246 z "},"‰":{"ha":956,"x_min":0,"x_max":0,"o":"m 915 244 b 815 350 915 307 878 350 b 611 103 694 350 611 213 b 717 -29 611 38 643 -29 b 915 244 831 -29 915 147 z m 678 904 l 633 904 l 494 671 b 426 633 483 653 449 633 b 400 640 417 633 408 636 l 399 643 b 456 806 433 682 456 754 b 364 911 456 863 426 911 b 161 664 243 911 161 774 b 261 532 161 603 190 532 b 393 632 317 532 368 586 b 428 622 403 625 415 622 b 476 639 444 622 463 629 l 44 -21 l 89 -21 z m 579 244 b 479 350 579 307 543 350 b 276 103 358 350 276 213 b 381 -29 276 38 307 -29 b 579 244 494 -29 579 147 z m 443 794 b 426 796 438 794 432 796 b 365 704 381 796 365 740 b 385 640 365 678 372 661 l 382 635 b 268 544 363 596 317 544 b 215 642 221 544 215 606 b 225 714 215 667 218 690 b 381 892 243 778 303 892 b 443 794 436 892 443 836 z m 893 257 b 715 -15 893 175 815 -15 b 665 82 672 -15 665 49 b 675 154 665 106 669 131 b 831 332 693 218 753 332 b 893 257 875 332 893 297 z m 557 257 b 381 -15 557 175 479 -15 b 329 82 336 -15 329 49 b 340 154 329 106 333 131 b 496 332 357 218 418 332 b 557 257 540 332 557 297 z "},"Â":{"ha":989,"x_min":0,"x_max":0,"o":"m 1090 1029 l 1040 1176 b 988 1176 1039 1183 988 1176 l 781 1029 b 815 1029 769 1021 801 1017 b 999 1128 833 1039 999 1128 l 1063 1029 b 1090 1029 1068 1019 1096 1017 z m 1135 819 b 910 982 1135 914 1050 982 b 268 668 656 982 432 846 b 153 749 221 689 182 717 b 125 849 122 781 108 811 b 101 874 139 879 117 893 b 114 729 74 853 76 769 b 244 640 146 693 192 665 b 125 -49 65 443 -71 35 b 696 267 322 -133 582 132 b 753 -89 633 185 599 -89 b 957 31 831 -89 910 -33 b 1086 253 1008 99 1061 197 b 1063 258 1101 286 1075 285 b 942 61 1032 189 985 117 b 738 125 832 -75 694 -110 b 876 451 763 261 803 371 b 801 488 951 532 883 635 b 476 99 732 361 619 219 b 142 303 221 -114 0 -51 b 326 603 192 426 286 567 b 729 565 449 564 581 553 b 1135 819 1033 592 1135 726 z m 1081 835 b 729 596 1081 708 946 614 b 347 628 563 582 449 596 b 914 949 493 800 669 949 b 1081 835 1010 949 1081 910 z "},"Ê":{"ha":1253,"x_min":0,"x_max":0,"o":"m 1100 271 b 1071 253 1054 293 1007 268 b 994 57 1147 235 1097 138 b 454 -132 875 -36 668 -132 b 375 415 -24 -132 85 335 b 740 458 551 465 724 403 b 449 690 761 557 411 482 b 979 965 481 860 765 985 b 953 692 1231 940 1079 704 b 957 668 890 685 878 650 b 985 997 1233 728 1306 961 b 344 657 767 1021 365 885 b 510 497 338 579 432 525 b 369 474 465 496 417 488 b 449 -162 -85 338 -111 -162 b 1051 19 678 -162 914 -89 b 1100 271 1174 115 1201 219 z m 1113 1036 l 1064 1176 b 1011 1176 1063 1183 1011 1176 l 807 1036 b 842 1036 796 1029 828 1025 b 1022 1131 858 1046 1022 1131 l 1085 1036 b 1113 1036 1090 1028 1118 1025 z "},"Á":{"ha":989,"x_min":0,"x_max":0,"o":"m 1189 1142 b 1178 1175 1194 1154 1190 1169 b 1106 1161 1153 1188 1125 1175 b 953 1049 1086 1144 958 1058 b 957 1032 950 1043 950 1036 b 1189 1142 965 1028 1179 1121 z m 1135 819 b 910 982 1135 914 1050 982 b 268 668 656 982 432 846 b 153 749 221 689 182 717 b 125 849 122 781 108 811 b 101 874 139 879 117 893 b 114 729 74 853 76 769 b 244 640 146 693 192 665 b 125 -49 65 443 -71 35 b 696 267 322 -133 582 132 b 753 -89 633 185 599 -89 b 957 31 831 -89 910 -33 b 1086 253 1008 99 1061 197 b 1063 258 1101 286 1075 285 b 942 61 1032 189 985 117 b 738 125 832 -75 694 -110 b 876 451 763 261 803 371 b 801 488 951 532 883 635 b 476 99 732 361 619 219 b 142 303 221 -114 0 -51 b 326 603 192 426 286 567 b 729 565 449 564 581 553 b 1135 819 1033 592 1135 726 z m 1081 835 b 729 596 1081 708 946 614 b 347 628 563 582 449 596 b 914 949 493 800 669 949 b 1081 835 1010 949 1081 910 z "},"Ë":{"ha":1253,"x_min":0,"x_max":0,"o":"m 1150 1135 b 1103 1181 1150 1163 1129 1181 b 1058 1135 1076 1181 1058 1161 b 1106 1089 1058 1107 1079 1089 b 1150 1135 1132 1089 1150 1108 z m 971 1135 b 924 1181 971 1163 950 1181 b 879 1135 897 1181 879 1161 b 926 1089 879 1107 900 1089 b 971 1135 953 1089 971 1108 z m 1100 274 b 1071 256 1054 296 1007 271 b 994 60 1147 238 1097 140 b 454 -129 875 -33 668 -129 b 375 418 -24 -129 85 338 b 740 461 551 468 724 406 b 449 693 761 560 411 485 b 979 968 481 863 765 988 b 953 694 1231 943 1079 707 b 957 671 890 688 878 653 b 985 1000 1233 731 1306 964 b 344 660 767 1024 365 888 b 510 500 338 582 432 528 b 369 476 465 499 417 490 b 449 -160 -85 340 -111 -160 b 1051 22 678 -160 914 -86 b 1100 274 1174 118 1201 222 z "},"È":{"ha":1253,"x_min":0,"x_max":0,"o":"m 1118 1032 b 924 1181 1118 1040 947 1181 b 901 1156 911 1181 901 1169 b 946 1103 901 1129 924 1113 b 1106 1022 968 1092 1096 1022 b 1118 1032 1113 1022 1118 1025 z m 1100 271 b 1071 253 1054 293 1007 268 b 994 57 1147 235 1097 138 b 454 -132 875 -36 668 -132 b 375 415 -24 -132 85 335 b 740 458 551 465 724 403 b 449 690 761 557 411 482 b 979 965 481 860 765 985 b 953 692 1231 940 1079 704 b 957 668 890 685 878 650 b 985 997 1233 728 1306 961 b 344 657 767 1021 365 885 b 510 497 338 579 432 525 b 369 474 465 496 417 488 b 449 -162 -85 338 -111 -162 b 1051 19 678 -162 914 -89 b 1100 271 1174 115 1201 219 z "},"Í":{"ha":1258,"x_min":0,"x_max":0,"o":"m 1661 982 b 1582 1015 1660 1019 1624 1028 b 1475 901 1538 1000 1486 924 b 683 424 1213 857 756 751 b 940 213 647 260 793 156 b 1085 500 1054 256 1139 396 b 1056 488 1074 525 1050 494 b 939 244 1078 467 1085 303 b 776 424 819 199 746 290 b 1453 865 843 724 1203 811 b 1244 417 1424 815 1326 635 b 540 -294 1169 215 944 -193 b 29 56 318 -350 -44 -247 b 197 279 58 171 149 258 b 196 299 211 286 225 300 b 6 117 151 296 40 208 b 567 -339 -125 -231 175 -404 b 1115 1 768 -306 963 -194 b 1496 872 1336 285 1326 561 b 1554 885 1508 872 1538 885 b 1661 982 1607 903 1663 925 z m 1594 976 b 1519 907 1611 976 1642 932 b 1594 976 1540 933 1581 982 z m 1615 1136 b 1603 1174 1622 1150 1617 1167 b 1522 1157 1575 1188 1544 1174 b 1351 1031 1500 1139 1357 1042 b 1356 1013 1347 1025 1349 1017 b 1615 1136 1365 1008 1604 1113 z "},"Î":{"ha":1258,"x_min":0,"x_max":0,"o":"m 1661 982 b 1582 1015 1660 1019 1624 1028 b 1475 901 1538 1000 1486 924 b 683 424 1213 857 756 751 b 940 213 647 260 793 156 b 1085 500 1054 256 1139 396 b 1056 488 1074 525 1050 494 b 939 244 1078 467 1085 303 b 776 424 819 199 746 290 b 1453 865 843 724 1203 811 b 1244 417 1424 815 1326 635 b 540 -294 1169 215 944 -193 b 29 56 318 -350 -44 -247 b 197 279 58 171 149 258 b 196 299 211 286 225 300 b 6 117 151 296 40 208 b 567 -339 -125 -231 175 -404 b 1115 1 768 -306 963 -194 b 1496 872 1336 285 1326 561 b 1554 885 1508 872 1538 885 b 1661 982 1607 903 1663 925 z m 1594 976 b 1519 907 1611 976 1642 932 b 1594 976 1540 933 1581 982 z m 1719 1029 l 1669 1176 b 1617 1176 1668 1183 1617 1176 l 1410 1029 b 1444 1029 1399 1021 1431 1017 b 1628 1128 1463 1039 1628 1128 l 1692 1029 b 1719 1029 1697 1019 1725 1017 z "},"Ï":{"ha":1258,"x_min":0,"x_max":0,"o":"m 1661 982 b 1582 1015 1660 1019 1624 1028 b 1475 901 1538 1000 1486 924 b 683 424 1213 857 756 751 b 940 213 647 260 793 156 b 1085 500 1054 256 1139 396 b 1056 488 1074 525 1050 494 b 939 244 1078 467 1085 303 b 776 424 819 199 746 290 b 1453 865 843 724 1203 811 b 1244 417 1424 815 1326 635 b 540 -294 1169 215 944 -193 b 29 56 318 -350 -44 -247 b 197 279 58 171 149 258 b 196 299 211 286 225 300 b 6 117 151 296 40 208 b 567 -339 -125 -231 175 -404 b 1115 1 768 -306 963 -194 b 1496 872 1336 285 1326 561 b 1554 885 1508 872 1538 885 b 1661 982 1607 903 1663 925 z m 1594 976 b 1519 907 1611 976 1642 932 b 1594 976 1540 933 1581 982 z m 1760 1126 b 1713 1172 1760 1154 1739 1172 b 1668 1126 1686 1172 1668 1153 b 1715 1081 1668 1099 1689 1081 b 1760 1126 1742 1081 1760 1100 z m 1581 1126 b 1533 1172 1581 1154 1560 1172 b 1489 1126 1507 1172 1489 1153 b 1536 1081 1489 1099 1510 1081 b 1581 1126 1563 1081 1581 1100 z "},"Ì":{"ha":1258,"x_min":0,"x_max":0,"o":"m 1668 939 b 1589 972 1667 976 1631 985 b 1482 858 1544 957 1493 881 b 690 381 1219 814 763 708 b 947 169 654 217 800 113 b 1092 457 1061 213 1146 353 b 1063 444 1081 482 1057 451 b 946 201 1085 424 1092 260 b 783 381 826 156 753 247 b 1460 822 850 681 1210 768 b 1251 374 1431 772 1333 592 b 547 -337 1176 172 951 -236 b 36 13 325 -393 -37 -290 b 204 236 65 128 156 215 b 203 256 218 243 232 257 b 13 74 158 253 47 165 b 574 -382 -118 -274 182 -447 b 1122 -42 775 -349 969 -237 b 1503 829 1343 242 1333 518 b 1668 939 1568 840 1671 858 z m 1601 933 b 1526 864 1618 933 1649 889 b 1601 933 1547 890 1588 939 z m 1710 1035 b 1517 1181 1710 1043 1539 1181 b 1494 1157 1504 1181 1494 1171 b 1538 1104 1494 1131 1517 1115 b 1697 1024 1560 1093 1688 1024 b 1710 1035 1703 1024 1710 1028 z "},"Ó":{"ha":1089,"x_min":0,"x_max":0,"o":"m 1238 733 b 1217 749 1258 767 1226 768 b 1036 574 1182 681 1111 624 b 53 608 1064 1260 -1 1142 b 160 433 60 532 100 474 b 303 -93 65 192 144 -42 b 999 376 597 -189 913 114 b 1031 525 1015 429 1026 478 b 1238 733 1118 581 1186 653 z m 951 529 b 256 443 725 407 419 363 b 706 840 314 574 532 894 b 717 860 724 835 738 849 b 185 490 507 978 261 651 b 129 596 154 517 135 553 b 951 529 56 1092 1017 1263 z m 943 481 b 918 382 939 449 929 414 b 307 -49 822 110 550 -168 b 235 394 172 18 168 219 b 943 481 418 321 714 358 z m 1099 1136 b 1086 1174 1106 1150 1100 1167 b 1006 1157 1058 1188 1028 1174 b 835 1031 983 1139 840 1042 b 839 1013 831 1025 832 1017 b 1099 1136 849 1008 1088 1113 z "},"Ô":{"ha":1089,"x_min":0,"x_max":0,"o":"m 967 1056 l 925 1178 b 882 1178 924 1183 882 1178 l 711 1056 b 739 1056 701 1049 728 1046 b 890 1138 754 1064 890 1138 l 943 1056 b 967 1056 947 1049 971 1046 z m 1238 733 b 1217 749 1258 767 1226 768 b 1036 574 1182 681 1111 624 b 53 608 1064 1260 -1 1142 b 160 433 60 532 100 474 b 303 -93 65 192 144 -42 b 999 376 597 -189 913 114 b 1031 525 1015 429 1026 478 b 1238 733 1118 581 1186 653 z m 951 529 b 256 443 725 407 419 363 b 706 840 314 574 532 894 b 717 860 724 835 738 849 b 185 490 507 978 261 651 b 129 596 154 517 135 553 b 951 529 56 1092 1017 1263 z m 943 481 b 918 382 939 449 929 414 b 307 -49 822 110 550 -168 b 235 394 172 18 168 219 b 943 481 418 321 714 358 z "},"":{"ha":779,"x_min":0,"x_max":0,"o":"m 453 60 b 511 43 463 53 479 43 b 661 214 578 43 636 138 b 572 338 611 233 575 282 b 644 475 569 411 610 456 b 497 539 597 551 514 546 b 429 517 485 533 453 524 b 374 515 411 513 394 510 b 306 539 350 522 319 533 b 153 454 288 546 203 547 b 203 107 96 351 132 192 b 293 42 233 69 260 42 b 351 60 325 42 340 53 b 453 60 375 75 426 76 z m 432 636 b 406 532 404 596 399 549 b 525 692 504 526 558 643 b 432 636 510 697 457 675 z m 226 454 b 231 456 228 456 229 456 b 236 453 233 456 236 454 b 238 447 238 451 238 449 b 236 442 238 444 238 443 b 231 438 236 439 233 438 b 228 439 229 438 228 438 b 225 442 226 439 225 440 l 229 442 l 229 440 l 231 440 b 233 442 232 440 233 440 l 233 444 b 231 443 232 443 232 443 b 226 444 229 443 228 444 b 225 449 225 446 225 447 b 226 454 225 451 225 453 z m 240 454 b 244 456 242 456 243 456 b 251 453 247 456 250 454 l 251 442 b 244 438 250 439 247 438 b 242 439 243 438 243 438 b 239 442 240 439 240 440 l 243 442 l 243 440 l 244 440 b 247 442 246 440 247 440 b 249 444 247 443 249 443 l 247 444 b 244 443 246 443 246 443 b 240 444 243 443 242 444 b 239 449 240 446 239 447 b 240 454 239 451 240 453 z m 449 404 l 444 404 l 444 403 l 440 403 b 442 406 440 404 442 404 b 447 407 443 407 444 407 b 450 406 449 407 450 407 b 453 403 451 406 453 404 l 453 393 l 449 393 l 449 394 b 447 393 449 394 447 394 l 444 393 b 442 394 443 393 443 393 b 440 397 440 394 440 396 b 442 400 440 399 442 400 b 446 401 443 401 444 401 l 449 401 z m 386 318 b 388 315 386 317 388 317 b 389 313 389 315 389 314 l 389 310 l 379 310 b 381 307 379 308 381 308 l 385 307 b 386 308 385 307 385 308 l 389 308 b 388 306 389 307 389 307 b 383 304 386 304 385 304 b 378 306 381 304 379 304 b 376 311 376 307 376 308 b 378 317 376 313 376 315 b 382 318 379 318 381 318 z m 247 451 b 246 453 247 453 246 453 l 243 453 l 243 447 b 246 446 244 447 244 446 b 247 447 246 446 246 447 z m 232 447 b 233 450 233 447 233 449 l 233 451 b 231 453 232 453 232 453 l 229 453 l 229 447 l 231 446 b 232 447 232 446 232 447 z m 379 313 l 386 313 b 385 314 386 314 385 314 b 382 315 385 315 383 315 b 381 314 382 315 381 315 z m 447 399 l 444 399 l 444 396 l 447 396 b 449 399 449 396 449 397 l 449 400 z "},"Ò":{"ha":1089,"x_min":0,"x_max":0,"o":"m 1017 1025 b 811 1181 1017 1033 835 1181 b 788 1156 797 1181 788 1169 b 833 1099 788 1128 811 1110 b 1004 1013 857 1088 993 1013 b 1017 1025 1011 1013 1017 1017 z m 1238 733 b 1217 749 1258 767 1226 768 b 1036 574 1182 681 1111 624 b 53 608 1064 1260 -1 1142 b 160 433 60 532 100 474 b 303 -93 65 192 144 -42 b 999 376 597 -189 913 114 b 1031 525 1015 429 1026 478 b 1238 733 1118 581 1186 653 z m 951 529 b 256 443 725 407 419 363 b 706 840 314 574 532 894 b 717 860 724 835 738 849 b 185 490 507 978 261 651 b 129 596 154 517 135 553 b 951 529 56 1092 1017 1263 z m 943 481 b 918 382 939 449 929 414 b 307 -49 822 110 550 -168 b 235 394 172 18 168 219 b 943 481 418 321 714 358 z "},"Ú":{"ha":1308,"x_min":0,"x_max":0,"o":"m 1369 669 b 1292 596 1353 669 1322 650 b 1058 163 1235 493 1151 297 b 749 63 906 -58 764 -82 b 996 801 728 265 946 582 b 878 1153 1031 954 1014 1094 b 425 1092 754 1207 583 1179 b 388 217 -251 722 -28 40 b 453 682 694 346 739 803 b 460 658 442 678 388 642 b 389 249 725 718 579 319 b 422 1046 3 104 -133 721 b 885 1108 581 1138 771 1178 b 914 807 951 1068 947 940 b 669 63 863 606 639 250 b 1079 124 699 -115 894 -114 b 1164 249 1114 168 1143 214 b 1246 -118 1140 129 1115 -94 b 1256 -86 1289 -125 1322 -81 b 1236 229 1179 -90 1196 79 b 1319 454 1263 328 1301 415 b 1369 669 1357 539 1438 636 z m 1400 1054 b 1388 1092 1407 1068 1401 1085 b 1307 1075 1360 1106 1329 1092 b 1136 949 1285 1057 1142 960 b 1140 931 1132 943 1133 935 b 1400 1054 1150 926 1389 1031 z "},"Û":{"ha":1308,"x_min":0,"x_max":0,"o":"m 1369 669 b 1292 596 1353 669 1322 650 b 1058 163 1235 493 1151 297 b 749 63 906 -58 764 -82 b 996 801 728 265 946 582 b 878 1153 1031 954 1014 1094 b 425 1092 754 1207 583 1179 b 388 217 -251 722 -28 40 b 453 682 694 346 739 803 b 460 658 442 678 388 642 b 389 249 725 718 579 319 b 422 1046 3 104 -133 721 b 885 1108 581 1138 771 1178 b 914 807 951 1068 947 940 b 669 63 863 606 639 250 b 1079 124 699 -115 894 -114 b 1164 249 1114 168 1143 214 b 1246 -118 1140 129 1115 -94 b 1256 -86 1289 -125 1322 -81 b 1236 229 1179 -90 1196 79 b 1319 454 1263 328 1301 415 b 1369 669 1357 539 1438 636 z m 1432 1029 l 1382 1176 b 1329 1176 1381 1183 1329 1176 l 1122 1029 b 1157 1029 1111 1021 1143 1017 b 1340 1128 1175 1039 1340 1128 l 1404 1029 b 1432 1029 1410 1019 1438 1017 z "},"Ù":{"ha":1308,"x_min":0,"x_max":0,"o":"m 1369 669 b 1292 596 1353 669 1322 650 b 1058 163 1235 493 1151 297 b 749 63 906 -58 764 -82 b 996 801 728 265 946 582 b 878 1153 1031 954 1014 1094 b 425 1092 754 1207 583 1179 b 388 217 -251 722 -28 40 b 453 682 694 346 739 803 b 460 658 442 678 388 642 b 389 249 725 718 579 319 b 422 1046 3 104 -133 721 b 885 1108 581 1138 771 1178 b 914 807 951 1068 947 940 b 669 63 863 606 639 250 b 1079 124 699 -115 894 -114 b 1164 249 1114 168 1143 214 b 1246 -118 1140 129 1115 -94 b 1256 -86 1289 -125 1322 -81 b 1236 229 1179 -90 1196 79 b 1319 454 1263 328 1301 415 b 1369 669 1357 539 1438 636 z m 1394 1006 b 1165 1181 1394 1015 1192 1181 b 1139 1151 1150 1181 1139 1168 b 1190 1089 1139 1121 1165 1101 b 1381 993 1217 1076 1368 993 b 1394 1006 1388 993 1394 997 z "},"ı":{"ha":242,"x_min":0,"x_max":0,"o":"m 328 254 b 310 267 342 282 322 292 b 179 57 272 189 226 103 b 118 31 165 43 139 28 b 89 118 78 33 75 72 b 106 158 92 128 106 158 b 250 428 143 254 250 428 b 301 478 265 457 290 467 l 231 478 b 156 411 186 478 190 478 l 35 181 b 110 0 -1 113 7 0 b 328 254 214 0 292 176 z "},"ˆ":{"ha":674,"x_min":0,"x_max":0,"o":"m 535 540 l 485 688 b 432 688 483 694 432 688 l 225 540 b 260 540 214 532 246 528 b 443 639 278 550 443 639 l 507 540 b 535 540 513 531 540 528 z "},"˜":{"ha":674,"x_min":0,"x_max":0,"o":"m 600 674 b 576 675 603 678 578 681 b 511 635 563 649 543 632 b 369 676 465 639 419 674 b 254 590 315 681 276 629 b 282 588 253 585 279 581 b 343 625 293 610 314 628 b 485 581 390 622 435 585 b 600 674 540 576 579 631 z "},"¯":{"ha":674,"x_min":0,"x_max":0,"o":"m 568 613 l 272 613 l 254 571 l 551 571 z "},"˘":{"ha":454,"x_min":0,"x_max":0,"o":"m 367 732 b 232 658 333 689 310 658 b 136 693 192 658 165 665 b 101 747 115 714 115 747 b 81 685 88 747 72 733 b 204 611 89 633 157 611 b 397 731 293 611 364 657 b 367 732 401 744 379 747 z "},"˙":{"ha":378,"x_min":0,"x_max":0,"o":"m 251 760 b 218 796 251 778 239 796 b 153 718 188 796 153 747 b 183 690 153 700 167 690 b 251 760 218 690 251 724 z "},"˚":{"ha":433,"x_min":0,"x_max":0,"o":"m 193 729 b 240 782 196 758 217 781 b 279 732 264 783 282 761 b 232 678 276 703 257 678 b 193 729 208 678 192 700 z m 144 726 b 228 654 139 686 176 653 b 329 732 279 656 324 690 b 246 804 333 772 297 806 b 144 726 196 801 149 768 z "},"¸":{"ha":526,"x_min":0,"x_max":0,"o":"m 453 -160 b 288 -54 453 -81 350 -54 b 233 -58 269 -54 251 -56 b 294 -10 232 -50 286 -17 b 283 1 293 -6 289 1 b 176 -79 278 1 186 -69 b 171 -92 172 -83 171 -86 b 197 -112 171 -104 185 -112 b 297 -79 211 -112 244 -79 b 401 -158 344 -79 401 -104 b 382 -215 401 -178 393 -199 b 249 -265 357 -254 292 -265 b 129 -231 214 -265 154 -257 b 108 -215 124 -225 117 -215 b 100 -225 103 -215 100 -219 b 275 -289 100 -274 240 -289 b 381 -265 308 -289 351 -285 b 453 -160 415 -242 453 -204 z "},"˝":{"ha":371,"x_min":0,"x_max":0,"o":"m 200 778 b 168 792 194 789 181 794 b 128 740 142 785 132 761 b 100 583 126 719 96 592 b 114 575 101 578 107 574 b 200 778 122 579 207 760 z m 363 778 b 331 792 357 789 344 794 b 292 740 304 785 294 761 b 263 583 289 719 258 592 b 276 575 264 578 269 574 b 363 778 285 579 369 760 z "},"˛":{"ha":463,"x_min":0,"x_max":0,"o":"m 306 -10 b 297 4 308 8 303 4 b 71 -261 229 -25 74 -175 b 133 -324 69 -303 99 -324 b 265 -246 204 -324 260 -274 b 251 -240 268 -233 256 -237 b 181 -282 233 -258 206 -282 b 140 -236 149 -282 140 -261 b 306 -10 143 -172 232 -68 z "},"ˇ":{"ha":510,"x_min":0,"x_max":0,"o":"m 118 853 l 168 706 b 221 706 169 699 221 706 l 428 853 b 393 853 439 861 407 865 b 210 754 375 843 210 754 l 146 853 b 118 853 140 863 113 865 z "},"·":{"ha":363,"x_min":0,"x_max":0,"o":"m 288 322 b 240 379 293 354 271 379 b 174 322 208 379 178 354 b 221 265 168 290 189 265 b 288 322 253 265 282 290 z "},"Ð":{"ha":1426,"x_min":0,"x_max":0,"o":"m 1421 332 b 1136 929 1447 596 1325 804 l 1201 1024 b 1242 1061 1206 1029 1224 1049 b 1228 1082 1275 1082 1272 1100 b 1111 1004 1204 1074 1135 1025 l 1076 964 b 588 1047 932 1040 758 1072 b 250 476 15 964 7 561 b 543 649 372 433 524 511 b 515 661 547 675 517 675 b 264 510 513 613 428 458 b 560 999 58 574 175 917 b 1038 921 732 1035 901 1003 b 742 442 915 785 829 607 b 599 443 678 443 633 443 b 599 376 558 443 579 374 l 713 389 b 510 100 651 278 588 175 b 299 203 465 124 351 183 b 174 -50 -14 311 -110 -17 b 521 50 307 -67 419 -32 b 897 -49 608 11 717 -26 b 1421 332 1147 -79 1396 74 z m 910 400 b 904 438 947 400 936 436 b 835 439 879 438 856 439 b 1103 876 924 582 1015 740 b 1333 329 1260 753 1357 557 b 896 -11 1313 138 1136 -33 b 554 75 747 3 640 36 b 607 125 572 90 589 106 b 807 397 669 193 738 289 b 910 400 839 399 874 400 z m 474 72 b 208 -11 397 17 308 -15 b 264 167 39 -3 63 236 b 474 72 347 138 407 104 z "},"Ł":{"ha":1036,"x_min":0,"x_max":0,"o":"m 906 307 b 900 344 943 307 932 343 b 700 347 842 346 769 347 l 750 451 b 1329 1089 1046 501 1368 810 b 829 778 1314 1197 1044 1310 b 711 481 829 778 728 518 b 644 950 265 428 358 915 b 642 974 706 958 700 988 b 692 446 167 865 292 433 b 643 349 675 411 660 379 b 422 350 543 349 453 350 b 422 283 382 350 403 281 b 615 297 458 288 533 293 b 546 178 593 256 571 217 b 197 163 444 196 296 192 b 311 -124 -176 50 21 -264 b 557 103 401 -81 485 1 b 1060 -92 733 68 925 28 b 1128 -362 1154 -174 1150 -314 b 1146 -404 1117 -386 1086 -436 b 1181 -367 1157 -399 1169 -387 b 1054 -42 1215 -308 1186 -144 b 599 165 925 58 735 132 l 628 213 l 675 300 b 906 307 761 304 847 307 z m 1272 1058 b 769 489 1274 801 1019 544 b 892 731 826 607 892 731 b 1272 1058 1107 1151 1271 1151 z m 503 111 b 289 -85 436 17 364 -49 b 214 106 35 -207 -122 19 b 503 111 304 129 411 131 z "},"ł":{"ha":294,"x_min":0,"x_max":0,"o":"m 328 360 b 329 386 351 369 349 393 l 238 353 b 440 685 328 457 390 572 b 292 761 540 907 390 926 b 88 297 215 633 133 449 l 21 271 b 11 224 -4 261 -1 215 l 75 253 b 146 -3 49 163 0 -3 b 393 258 286 -3 358 185 b 372 265 406 286 385 289 b 269 89 354 229 315 154 b 126 176 196 -14 85 10 b 156 268 135 211 149 244 b 194 306 169 281 182 292 z m 419 706 b 188 335 368 585 279 435 b 172 329 182 332 178 331 b 386 768 219 446 321 676 b 419 706 461 875 447 769 z "},"Š":{"ha":1251,"x_min":0,"x_max":0,"o":"m 1097 1172 l 1143 1039 b 1190 1039 1144 1033 1190 1039 l 1378 1172 b 1346 1172 1388 1179 1358 1183 b 1181 1083 1329 1164 1181 1083 l 1122 1172 b 1097 1172 1118 1181 1093 1183 z m 1156 790 b 1113 1006 1235 856 1204 961 b 699 1000 1019 1053 828 1044 b 586 614 511 933 393 742 b 935 439 682 550 856 504 b 783 -22 1090 313 999 92 b 65 197 525 -157 63 -122 b 138 438 67 279 90 365 b 226 535 160 475 192 507 b 213 554 268 567 231 561 b -7 197 86 494 -14 319 b 856 -29 14 -167 564 -203 b 982 506 1072 101 1246 343 b 678 658 888 565 757 611 b 747 965 504 765 594 910 b 1075 774 1163 1114 1236 793 b 1069 749 1033 769 1035 739 b 1156 790 1106 758 1135 774 z "},"š":{"ha":356,"x_min":0,"x_max":0,"o":"m 457 263 b 436 271 464 276 443 285 b 332 89 407 214 364 128 b 207 25 297 47 254 18 l 197 26 b 296 181 251 63 293 126 b 246 344 299 242 268 292 b 275 521 225 394 211 490 b 319 519 289 528 306 525 b 325 543 344 507 350 531 b 274 550 311 550 294 553 b 158 431 225 543 183 485 b 39 190 122 351 76 261 b 108 -6 -28 188 -60 -6 b 165 8 126 -6 146 0 b 457 263 322 -39 406 147 z m 211 181 b 150 36 207 107 181 60 b 92 143 118 51 89 90 b 63 188 93 189 63 188 b 193 444 96 249 156 369 b 211 181 182 382 215 268 z m 126 24 b 99 18 118 19 108 18 b 71 128 44 18 26 83 b 126 24 74 75 97 42 z m 229 818 l 279 671 b 332 671 281 664 332 671 l 539 818 b 504 818 550 826 518 831 b 321 719 486 808 321 719 l 257 818 b 229 818 251 828 224 831 z "},"Ý":{"ha":1397,"x_min":0,"x_max":0,"o":"m 1556 -40 b 1539 -39 1544 -4 1536 -18 b 1131 -178 1511 -193 1267 -169 b 1378 535 1233 4 1329 321 b 1310 624 1425 742 1317 657 b 953 10 1267 479 1125 132 b 753 110 844 -68 717 -57 b 969 585 781 236 876 426 b 950 1142 1094 796 1154 1050 b 81 688 707 1251 244 1025 b 394 206 -89 340 174 114 b 508 676 706 333 801 756 b 511 657 483 671 464 647 b 400 238 753 700 593 307 b 153 651 219 172 10 308 b 956 1097 282 958 732 1240 b 858 567 1063 1029 982 768 b 656 118 782 442 675 257 b 972 -19 628 -93 831 -115 b 1254 358 1101 68 1201 244 b 1064 -179 1204 172 1136 -1 b 464 -268 863 -179 653 -190 b 725 -510 117 -411 363 -649 b 1110 -214 867 -456 1017 -354 b 1456 -182 1250 -212 1383 -211 b 1556 -40 1540 -146 1567 -76 z m 1044 -214 b 704 -481 961 -347 828 -435 b 486 -326 482 -562 214 -482 b 1044 -214 651 -231 857 -214 z m 1503 1047 b 1490 1085 1510 1061 1504 1078 b 1410 1068 1463 1099 1432 1085 b 1239 942 1388 1050 1244 953 b 1243 924 1235 936 1236 928 b 1503 1047 1253 919 1492 1024 z "},"ý":{"ha":554,"x_min":0,"x_max":0,"o":"m 651 253 b 632 265 665 281 644 290 b 544 113 618 239 588 175 b 344 -25 490 35 406 -7 b 456 293 385 85 421 200 b 564 478 490 386 511 442 l 489 478 b 435 449 463 478 446 471 b 217 86 382 339 294 176 b 135 182 126 -18 68 38 b 260 428 174 265 213 347 b 311 478 276 457 299 467 l 226 478 b 172 449 200 478 183 471 b 94 296 151 406 122 349 l 69 247 b 82 225 61 229 74 225 b 35 64 57 175 22 124 b 122 1 46 11 94 1 b 367 257 229 1 319 174 b 247 -56 344 185 300 36 b -90 -156 135 -87 3 -111 b -221 -269 -144 -181 -194 -218 b -110 -439 -262 -347 -249 -439 b 321 -69 96 -439 233 -226 b 651 253 521 3 557 61 z m 222 -100 l 192 -151 b -142 -411 128 -239 -19 -411 b -67 -186 -261 -411 -208 -247 b 222 -100 13 -151 132 -124 z m 625 697 b 613 735 632 711 626 728 b 532 718 585 749 554 735 b 361 592 510 700 367 603 b 365 574 357 586 358 578 b 625 697 375 569 614 674 z "},"Þ":{"ha":467,"x_min":0,"x_max":0,"o":"m 585 1042 b 568 1160 604 1104 601 1129 b 513 1181 554 1172 524 1164 b 286 482 514 1132 443 811 b 15 11 231 365 51 44 b 74 4 35 14 56 6 b 169 76 118 1 139 17 l 274 289 b 515 318 335 286 431 296 b 667 800 729 371 974 632 b 510 853 626 824 571 843 z m 646 776 b 475 344 838 660 707 418 b 286 317 418 326 343 318 l 331 407 b 431 638 358 446 421 613 l 500 826 b 646 776 549 815 611 796 z "},"þ":{"ha":535,"x_min":0,"x_max":0,"o":"m 418 267 b 122 43 343 129 190 -25 b 308 358 188 165 256 286 b 418 267 426 524 510 438 z m 386 724 b 369 842 406 786 403 811 b 314 863 356 854 325 846 b 67 97 315 814 224 426 b -204 -374 11 -19 -168 -340 b -146 -381 -185 -371 -164 -379 b -50 -308 -101 -383 -81 -368 l 111 22 b 408 103 210 -36 332 11 b 456 483 510 225 588 447 b 211 253 361 510 253 321 z "},"Ž":{"ha":940,"x_min":0,"x_max":0,"o":"m 1286 1171 l 1336 1024 b 1389 1024 1338 1017 1389 1024 l 1596 1171 b 1561 1171 1607 1179 1575 1183 b 1378 1072 1543 1161 1378 1072 l 1314 1171 b 1286 1171 1308 1181 1281 1183 z m 976 388 b 968 424 1035 388 1018 422 b 822 426 914 424 865 425 b 1171 846 925 557 1075 758 b 1396 846 1271 821 1353 810 b 1301 972 1488 924 1417 1013 b 1147 879 1258 957 1204 924 b 624 990 993 926 794 1004 b 357 667 300 965 281 751 b 413 625 378 643 401 628 b 429 651 426 621 478 618 b 540 897 285 747 422 867 b 1121 858 706 940 957 904 b 825 567 1017 774 903 658 l 711 431 b 503 432 619 432 553 432 b 503 367 439 432 472 364 b 668 379 553 369 608 375 b 413 85 526 211 413 85 b 214 185 317 146 256 174 b 128 -51 -17 246 -47 -11 b 406 44 193 -65 285 -42 b 1060 -219 406 44 856 -224 b 1386 -18 1331 -214 1381 -71 b 1354 3 1394 61 1361 47 b 969 -131 1332 -156 1075 -151 b 440 64 821 -101 440 64 b 788 383 538 143 633 199 b 976 388 846 386 908 388 z m 386 58 b 208 -11 347 25 272 -8 b 203 144 35 -17 38 163 b 344 90 239 140 288 122 b 386 58 358 81 386 58 z m 1371 857 b 1192 867 1335 835 1271 844 b 1356 957 1256 921 1313 957 b 1371 857 1406 957 1411 882 z "},"ž":{"ha":474,"x_min":0,"x_max":0,"o":"m 572 256 b 553 267 586 283 565 292 b 339 18 499 153 431 36 b 354 119 346 40 354 100 b 258 210 353 171 328 211 b 394 401 346 263 392 340 b 136 375 400 514 221 529 b 54 217 106 319 79 265 b 71 201 39 185 60 178 b 144 340 92 246 128 313 b 303 300 229 486 368 400 b 147 178 285 272 239 206 b 158 151 125 171 136 143 b 219 178 181 160 201 168 b 246 -15 300 192 267 51 b -242 -240 69 -71 -167 -128 b -83 -421 -315 -354 -225 -462 b 331 -17 117 -362 260 -211 b 572 256 449 7 508 126 z m 233 -50 b -126 -397 158 -247 -18 -374 b -111 -171 -272 -428 -233 -242 b 233 -50 -31 -122 110 -89 z m 279 744 l 329 597 b 382 597 331 590 382 597 l 589 744 b 554 744 600 753 568 757 b 371 646 536 735 371 646 l 307 744 b 279 744 301 754 274 757 z "},"­":{"ha":564,"x_min":0,"x_max":0,"o":"m 539 293 b 533 331 576 293 565 329 b 228 336 372 335 286 336 b 228 269 188 336 208 267 b 539 293 311 279 411 293 z "},"§":{"ha":1311,"x_min":0,"x_max":0,"o":"m 926 -18 b 1064 558 1161 122 1347 383 b 736 722 961 622 821 671 b 811 1053 549 838 646 993 b 1164 847 1258 1213 1338 868 b 1157 819 1118 842 1119 810 b 1250 864 1197 831 1228 846 b 1204 1097 1336 935 1303 1049 b 758 1090 1104 1147 897 1139 b 565 739 585 1028 468 869 b 490 701 539 728 514 715 b 353 125 256 561 69 300 b 681 -39 456 61 596 13 b 606 -369 868 -154 771 -310 b 253 -164 158 -529 79 -185 b 260 -136 299 -158 297 -126 b 167 -181 219 -147 189 -162 b 213 -414 81 -251 114 -365 b 658 -407 313 -464 519 -456 b 851 -57 831 -344 947 -187 b 926 -18 878 -46 903 -32 z m 636 675 b 1013 486 740 606 926 556 b 849 -11 1181 350 1082 111 l 822 -24 b 781 8 810 -12 796 -1 b 404 197 676 78 490 128 b 568 694 236 333 335 572 l 594 707 b 636 675 606 696 619 685 z "},"ð":{"ha":539,"x_min":0,"x_max":0,"o":"m 508 828 b 485 857 540 846 513 872 l 376 799 b 213 864 338 839 283 864 b 132 835 193 864 132 864 b 147 825 132 826 140 825 b 197 831 164 825 179 831 b 322 768 249 831 290 806 l 217 710 b 250 651 182 689 235 640 b 353 726 281 674 315 700 b 415 478 397 650 415 547 b 400 347 415 435 410 390 l 400 368 b 325 447 400 414 375 447 b 63 215 214 447 92 317 b 50 125 54 186 50 156 b 139 -7 50 71 72 -7 b 439 331 304 -7 404 194 b 465 522 456 393 465 458 b 404 763 465 607 449 697 b 508 828 436 783 469 806 z m 381 363 b 344 222 381 315 368 264 b 150 10 311 161 229 10 b 111 65 118 10 111 43 b 139 213 111 111 124 169 b 332 433 161 278 251 433 b 381 363 372 433 381 397 z "},"÷":{"ha":557,"x_min":0,"x_max":0,"o":"m 410 349 b 363 406 415 381 393 406 b 296 349 331 406 300 381 b 343 292 290 317 311 292 b 410 349 375 292 404 317 z m 350 38 b 303 94 356 69 335 94 b 236 38 271 94 242 69 b 283 -19 231 6 253 -19 b 350 38 315 -19 346 6 z m 571 207 l 571 232 l 568 233 l 90 233 l 89 232 l 89 207 l 90 206 l 568 206 z "},"ø":{"ha":465,"x_min":0,"x_max":0,"o":"m 94 -75 l 138 0 l 139 0 b 260 47 179 -1 221 18 b 349 11 278 26 307 11 b 567 261 465 11 543 208 b 546 274 576 282 553 288 b 351 35 513 207 440 35 b 286 69 318 35 297 49 b 403 233 339 119 382 185 b 399 461 442 324 443 418 l 436 525 l 410 538 l 375 476 b 335 486 364 482 350 486 b 71 253 240 489 125 381 b 108 4 24 142 31 29 l 69 -64 z m 167 258 b 356 442 215 363 296 449 l 131 44 b 167 258 104 78 121 161 z m 353 213 b 310 138 340 186 325 160 b 313 153 311 143 313 147 b 271 194 313 175 294 194 b 243 186 260 194 250 192 l 381 429 b 353 213 411 397 399 310 z m 222 135 b 244 67 222 114 229 89 b 154 31 213 40 181 26 l 222 150 z "},"Ø":{"ha":1071,"x_min":0,"x_max":0,"o":"m 246 -164 l 304 -60 l 321 -67 b 1017 403 615 -162 931 140 b 1049 551 1033 456 1044 504 b 1256 760 1136 607 1204 679 b 1235 775 1276 793 1244 794 b 1054 600 1200 707 1129 650 b 892 979 1061 778 994 903 l 963 1104 l 915 1126 l 849 1008 b 71 635 549 1179 32 1010 b 178 460 78 558 118 500 b 261 -36 96 250 144 47 l 201 -144 z m 274 469 b 724 867 332 600 550 921 b 735 886 742 861 756 875 b 203 517 525 1004 279 678 b 147 622 172 543 153 579 b 828 971 94 979 576 1167 l 524 429 b 274 469 426 425 339 438 z m 961 507 b 936 408 957 475 947 440 b 325 -22 840 136 568 -140 l 557 388 b 961 507 692 399 836 440 z m 969 556 b 583 435 851 492 713 449 l 867 935 b 969 556 942 856 985 732 z m 253 421 b 497 383 321 393 406 381 l 285 4 b 253 421 190 89 193 265 z "},"◊":{"ha":799,"x_min":0,"x_max":0,"o":"m 382 -19 b 418 6 401 -19 411 -10 b 693 490 468 82 692 436 b 692 513 693 497 692 506 b 572 728 653 583 610 656 b 492 924 542 792 518 858 b 458 953 483 938 474 953 b 146 440 419 953 147 496 b 151 413 146 428 147 422 b 328 67 211 297 278 188 b 351 6 336 46 342 25 b 382 -19 358 -8 368 -19 z m 447 831 b 585 428 489 696 533 561 b 393 101 519 318 458 207 b 258 501 351 233 307 371 b 447 831 318 611 383 721 z "},"Ľ":{"ha":1036,"x_min":0,"x_max":0,"o":"m 1274 1126 b 1233 1181 1274 1153 1263 1181 b 1185 1140 1210 1181 1188 1163 b 1219 1099 1181 1117 1196 1099 b 1247 1108 1229 1099 1239 1103 b 1171 1022 1242 1064 1208 1033 b 1172 1011 1158 1018 1161 1006 b 1274 1126 1215 1025 1274 1061 z m 1199 888 b 754 608 1189 1003 949 1099 b 651 369 754 608 668 407 b 585 839 206 317 299 804 b 582 863 646 847 640 876 b 632 335 107 754 232 322 b 546 176 582 232 599 258 b 197 161 444 194 296 190 b 311 -125 -176 49 21 -265 b 557 101 401 -82 485 0 b 1060 -93 733 67 925 26 b 1128 -364 1154 -175 1150 -315 b 1146 -406 1117 -387 1086 -437 b 1181 -368 1157 -400 1169 -389 b 1054 -43 1215 -310 1186 -146 b 599 164 925 57 735 131 b 690 340 678 300 650 258 b 1199 888 986 390 1221 635 z m 1147 860 b 710 378 1149 629 960 433 b 810 565 767 496 810 565 b 1147 860 1001 944 1146 944 z m 503 110 b 289 -86 436 15 364 -50 b 214 104 35 -208 -122 18 b 503 110 304 128 411 129 z "},"Ś":{"ha":1251,"x_min":0,"x_max":0,"o":"m 1224 754 b 1181 979 1307 822 1275 932 b 751 972 1083 1026 885 1018 b 635 574 557 903 436 706 b 996 392 735 507 914 458 b 842 -90 1157 261 1075 32 b 68 146 564 -235 65 -199 b 146 406 69 235 96 328 b 242 510 171 446 204 481 b 228 531 288 544 247 539 b -10 146 92 467 -17 278 b 919 -97 14 -246 606 -285 b 1046 461 1154 43 1317 293 b 731 618 947 522 813 569 b 803 936 550 729 644 879 b 1142 739 1232 1089 1308 758 b 1135 713 1097 733 1099 703 b 1224 754 1174 722 1203 738 z m 1232 1144 b 1221 1175 1238 1156 1232 1169 b 1156 1161 1199 1186 1174 1175 b 1017 1058 1138 1147 1021 1068 b 1019 1043 1013 1054 1014 1047 b 1232 1144 1028 1040 1222 1125 z "},"Ą":{"ha":989,"x_min":0,"x_max":0,"o":"m 903 -36 l 903 -26 b 957 31 924 -8 942 10 b 1086 253 1008 99 1061 197 b 1063 258 1101 286 1075 285 b 942 61 1032 189 985 117 b 738 125 832 -75 694 -110 b 919 497 763 261 842 410 b 840 536 1000 585 926 697 b 476 99 767 400 619 219 b 142 303 221 -114 0 -51 b 343 653 192 426 293 582 b 763 621 474 611 606 607 b 1194 897 1086 650 1194 796 b 956 1074 1194 1000 1104 1074 b 278 711 685 1074 453 906 b 156 799 228 735 186 764 b 126 908 124 835 108 867 b 101 935 142 942 118 957 b 114 778 71 913 75 822 b 253 682 149 739 197 708 b 131 506 206 628 165 568 b 125 -49 -8 254 -8 8 b 696 267 322 -133 582 132 b 753 -89 633 185 599 -89 b 813 -78 772 -89 793 -85 b 668 -287 744 -137 669 -228 b 731 -350 667 -329 696 -350 b 863 -272 801 -350 857 -300 b 849 -267 865 -260 853 -264 b 778 -308 831 -285 803 -308 b 738 -262 746 -308 738 -287 b 903 -36 740 -199 829 -94 z m 1138 914 b 763 654 1138 776 993 674 b 365 681 586 639 474 646 b 960 1038 521 867 700 1038 b 1138 914 1061 1038 1138 996 z "},"Ș":{"ha":1251,"x_min":0,"x_max":0,"o":"m 1250 864 b 1204 1097 1336 935 1303 1049 b 758 1090 1104 1147 897 1139 b 636 675 556 1018 429 813 b 1013 486 740 606 926 556 b 849 -11 1181 350 1082 111 b 75 225 571 -156 72 -119 b 153 485 76 314 103 407 b 249 589 178 525 211 560 b 235 610 294 624 254 618 b -3 225 99 546 -10 357 b 926 -18 21 -167 613 -206 b 1064 558 1161 122 1347 383 b 736 722 961 622 821 671 b 811 1053 549 838 646 993 b 1164 847 1258 1213 1338 868 b 1157 819 1118 842 1119 810 b 1250 864 1197 831 1228 846 z m 500 -271 b 444 -211 500 -239 482 -211 b 385 -262 417 -211 389 -233 b 428 -314 381 -290 399 -314 b 463 -301 440 -314 453 -308 b 368 -410 457 -357 414 -394 b 369 -424 351 -414 356 -429 b 500 -271 422 -406 500 -353 z "},"Ť":{"ha":1511,"x_min":0,"x_max":0,"o":"m 1936 771 b 1922 800 1936 778 1932 800 b 1907 779 1910 800 1907 792 b 1450 817 1907 685 1569 778 b 1522 872 1468 835 1510 882 b 1513 913 1568 858 1557 926 b 1411 828 1481 910 1424 843 b 958 949 1322 853 1125 935 b 615 386 438 996 332 485 b 922 569 746 342 904 421 b 894 581 922 588 908 593 l 894 578 b 629 421 900 539 800 367 b 968 878 411 490 571 897 b 1389 801 1117 871 1243 847 b 981 51 1331 724 1149 233 b 508 -157 875 -64 726 -151 b 88 276 294 -161 38 -8 b 231 468 110 408 208 440 b 60 340 239 526 101 469 b 1047 -15 -128 -253 753 -350 b 1429 788 1251 218 1263 522 b 1779 699 1458 775 1574 725 b 1936 771 1867 688 1936 718 z m 1464 1171 l 1514 1024 b 1567 1024 1515 1017 1567 1024 l 1774 1171 b 1739 1171 1785 1179 1753 1183 b 1556 1072 1721 1161 1556 1072 l 1492 1171 b 1464 1171 1486 1181 1458 1183 z "},"Ź":{"ha":940,"x_min":0,"x_max":0,"o":"m 1456 843 b 1361 969 1547 921 1476 1010 b 1207 876 1318 954 1264 921 b 683 988 1053 924 854 1001 b 417 664 360 963 340 749 b 472 622 438 640 461 625 b 489 649 486 618 538 615 b 600 894 344 744 482 864 b 1181 856 765 938 1017 901 b 885 564 1076 771 963 656 b 415 10 776 432 415 10 b 217 110 319 71 258 99 b 131 -126 -14 171 -44 -86 b 408 -31 196 -140 288 -117 b 1063 -294 408 -31 858 -299 b 1389 -93 1333 -289 1383 -146 b 1357 -72 1397 -14 1364 -28 b 972 -206 1335 -231 1078 -226 b 443 -11 824 -176 443 -11 b 878 406 544 72 719 210 b 1231 843 982 535 1131 751 b 1456 843 1331 818 1413 807 z m 1431 854 b 1251 864 1394 832 1331 842 b 1415 954 1315 918 1372 954 b 1431 854 1465 954 1471 879 z m 389 -17 b 211 -86 350 -50 275 -83 b 206 69 38 -92 40 88 b 347 15 242 65 290 47 b 389 -17 361 6 389 -17 z m 1386 1136 b 1374 1174 1393 1150 1388 1167 b 1293 1157 1346 1188 1315 1174 b 1122 1031 1271 1139 1128 1042 b 1126 1013 1118 1025 1119 1017 b 1386 1136 1136 1008 1375 1113 z "},"Ż":{"ha":940,"x_min":0,"x_max":0,"o":"m 1136 1140 b 1103 1176 1136 1158 1124 1176 b 1038 1099 1072 1176 1038 1128 b 1068 1071 1038 1081 1051 1071 b 1136 1140 1103 1071 1136 1104 z m 1456 843 b 1361 969 1547 921 1476 1010 b 1207 876 1318 954 1264 921 b 683 988 1053 924 854 1001 b 417 664 360 963 340 749 b 472 622 438 640 461 625 b 489 649 486 618 538 615 b 600 894 344 744 482 864 b 1181 856 765 938 1017 901 b 885 564 1076 771 963 656 b 415 10 776 432 415 10 b 217 110 319 71 258 99 b 131 -126 -14 171 -44 -86 b 408 -31 196 -140 288 -117 b 1063 -294 408 -31 858 -299 b 1389 -93 1333 -289 1383 -146 b 1357 -72 1397 -14 1364 -28 b 972 -206 1335 -231 1078 -226 b 443 -11 824 -176 443 -11 b 878 406 544 72 719 210 b 1231 843 982 535 1131 751 b 1456 843 1331 818 1413 807 z m 1431 854 b 1251 864 1394 832 1331 842 b 1415 954 1315 918 1372 954 b 1431 854 1465 954 1471 879 z m 389 -17 b 211 -86 350 -50 275 -83 b 206 69 38 -92 40 88 b 347 15 242 65 290 47 b 389 -17 361 6 389 -17 z "},"ą":{"ha":486,"x_min":0,"x_max":0,"o":"m 585 256 b 565 267 599 283 578 292 b 386 33 536 207 444 31 b 372 117 368 33 361 60 b 501 376 390 201 472 347 b 443 382 482 372 461 381 b 349 293 399 385 379 351 b 225 99 313 225 274 157 b 97 107 160 21 83 10 b 154 247 106 160 143 228 b 339 446 204 329 276 411 b 457 411 390 474 442 463 b 472 451 481 407 492 431 b 150 388 393 538 233 486 b 206 46 -60 136 46 -107 b 306 176 246 85 283 140 b 360 -1 268 46 317 3 b 204 -221 289 -61 206 -158 b 267 -283 203 -262 232 -283 b 399 -206 338 -283 393 -233 b 385 -200 401 -193 389 -197 b 314 -242 367 -218 339 -242 b 274 -196 282 -242 274 -221 b 425 19 276 -136 354 -40 b 585 256 490 68 551 188 z "},"ľ":{"ha":514,"x_min":0,"x_max":0,"o":"m 440 685 b 292 761 540 907 390 926 b 81 271 211 626 124 426 b 146 -3 57 188 -10 -3 b 393 258 286 -3 358 185 b 372 265 406 286 385 289 b 269 89 354 229 315 154 b 126 176 196 -14 85 10 b 156 268 135 211 149 244 b 440 685 292 392 376 542 z m 419 706 b 167 313 365 576 265 413 b 386 768 210 424 318 672 b 419 706 461 875 447 769 z m 675 775 b 618 850 675 811 658 850 b 551 793 586 850 556 825 b 599 736 546 761 567 736 b 638 750 613 736 626 742 b 532 629 631 688 583 646 b 535 614 514 624 518 607 b 675 775 593 633 675 683 z "},"ś":{"ha":356,"x_min":0,"x_max":0,"o":"m 457 263 b 436 271 464 276 443 285 b 332 89 407 214 364 128 b 207 25 297 47 254 18 l 197 26 b 296 181 251 63 293 126 b 246 344 299 242 268 292 b 275 521 225 394 211 490 b 319 519 289 528 306 525 b 325 543 344 507 350 531 b 274 550 311 550 294 553 b 158 431 225 543 183 485 b 39 190 122 351 76 261 b 108 -6 -28 188 -60 -6 b 165 8 126 -6 146 0 b 457 263 322 -39 406 147 z m 211 181 b 150 36 207 107 181 60 b 92 143 118 51 89 90 b 63 188 93 189 63 188 b 193 444 96 249 156 369 b 211 181 182 382 215 268 z m 126 24 b 99 18 118 19 108 18 b 71 128 44 18 26 83 b 126 24 74 75 97 42 z m 493 757 b 481 794 500 771 494 788 b 400 778 453 808 422 794 b 229 651 378 760 235 663 b 233 633 225 646 226 638 b 493 757 243 629 482 733 z "},"ș":{"ha":356,"x_min":0,"x_max":0,"o":"m 457 263 b 436 271 464 276 443 285 b 332 89 407 214 364 128 b 207 25 297 47 254 18 l 197 26 b 296 181 251 63 293 126 b 246 344 299 242 268 292 b 275 521 225 394 211 490 b 319 519 289 528 306 525 b 325 543 344 507 350 531 b 274 550 311 550 294 553 b 158 431 225 543 183 485 b 39 190 122 351 76 261 b 108 -6 -28 188 -60 -6 b 165 8 126 -6 146 0 b 457 263 322 -39 406 147 z m 211 181 b 150 36 207 107 181 60 b 92 143 118 51 89 90 b 63 188 93 189 63 188 b 193 444 96 249 156 369 b 211 181 182 382 215 268 z m 126 24 b 99 18 118 19 108 18 b 71 128 44 18 26 83 b 126 24 74 75 97 42 z m 132 -124 b 76 -64 132 -92 114 -64 b 17 -115 49 -64 21 -86 b 60 -167 13 -143 31 -167 b 94 -154 72 -167 85 -161 b 0 -262 89 -210 46 -247 b 1 -276 -17 -267 -12 -282 b 132 -124 54 -258 132 -206 z "},"ť":{"ha":613,"x_min":0,"x_max":0,"o":"m 421 528 l 354 528 b 414 647 375 567 394 606 b 271 725 517 869 367 893 b 169 528 236 665 201 597 l 86 528 b 83 497 71 528 68 497 l 156 497 b 47 143 111 389 60 238 b 239 39 26 -10 164 -33 b 375 256 290 90 314 128 b 357 264 389 283 368 289 b 210 54 319 189 274 101 b 121 126 164 21 100 33 b 153 268 121 126 140 232 b 338 497 235 343 290 417 l 418 497 b 421 528 432 497 435 528 z m 393 669 b 324 528 374 624 350 575 l 254 528 b 353 731 289 607 319 683 b 393 669 439 851 419 728 z m 306 497 b 165 313 265 431 218 367 b 240 497 185 361 211 429 z m 633 765 b 576 840 633 801 617 840 b 510 783 544 840 514 815 b 557 726 504 751 525 726 b 596 740 571 726 585 732 b 490 619 589 678 542 636 b 493 604 472 614 476 597 b 633 765 551 624 633 674 z "},"ź":{"ha":474,"x_min":0,"x_max":0,"o":"m 572 256 b 553 267 586 283 565 292 b 339 18 499 153 431 36 b 354 119 346 40 354 100 b 258 210 353 171 328 211 b 394 401 346 263 392 340 b 136 375 400 514 221 529 b 54 217 106 319 79 265 b 71 201 39 185 60 178 b 144 340 92 246 128 313 b 303 300 229 486 368 400 b 147 178 285 272 239 206 b 158 151 125 171 136 143 b 219 178 181 160 201 168 b 246 -15 300 192 267 51 b -242 -240 69 -71 -167 -128 b -83 -421 -315 -354 -225 -462 b 331 -17 117 -362 260 -211 b 572 256 449 7 508 126 z m 233 -50 b -126 -397 158 -247 -18 -374 b -111 -171 -272 -428 -233 -242 b 233 -50 -31 -122 110 -89 z m 596 697 b 583 735 603 711 597 728 b 503 718 556 749 525 735 b 332 592 481 700 338 603 b 336 574 328 586 329 578 b 596 697 346 569 585 674 z "},"ż":{"ha":474,"x_min":0,"x_max":0,"o":"m 572 256 b 553 267 586 283 565 292 b 339 18 499 153 431 36 b 354 119 346 40 354 100 b 258 210 353 171 328 211 b 394 401 346 263 392 340 b 136 375 400 514 221 529 b 54 217 106 319 79 265 b 71 201 39 185 60 178 b 144 340 92 246 128 313 b 303 300 229 486 368 400 b 147 178 285 272 239 206 b 158 151 125 171 136 143 b 219 178 181 160 201 168 b 246 -15 300 192 267 51 b -242 -240 69 -71 -167 -128 b -83 -421 -315 -354 -225 -462 b 331 -17 117 -362 260 -211 b 572 256 449 7 508 126 z m 233 -50 b -126 -397 158 -247 -18 -374 b -111 -171 -272 -428 -233 -242 b 233 -50 -31 -122 110 -89 z m 376 661 b 343 697 376 679 364 697 b 278 619 313 697 278 649 b 308 592 278 601 292 592 b 376 661 343 592 376 625 z "},"Ŕ":{"ha":1422,"x_min":0,"x_max":0,"o":"m 1428 207 b 1406 207 1440 235 1418 228 b 1282 14 1392 178 1344 76 b 1061 67 1189 -78 1125 -31 b 918 451 964 214 924 415 b 1036 463 946 453 986 456 b 1254 913 1444 531 1604 811 b 1126 938 1215 924 1172 929 b 1079 943 1139 978 1135 1004 b 588 938 929 964 767 963 b 138 603 301 896 150 739 b 497 463 118 385 367 326 b 547 567 524 490 542 526 b 531 569 549 582 533 601 b 482 486 529 553 514 521 b 204 603 371 368 168 428 b 571 883 226 713 351 838 b 1050 913 744 921 904 926 b 744 422 944 796 849 604 b 236 -44 607 179 464 -57 b 311 138 58 -36 106 217 b 319 154 333 131 343 144 b 204 -81 19 257 -69 -49 b 610 79 353 -100 496 -43 b 836 436 715 194 775 314 b 1024 -22 850 353 906 101 b 1296 -24 1107 -110 1217 -110 b 1428 207 1351 38 1411 169 z m 1238 881 b 1026 501 1490 804 1293 535 b 864 485 964 494 900 482 b 1111 906 938 635 1029 764 b 1238 881 1157 897 1200 890 z m 1396 1139 b 1383 1174 1401 1151 1397 1168 b 1310 1158 1358 1188 1329 1174 b 1150 1042 1289 1142 1156 1051 b 1154 1025 1147 1036 1149 1028 b 1396 1139 1164 1021 1385 1117 z "},"Ă":{"ha":989,"x_min":0,"x_max":0,"o":"m 1175 1165 b 1040 1092 1142 1122 1118 1092 b 944 1126 1000 1092 974 1099 b 910 1181 924 1147 924 1181 b 889 1118 896 1181 881 1167 b 1013 1044 897 1067 965 1044 b 1206 1164 1101 1044 1172 1090 b 1175 1165 1210 1178 1188 1181 z m 1135 819 b 910 982 1135 914 1050 982 b 268 668 656 982 432 846 b 153 749 221 689 182 717 b 125 849 122 781 108 811 b 101 874 139 879 117 893 b 114 729 74 853 76 769 b 244 640 146 693 192 665 b 125 -49 65 443 -71 35 b 696 267 322 -133 582 132 b 753 -89 633 185 599 -89 b 957 31 831 -89 910 -33 b 1086 253 1008 99 1061 197 b 1063 258 1101 286 1075 285 b 942 61 1032 189 985 117 b 738 125 832 -75 694 -110 b 876 451 763 261 803 371 b 801 488 951 532 883 635 b 476 99 732 361 619 219 b 142 303 221 -114 0 -51 b 326 603 192 426 286 567 b 729 565 449 564 581 553 b 1135 819 1033 592 1135 726 z m 1081 835 b 729 596 1081 708 946 614 b 347 628 563 582 449 596 b 914 949 493 800 669 949 b 1081 835 1010 949 1081 910 z "},"Ĺ":{"ha":1036,"x_min":0,"x_max":0,"o":"m 1271 892 b 779 590 1260 1017 993 1121 b 663 303 779 590 679 340 b 596 772 217 250 310 738 b 593 796 657 781 651 810 b 643 268 118 688 243 256 b 557 110 593 165 578 138 b 208 94 456 128 307 124 b 322 -192 -165 -18 32 -332 b 568 35 413 -149 496 -67 b 1071 -160 744 0 936 -40 b 1139 -431 1165 -242 1161 -382 b 1157 -472 1128 -454 1097 -504 b 1192 -435 1168 -467 1181 -456 b 1065 -110 1226 -376 1197 -212 b 610 97 936 -10 746 64 b 701 274 689 243 661 192 b 1271 892 997 324 1296 619 z m 1214 863 b 721 311 1215 613 971 367 b 840 544 778 429 840 544 b 1214 863 1051 953 1213 953 z m 514 43 b 300 -153 447 -51 375 -117 b 225 38 46 -275 -111 -49 b 514 43 315 61 422 63 z m 1413 1138 b 1400 1174 1419 1151 1414 1168 b 1321 1158 1374 1188 1343 1174 b 1153 1035 1299 1140 1158 1046 b 1157 1018 1149 1029 1150 1022 b 1413 1138 1167 1014 1401 1115 z "},"Ć":{"ha":986,"x_min":0,"x_max":0,"o":"m 1083 254 b 1067 268 1097 282 1078 292 b 839 -12 1008 149 960 58 b 374 -71 701 -94 522 -115 b 300 704 13 40 251 654 b 636 521 371 588 494 536 b 858 1024 1194 456 1388 976 b 294 826 644 1043 440 976 b 283 1032 281 885 268 964 b 257 1038 290 1063 263 1056 b 263 789 229 957 240 856 b 319 -97 74 600 -29 50 b 860 -35 521 -183 718 -132 b 1083 254 978 49 1024 132 z m 871 983 b 657 546 1267 938 1146 503 b 326 739 508 560 388 614 b 871 983 461 903 668 1007 z m 1113 1144 b 1103 1175 1118 1156 1114 1169 b 1036 1163 1079 1188 1054 1175 b 896 1058 1018 1147 900 1067 b 899 1043 892 1053 893 1046 b 1113 1144 907 1039 1104 1125 z "},"Č":{"ha":986,"x_min":0,"x_max":0,"o":"m 840 1171 l 890 1024 b 943 1024 892 1017 943 1024 l 1150 1171 b 1115 1171 1161 1179 1129 1183 b 932 1072 1097 1161 932 1072 l 868 1171 b 840 1171 863 1181 835 1183 z m 1083 254 b 1067 268 1097 282 1078 292 b 839 -12 1008 149 960 58 b 374 -71 701 -94 522 -115 b 286 664 13 40 238 614 b 622 481 357 547 481 496 b 844 983 1181 415 1374 936 b 281 786 631 1003 426 936 b 269 992 267 844 254 924 b 243 997 276 1022 249 1015 b 249 749 215 917 226 815 b 319 -97 60 560 -29 50 b 860 -35 521 -183 718 -132 b 1083 254 978 49 1024 132 z m 857 943 b 643 506 1253 897 1132 463 b 313 699 494 519 374 574 b 857 943 447 863 654 967 z "},"Ę":{"ha":1217,"x_min":0,"x_max":0,"o":"m 1101 357 b 1072 339 1056 379 1008 354 b 996 143 1149 321 1099 224 b 456 -46 876 50 669 -46 b 376 501 -22 -46 86 421 b 742 544 553 551 725 489 b 450 792 763 643 413 574 b 988 1081 482 969 771 1101 b 960 793 1242 1054 1088 807 b 964 768 897 786 885 750 b 993 1114 1244 831 1317 1076 b 344 757 772 1139 365 996 b 511 583 338 675 433 611 b 371 560 467 582 418 574 b 450 -76 -83 424 -110 -76 l 468 -76 b 272 -325 393 -126 274 -250 b 335 -387 271 -367 300 -387 b 467 -310 406 -387 461 -337 b 453 -304 469 -297 457 -301 b 382 -346 435 -322 407 -346 b 342 -300 350 -346 342 -325 b 506 -75 344 -236 432 -133 b 1053 106 717 -64 926 6 b 1101 357 1175 201 1203 306 z "},"Ě":{"ha":1217,"x_min":0,"x_max":0,"o":"m 1100 267 b 1071 249 1054 289 1007 264 b 994 53 1147 231 1097 133 b 454 -136 875 -40 668 -136 b 375 411 -24 -136 85 331 b 740 454 551 461 724 399 b 449 701 761 553 411 483 b 976 976 481 879 760 997 b 949 689 1231 950 1076 703 b 953 664 886 682 874 646 b 982 1010 1233 726 1306 972 b 343 667 761 1035 364 906 b 510 493 336 585 432 521 b 369 469 465 492 417 483 b 449 -167 -85 333 -111 -167 b 1051 15 678 -167 914 -93 b 1100 267 1174 111 1201 215 z m 918 1167 l 964 1053 b 1011 1053 965 1047 1011 1053 l 1200 1167 b 1168 1167 1210 1172 1181 1176 b 1001 1090 1151 1158 1001 1090 l 943 1167 b 918 1167 939 1174 914 1176 z "},"Ď":{"ha":1426,"x_min":0,"x_max":0,"o":"m 1421 301 b 1136 854 1447 546 1325 738 b 1258 986 1153 882 1221 986 b 1258 1003 1268 986 1276 999 b 1076 886 1219 1010 1147 963 b 588 963 932 956 758 986 b 250 435 15 886 7 514 b 543 594 372 396 524 467 b 515 606 547 618 517 618 b 264 465 513 561 428 418 b 560 918 58 525 175 842 b 1038 846 732 951 901 921 b 510 88 819 621 715 269 b 299 182 465 110 351 164 b 174 -51 -14 282 -110 -21 b 521 42 307 -67 419 -35 b 1421 301 801 -106 1378 -107 z m 1333 299 b 554 64 1294 -31 822 -83 b 607 111 572 78 589 93 b 1103 804 760 263 940 568 b 1333 299 1260 690 1357 510 z m 474 61 b 208 -15 397 10 308 -19 b 264 149 39 -7 63 213 b 474 61 347 122 407 92 z m 1118 1172 l 1168 1036 b 1221 1036 1169 1029 1221 1036 l 1428 1172 b 1393 1172 1439 1181 1407 1183 b 1210 1081 1375 1164 1210 1081 l 1146 1172 b 1118 1172 1140 1181 1113 1183 z "},"Đ":{"ha":1426,"x_min":0,"x_max":0,"o":"m 1421 332 b 1136 929 1447 596 1325 804 b 1258 1072 1153 960 1221 1072 b 1258 1090 1268 1072 1276 1086 b 1076 964 1219 1099 1147 1047 b 588 1047 932 1040 758 1072 b 250 476 15 964 7 561 b 543 649 372 433 524 511 b 515 661 547 675 517 675 b 264 510 513 613 428 458 b 560 999 58 574 175 917 b 1038 921 732 1035 901 1003 b 742 442 915 785 829 607 b 599 443 678 443 633 443 b 599 376 558 443 579 374 l 713 389 b 510 100 651 278 588 175 b 299 203 465 124 351 183 b 174 -50 -14 311 -110 -17 b 521 50 307 -67 419 -32 b 1421 332 801 -108 1378 -110 z m 1333 329 b 554 75 1294 -28 822 -85 b 607 125 572 90 589 106 b 807 397 669 193 738 289 b 910 400 839 399 874 400 b 904 438 947 400 936 436 b 835 439 879 438 856 439 b 1103 876 924 582 1015 740 b 1333 329 1260 753 1357 557 z m 474 72 b 208 -11 397 17 308 -15 b 264 167 39 -3 63 236 b 474 72 347 138 407 104 z "},"Ń":{"ha":1443,"x_min":0,"x_max":0,"o":"m 1565 853 b 1300 940 1568 993 1421 997 b 994 672 1200 894 1090 789 b 824 440 929 594 871 513 b 817 454 799 403 750 308 b 925 754 861 551 913 656 b 422 936 963 1072 635 1053 b 68 576 274 856 131 725 b 263 149 -40 314 100 149 b 467 561 604 149 772 635 b 469 540 454 558 443 538 b 267 174 699 571 538 174 b 436 881 11 174 56 644 b 840 706 657 1018 915 1044 b 514 -62 779 432 578 31 b 621 -56 504 -104 600 -101 b 1019 651 706 121 838 431 b 1306 886 1111 761 1211 840 b 1463 839 1396 929 1479 929 b 1160 138 1443 706 1206 271 b 1318 -197 1090 -72 1142 -189 b 1346 -147 1411 -200 1435 -107 b 1271 199 1197 -217 1154 -57 b 1565 853 1399 478 1563 699 z m 1571 1139 b 1560 1174 1578 1153 1572 1168 b 1485 1158 1535 1188 1506 1174 b 1326 1042 1464 1142 1332 1051 b 1331 1025 1322 1036 1324 1029 b 1571 1139 1339 1021 1561 1118 z "},"Ň":{"ha":1443,"x_min":0,"x_max":0,"o":"m 1335 1165 l 1385 1018 b 1438 1018 1386 1011 1438 1018 l 1644 1165 b 1610 1165 1656 1174 1624 1178 b 1426 1067 1592 1156 1426 1067 l 1363 1165 b 1335 1165 1357 1175 1329 1178 z m 1565 853 b 1300 940 1568 993 1421 997 b 994 672 1200 894 1090 789 b 824 440 929 594 871 513 b 817 454 799 403 750 308 b 925 754 861 551 913 656 b 422 936 963 1072 635 1053 b 68 576 274 856 131 725 b 263 149 -40 314 100 149 b 467 561 604 149 772 635 b 469 540 454 558 443 538 b 267 174 699 571 538 174 b 436 881 11 174 56 644 b 840 706 657 1018 915 1044 b 514 -62 779 432 578 31 b 621 -56 504 -104 600 -101 b 1019 651 706 121 838 431 b 1306 886 1111 761 1211 840 b 1463 839 1396 929 1479 929 b 1160 138 1443 706 1206 271 b 1318 -197 1090 -72 1142 -189 b 1346 -147 1411 -200 1435 -107 b 1271 199 1197 -217 1154 -57 b 1565 853 1399 478 1563 699 z "},"Ő":{"ha":1071,"x_min":0,"x_max":0,"o":"m 882 1168 b 856 1179 878 1178 867 1182 b 822 1138 835 1174 826 1154 b 800 1007 822 1119 796 1014 b 811 1000 801 1003 806 999 b 882 1168 818 1004 889 1153 z m 1235 689 b 1214 704 1256 722 1224 724 b 1033 529 1179 636 1108 579 b 50 564 1061 1215 -4 1097 b 157 389 57 488 97 429 b 300 -137 63 147 142 -86 b 996 332 594 -233 910 69 b 1028 481 1013 385 1024 433 b 1235 689 1115 536 1183 608 z m 949 485 b 253 399 722 363 417 318 b 703 796 311 529 529 850 b 714 815 721 790 735 804 b 182 446 504 933 258 607 b 126 551 151 472 132 508 b 949 485 53 1047 1014 1218 z m 940 436 b 915 338 936 404 926 369 b 304 -93 819 65 547 -212 b 232 350 169 -26 165 175 b 940 436 415 276 711 314 z m 1014 1136 b 988 1147 1010 1146 999 1150 b 954 1106 967 1142 958 1122 b 932 975 954 1088 928 982 b 943 968 933 971 938 967 b 1014 1136 950 972 1021 1121 z "},"Ř":{"ha":1422,"x_min":0,"x_max":0,"o":"m 1183 1171 l 1233 1024 b 1286 1024 1235 1017 1286 1024 l 1493 1171 b 1458 1171 1504 1179 1472 1183 b 1275 1072 1440 1161 1275 1072 l 1211 1171 b 1183 1171 1206 1181 1178 1183 z m 1428 207 b 1406 207 1440 235 1418 228 b 1282 14 1392 178 1344 76 b 1061 67 1189 -78 1125 -31 b 918 451 964 214 924 415 b 1036 463 946 453 986 456 b 1254 913 1444 531 1604 811 b 1126 938 1215 924 1172 929 b 1079 943 1139 978 1135 1004 b 588 938 929 964 767 963 b 138 603 301 896 150 739 b 497 463 118 385 367 326 b 547 567 524 490 542 526 b 531 569 549 582 533 601 b 482 486 529 553 514 521 b 204 603 371 368 168 428 b 571 883 226 713 351 838 b 1050 913 744 921 904 926 b 744 422 944 796 849 604 b 236 -44 607 179 464 -57 b 311 138 58 -36 106 217 b 319 154 333 131 343 144 b 204 -81 19 257 -69 -49 b 610 79 353 -100 496 -43 b 836 436 715 194 775 314 b 1024 -22 850 353 906 101 b 1296 -24 1107 -110 1217 -110 b 1428 207 1351 38 1411 169 z m 1238 881 b 1026 501 1490 804 1293 535 b 864 485 964 494 900 482 b 1111 906 938 635 1029 764 b 1238 881 1157 897 1200 890 z "},"Ů":{"ha":1308,"x_min":0,"x_max":0,"o":"m 1369 679 b 1292 606 1353 679 1322 660 b 1058 172 1235 503 1151 307 b 749 72 906 -49 764 -72 b 996 811 728 275 946 592 b 879 1153 1031 964 1015 1094 b 426 1092 756 1207 585 1179 b 388 226 -250 722 -28 50 b 453 692 694 356 739 813 b 460 668 442 688 388 651 b 389 258 725 728 579 329 b 424 1046 3 114 -132 721 b 886 1108 582 1138 772 1178 b 914 817 953 1068 947 950 b 669 72 863 615 639 260 b 1079 133 699 -106 894 -104 b 1164 258 1114 178 1143 224 b 1246 -108 1140 139 1115 -85 b 1256 -76 1289 -115 1322 -71 b 1236 239 1179 -81 1196 89 b 1319 464 1263 338 1301 425 b 1369 679 1357 549 1438 646 z m 1215 1097 b 1263 1150 1218 1126 1239 1149 b 1301 1100 1286 1151 1304 1129 b 1254 1046 1299 1071 1279 1046 b 1215 1097 1231 1046 1214 1068 z m 1167 1094 b 1250 1022 1161 1054 1199 1021 b 1351 1100 1301 1024 1346 1058 b 1268 1172 1356 1140 1319 1174 b 1167 1094 1218 1169 1171 1136 z "},"Ű":{"ha":1308,"x_min":0,"x_max":0,"o":"m 1369 679 b 1292 606 1353 679 1322 660 b 1058 172 1235 503 1151 307 b 749 72 906 -49 764 -72 b 996 811 728 275 946 592 b 879 1153 1031 964 1015 1094 b 426 1092 756 1207 585 1179 b 388 226 -250 722 -28 50 b 453 692 694 356 739 813 b 460 668 442 688 388 651 b 389 258 725 728 579 329 b 424 1046 3 114 -132 721 b 886 1108 582 1138 772 1178 b 914 817 953 1068 947 950 b 669 72 863 615 639 260 b 1079 133 699 -106 894 -104 b 1164 258 1114 178 1143 224 b 1246 -108 1140 139 1115 -85 b 1256 -76 1289 -115 1322 -71 b 1236 239 1179 -81 1196 89 b 1319 464 1263 338 1301 425 b 1369 679 1357 549 1438 646 z m 1225 1160 b 1193 1174 1219 1171 1206 1176 b 1153 1122 1167 1167 1157 1143 b 1125 965 1151 1101 1121 974 b 1139 957 1126 960 1132 956 b 1225 1160 1147 961 1232 1142 z m 1388 1160 b 1356 1174 1382 1171 1369 1176 b 1317 1122 1329 1167 1319 1143 b 1288 965 1314 1101 1283 974 b 1301 957 1289 960 1294 956 b 1388 1160 1310 961 1394 1142 z "},"Ţ":{"ha":1511,"x_min":0,"x_max":0,"o":"m 1944 847 b 1931 876 1944 854 1940 876 b 1915 856 1918 876 1915 868 b 1458 893 1915 761 1578 854 b 1531 949 1476 911 1518 958 b 1521 989 1576 935 1565 1003 b 1419 904 1489 986 1432 919 b 967 1025 1331 929 1133 1011 b 624 463 446 1072 340 561 b 931 646 754 418 913 497 b 903 657 931 664 917 669 l 903 654 b 638 497 908 615 808 443 b 976 954 419 567 579 974 b 1397 878 1125 947 1251 924 b 989 128 1339 800 1157 310 b 517 -81 883 13 735 -75 b 96 353 303 -85 46 68 b 239 544 118 485 217 517 b 68 417 247 603 110 546 b 1056 61 -119 -176 761 -274 b 1438 864 1260 294 1271 599 b 1788 775 1467 851 1582 801 b 1944 847 1875 764 1944 794 z m 471 -274 b 415 -214 471 -242 453 -214 b 356 -265 388 -214 360 -236 b 399 -317 351 -293 369 -317 b 433 -304 411 -317 424 -311 b 339 -412 428 -360 385 -397 b 340 -426 322 -417 326 -432 b 471 -274 393 -408 471 -356 z "},"ŕ":{"ha":361,"x_min":0,"x_max":0,"o":"m 458 254 b 442 268 472 282 454 292 b 269 36 413 208 326 35 b 349 338 186 40 328 294 b 378 444 365 372 388 425 b 186 439 310 438 238 436 b 263 532 210 456 254 493 b 178 582 282 625 192 660 b -36 72 150 426 74 217 b -25 54 -44 60 -36 44 b 143 361 43 119 110 274 l 160 406 b 267 340 238 404 286 386 b 181 176 251 306 201 233 b 257 1 125 32 210 -10 b 458 254 347 24 418 171 z m 538 818 b 525 856 544 832 539 849 b 444 839 497 869 467 856 b 274 713 422 821 279 724 b 278 694 269 707 271 699 b 538 818 288 690 526 794 z "},"ă":{"ha":486,"x_min":0,"x_max":0,"o":"m 585 256 b 565 267 599 283 578 292 b 386 33 536 207 444 31 b 372 117 368 33 361 60 b 501 376 390 201 472 347 b 443 382 482 372 461 381 b 349 293 399 385 379 351 b 225 99 313 225 274 157 b 97 107 160 21 83 10 b 154 247 106 160 143 228 b 339 446 204 329 276 411 b 457 411 390 474 442 463 b 472 451 481 407 492 431 b 150 388 393 538 233 486 b 206 46 -60 136 46 -107 b 306 176 246 85 283 140 b 375 -3 264 31 329 -6 b 585 256 458 4 543 171 z m 610 732 b 475 658 576 689 553 658 b 379 693 435 658 408 665 b 344 747 358 714 358 747 b 324 685 331 747 315 733 b 447 611 332 633 400 611 b 640 731 536 611 607 657 b 610 732 644 744 622 747 z "},"ĺ":{"ha":294,"x_min":0,"x_max":0,"o":"m 440 685 b 292 761 540 907 390 926 b 81 271 211 626 124 426 b 146 -3 57 188 -10 -3 b 393 258 286 -3 358 185 b 372 265 406 286 385 289 b 269 89 354 229 315 154 b 126 176 196 -14 85 10 b 156 268 135 211 149 244 b 440 685 292 392 376 542 z m 419 706 b 167 313 365 576 265 413 b 386 768 210 424 318 672 b 419 706 461 875 447 769 z m 683 1094 b 671 1132 690 1108 685 1125 b 590 1115 643 1146 613 1132 b 419 989 568 1097 425 1000 b 424 971 415 983 417 975 b 683 1094 433 967 672 1071 z "},"ć":{"ha":361,"x_min":0,"x_max":0,"o":"m 469 254 b 450 264 482 282 463 289 b 207 19 394 154 328 19 b 125 126 147 19 125 71 b 201 339 125 207 176 303 b 350 458 240 394 300 458 b 378 390 376 458 390 439 b 335 319 371 365 350 338 b 428 393 365 289 422 347 b 332 489 435 450 401 489 b 146 379 265 489 197 449 b 193 -6 46 244 -26 -6 b 469 254 346 -6 401 110 z m 596 706 b 583 743 603 719 597 736 b 503 726 556 757 525 743 b 332 600 481 708 338 611 b 336 582 328 594 329 586 b 596 706 346 578 585 682 z "},"č":{"ha":361,"x_min":0,"x_max":0,"o":"m 469 254 b 450 264 482 282 463 289 b 207 19 394 154 328 19 b 125 126 147 19 125 71 b 201 339 125 207 176 303 b 350 458 240 394 300 458 b 378 390 376 458 390 439 b 335 319 371 365 350 338 b 428 393 365 289 422 347 b 332 489 435 450 401 489 b 146 379 265 489 197 449 b 193 -6 46 244 -26 -6 b 469 254 346 -6 401 110 z m 321 775 l 371 628 b 424 628 372 621 424 628 l 631 775 b 596 775 642 783 610 788 b 413 676 578 765 413 676 l 349 775 b 321 775 343 785 315 788 z "},"ę":{"ha":342,"x_min":0,"x_max":0,"o":"m 442 260 b 417 261 456 289 428 286 b 188 24 385 188 310 24 b 140 214 96 24 119 164 b 311 275 178 214 268 243 b 388 478 400 343 440 438 b 150 388 326 524 221 471 b 43 128 89 315 42 211 b 176 -6 44 40 107 -6 b 208 -3 188 -6 199 -4 b 58 -217 139 -62 60 -156 b 121 -279 57 -258 86 -279 b 253 -201 192 -279 247 -229 b 239 -196 256 -189 243 -193 b 168 -237 221 -214 193 -237 b 128 -192 136 -237 128 -217 b 275 19 131 -132 206 -39 b 442 260 360 68 403 176 z m 297 299 b 150 238 247 257 175 238 b 233 368 163 263 197 324 b 297 299 404 575 411 394 z "},"ě":{"ha":342,"x_min":0,"x_max":0,"o":"m 442 260 b 417 261 456 289 428 286 b 188 24 385 188 310 24 b 140 214 96 24 119 164 b 311 275 178 214 268 243 b 388 478 400 343 440 438 b 150 388 326 524 221 471 b 43 128 89 315 42 211 b 176 -6 44 40 107 -6 b 442 260 331 -6 390 149 z m 297 299 b 150 238 247 257 175 238 b 233 368 163 263 197 324 b 297 299 404 575 411 394 z m 294 746 l 344 599 b 397 599 346 592 397 599 l 604 746 b 569 746 615 754 583 758 b 386 647 551 736 386 647 l 322 746 b 294 746 317 756 289 758 z "},"ď":{"ha":910,"x_min":0,"x_max":0,"o":"m 767 864 b 707 869 746 861 725 868 b 613 797 663 874 639 860 b 451 468 579 722 518 594 b 153 388 351 526 231 478 b 106 6 51 265 -25 42 b 308 160 201 -19 267 92 b 321 38 294 103 306 61 b 383 0 339 11 361 0 b 608 258 494 0 575 181 b 588 267 621 286 599 292 b 408 36 558 208 478 36 b 400 185 343 36 386 153 b 767 864 481 376 725 825 z m 440 446 b 254 132 375 324 306 204 b 144 224 136 -35 53 51 b 440 446 218 360 371 514 z m 921 796 b 864 871 921 832 904 871 b 797 814 832 871 801 846 b 844 757 792 782 813 757 b 883 771 858 757 872 763 b 778 650 876 708 829 667 b 781 635 760 644 764 628 b 921 796 839 654 921 704 z "},"đ":{"ha":510,"x_min":0,"x_max":0,"o":"m 767 660 b 761 697 804 660 793 696 b 663 700 725 697 692 699 b 767 864 711 786 751 850 b 707 869 746 861 725 868 b 613 797 663 874 639 860 l 568 701 b 456 703 521 703 483 703 b 456 636 415 703 436 633 l 542 646 b 451 468 514 590 483 529 b 153 388 351 526 231 478 b 106 6 51 265 -25 42 b 308 160 201 -19 267 92 b 321 38 294 103 306 61 b 383 0 339 11 361 0 b 608 258 494 0 575 181 b 588 267 621 286 599 292 b 408 36 558 208 478 36 b 400 185 343 36 386 153 b 638 656 447 297 551 500 b 767 660 678 658 719 660 z m 440 446 b 254 132 375 324 306 204 b 144 224 136 -35 53 51 b 440 446 218 360 371 514 z "},"ń":{"ha":465,"x_min":0,"x_max":0,"o":"m 564 256 b 544 268 578 283 556 293 b 354 28 515 210 426 28 b 332 97 336 28 321 40 b 499 456 350 194 499 456 b 242 325 451 472 308 385 b 126 200 199 288 154 235 b 294 461 176 300 253 439 b 236 467 275 457 254 465 b 138 379 192 469 174 446 b -54 -10 69 254 13 122 b -7 -1 -40 -1 -28 -3 b 46 19 22 -1 35 0 b 239 294 124 174 192 251 b 338 303 346 394 371 357 b 261 157 299 240 272 193 b 335 -6 219 28 286 -6 b 564 256 442 -6 522 171 z m 625 697 b 613 735 632 711 626 728 b 532 718 585 749 554 735 b 361 592 510 700 367 603 b 365 574 357 586 358 578 b 625 697 375 569 614 674 z "},"ň":{"ha":465,"x_min":0,"x_max":0,"o":"m 564 256 b 544 268 578 283 556 293 b 354 28 515 210 426 28 b 332 97 336 28 321 40 b 499 456 350 194 499 456 b 242 325 451 472 308 385 b 126 200 199 288 154 235 b 294 461 176 300 253 439 b 236 467 275 457 254 465 b 138 379 192 469 174 446 b -54 -10 69 254 13 122 b -7 -1 -40 -1 -28 -3 b 46 19 22 -1 35 0 b 239 294 124 174 192 251 b 338 303 346 394 371 357 b 261 157 299 240 272 193 b 335 -6 219 28 286 -6 b 564 256 442 -6 522 171 z m 342 746 l 392 599 b 444 599 393 592 444 599 l 651 746 b 617 746 663 754 631 758 b 433 647 599 736 433 647 l 369 746 b 342 746 364 756 336 758 z "},"ő":{"ha":465,"x_min":0,"x_max":0,"o":"m 567 261 b 546 274 576 282 553 288 b 351 35 513 207 440 35 b 286 69 318 35 297 49 b 403 233 339 119 382 185 b 335 486 456 357 440 485 b 71 253 240 489 125 381 b 139 0 18 129 33 3 b 260 47 179 -1 221 18 b 349 11 278 26 307 11 b 567 261 465 11 543 208 z m 364 440 b 353 213 414 425 407 326 b 310 138 340 186 325 160 b 313 153 311 143 313 147 b 271 194 313 175 294 194 b 222 135 236 194 224 167 b 244 67 222 114 229 89 b 150 32 211 39 176 25 b 167 258 100 47 113 144 b 364 440 218 368 304 457 z m 376 782 b 344 796 371 793 357 799 b 304 744 318 789 308 765 b 276 588 303 724 272 596 b 290 579 278 582 283 578 b 376 782 299 583 383 764 z m 539 782 b 507 796 533 793 521 799 b 468 744 481 789 471 765 b 439 588 465 724 435 596 b 453 579 440 582 446 578 b 539 782 461 583 546 764 z "},"ř":{"ha":361,"x_min":0,"x_max":0,"o":"m 458 254 b 442 268 472 282 454 292 b 269 36 413 208 326 35 b 349 338 186 40 328 294 b 378 444 365 372 388 425 b 186 439 310 438 238 436 b 263 532 210 456 254 493 b 178 582 282 625 192 660 b -36 72 150 426 74 217 b -25 54 -44 60 -36 44 b 143 361 43 119 110 274 l 160 406 b 267 340 238 404 286 386 b 181 176 251 306 201 233 b 257 1 125 32 210 -10 b 458 254 347 24 418 171 z m 279 874 l 329 726 b 382 726 331 719 382 726 l 589 874 b 554 874 600 882 568 886 b 371 775 536 864 371 775 l 307 874 b 279 874 301 883 274 886 z "},"ů":{"ha":496,"x_min":0,"x_max":0,"o":"m 594 256 b 575 268 608 283 586 293 b 390 36 528 168 458 36 b 364 119 371 38 351 60 b 457 340 372 167 418 263 b 553 478 499 426 513 446 l 478 478 b 424 449 451 478 435 471 b 217 86 371 339 294 176 b 135 182 126 -18 68 38 b 222 361 160 235 222 361 b 311 478 260 438 279 454 l 226 478 b 172 449 200 478 183 471 b 94 296 151 406 122 349 l 69 247 b 82 225 61 229 74 225 b 35 64 57 175 22 124 b 122 1 46 11 94 1 b 310 179 190 1 263 96 b 374 1 274 67 311 1 b 594 256 475 1 550 161 z m 342 671 b 425 599 336 631 374 597 b 526 676 476 600 521 635 b 443 749 531 717 494 750 b 342 671 393 746 346 713 z m 390 674 b 438 726 393 703 414 725 b 476 676 461 728 479 706 b 429 622 474 647 454 622 b 390 674 406 622 389 644 z "},"ű":{"ha":496,"x_min":0,"x_max":0,"o":"m 594 256 b 575 268 608 283 586 293 b 390 36 528 168 458 36 b 364 119 371 38 351 60 b 457 340 372 167 418 263 b 553 478 499 426 513 446 l 478 478 b 424 449 451 478 435 471 b 217 86 371 339 294 176 b 135 182 126 -18 68 38 b 222 361 160 235 222 361 b 311 478 260 438 279 454 l 226 478 b 172 449 200 478 183 471 b 94 296 151 406 122 349 l 69 247 b 82 225 61 229 74 225 b 35 64 57 175 22 124 b 122 1 46 11 94 1 b 310 179 190 1 263 96 b 374 1 274 67 311 1 b 594 256 475 1 550 161 z m 414 778 b 382 792 408 789 394 794 b 342 740 356 785 346 761 b 314 583 340 719 310 592 b 328 575 315 578 321 574 b 414 778 336 579 421 760 z m 576 778 b 544 792 571 789 558 794 b 506 740 518 785 508 761 b 476 583 503 719 472 592 b 490 575 478 578 483 574 b 576 778 499 579 583 760 z "},"ţ":{"ha":278,"x_min":0,"x_max":0,"o":"m 421 528 l 354 528 b 414 647 375 567 394 606 b 271 725 517 869 367 893 b 169 528 236 665 201 597 l 86 528 b 83 497 71 528 68 497 l 156 497 b 47 143 111 389 60 238 b 239 39 26 -10 164 -33 b 375 256 290 90 314 128 b 357 264 389 283 368 289 b 210 54 319 189 274 101 b 121 126 164 21 100 33 b 153 268 121 126 140 232 b 338 497 235 343 290 417 l 418 497 b 421 528 432 497 435 528 z m 393 669 b 324 528 374 624 350 575 l 254 528 b 353 731 289 607 319 683 b 393 669 439 851 419 728 z m 306 497 b 165 313 265 431 218 367 b 240 497 185 361 211 429 z m 154 -124 b 99 -64 154 -92 136 -64 b 39 -115 71 -64 43 -86 b 82 -167 35 -143 53 -167 b 117 -154 94 -167 107 -161 b 22 -262 111 -210 68 -247 b 24 -276 6 -267 10 -282 b 154 -124 76 -258 154 -206 z "},"Ħ":{"ha":1918,"x_min":0,"x_max":0,"o":"m 2115 1042 b 2050 1040 2167 1068 2104 1060 b 1872 789 1997 1022 1929 908 l 1378 789 b 1456 969 1406 861 1435 929 b 1619 1072 1511 969 1619 1007 b 1540 1111 1619 1111 1581 1122 b 1433 1000 1496 1097 1443 1017 b 619 658 1163 974 707 1010 b 897 383 574 476 731 322 b 1036 667 997 419 1089 551 b 1018 657 1026 688 1003 679 b 896 410 1036 631 999 447 b 714 636 756 358 667 485 b 1414 967 814 957 1142 936 b 1329 789 1399 938 1367 871 l 1042 789 l 1028 733 l 1303 733 b 1211 517 1271 663 1239 586 l 1157 517 b 1071 464 1121 513 1083 485 b 1108 449 1050 428 1093 442 b 1192 471 1135 461 1163 471 b 529 -139 1100 229 918 -51 b 36 194 335 -182 -3 -108 b 178 414 51 310 132 394 b 175 433 192 419 204 433 b 6 257 131 432 29 347 b 543 -232 -85 -90 226 -272 b 1264 468 901 -186 1156 146 b 1735 450 1390 463 1672 450 b 1689 -46 1701 354 1563 19 b 1846 -8 1738 -71 1797 -56 b 2015 253 1908 53 1943 100 b 1994 263 2031 286 2010 293 b 1821 11 1950 172 1892 64 b 1743 11 1790 -11 1761 -8 b 1815 450 1682 78 1790 368 b 1950 488 1856 453 1914 463 b 1939 504 1974 504 1965 514 b 1828 494 1917 496 1856 494 b 1925 733 1858 583 1892 663 l 2161 733 l 2174 789 l 1951 789 b 2115 1042 2029 940 2097 1032 z m 1747 493 b 1276 517 1650 493 1463 517 l 1357 733 l 1846 733 b 1747 493 1796 622 1756 518 z m 1554 1071 b 1481 1004 1571 1071 1599 1022 b 1554 1071 1500 1029 1540 1078 z "},"Ĥ":{"ha":1918,"x_min":0,"x_max":0,"o":"m 2115 1042 b 2050 1040 2167 1068 2104 1060 b 1747 493 1940 1003 1768 551 b 1276 517 1650 493 1463 517 b 1456 969 1300 576 1403 867 b 1619 1072 1511 969 1619 1007 b 1540 1111 1619 1111 1581 1122 b 1433 1000 1496 1097 1443 1017 b 619 658 1163 974 707 1010 b 897 383 574 476 731 322 b 1036 667 997 419 1089 551 b 1018 657 1026 688 1003 679 b 896 410 1036 631 999 447 b 714 636 756 358 667 485 b 1414 967 814 957 1142 936 b 1211 517 1385 908 1281 690 l 1157 517 b 1071 464 1121 513 1083 485 b 1108 449 1050 428 1093 442 b 1192 471 1135 461 1163 471 b 529 -139 1100 229 918 -51 b 36 194 335 -182 -3 -108 b 178 414 51 310 132 394 b 175 433 192 419 204 433 b 6 257 131 432 29 347 b 543 -232 -85 -90 226 -272 b 1264 468 901 -186 1156 146 b 1735 450 1390 463 1672 450 b 1689 -46 1701 354 1563 19 b 1846 -8 1738 -71 1797 -56 b 2015 253 1908 53 1943 100 b 1994 263 2031 286 2010 293 b 1821 11 1950 172 1892 64 b 1743 11 1790 -11 1761 -8 b 1815 450 1682 78 1790 368 b 1950 488 1856 453 1914 463 b 1939 504 1974 504 1965 514 b 1828 494 1917 496 1856 494 b 2115 1042 1939 818 2089 1028 z m 1949 1064 l 1911 1178 b 1869 1178 1910 1183 1869 1178 l 1710 1064 b 1738 1064 1701 1058 1726 1054 b 1878 1140 1751 1072 1878 1140 l 1928 1064 b 1949 1064 1932 1057 1953 1054 z m 1554 1071 b 1481 1004 1571 1071 1599 1022 b 1554 1071 1500 1029 1540 1078 z "},"İ":{"ha":1290,"x_min":0,"x_max":0,"o":"m 1661 983 b 1582 1017 1660 1021 1624 1029 b 1475 903 1538 1001 1486 925 b 683 425 1213 858 756 753 b 940 214 647 261 793 157 b 1085 501 1054 257 1139 397 b 1056 489 1074 526 1050 496 b 939 246 1078 468 1085 304 b 776 425 819 200 746 292 b 1453 867 843 725 1203 813 b 1244 418 1424 817 1326 636 b 540 -293 1169 217 944 -192 b 29 57 318 -349 -44 -246 b 197 281 58 172 149 260 b 196 300 211 288 225 301 b 6 118 151 297 40 210 b 567 -337 -125 -229 175 -403 b 1115 3 768 -304 963 -193 b 1496 874 1336 286 1326 563 b 1554 886 1508 874 1538 886 b 1661 983 1607 904 1663 926 z m 1594 978 b 1519 908 1611 978 1642 933 b 1594 978 1540 935 1581 983 z m 1574 1144 b 1540 1181 1574 1163 1561 1181 b 1475 1103 1510 1181 1475 1132 b 1506 1075 1475 1085 1489 1075 b 1574 1144 1540 1075 1574 1108 z "},"Ş":{"ha":1251,"x_min":0,"x_max":0,"o":"m 628 -281 b 463 -175 628 -201 525 -175 b 408 -179 444 -175 426 -176 b 469 -131 407 -171 461 -137 l 467 -126 b 926 -18 628 -132 800 -93 b 1064 558 1161 122 1347 383 b 736 722 961 622 821 671 b 811 1053 549 838 646 993 b 1164 847 1258 1213 1338 868 b 1157 819 1118 842 1119 810 b 1250 864 1197 831 1228 846 b 1204 1097 1336 935 1303 1049 b 758 1090 1104 1147 897 1139 b 636 675 556 1018 429 813 b 1013 486 740 606 926 556 b 849 -11 1181 350 1082 111 b 75 225 571 -156 72 -119 b 153 485 76 314 103 407 b 249 589 178 525 211 560 b 235 610 294 624 254 618 b -3 225 99 546 -10 357 b 447 -125 11 -3 217 -111 b 351 -200 422 -143 358 -192 b 346 -212 347 -204 346 -207 b 372 -233 346 -225 360 -233 b 472 -200 386 -233 419 -200 b 576 -279 519 -200 576 -225 b 557 -336 576 -299 568 -319 b 424 -386 532 -375 467 -386 b 304 -351 389 -386 329 -378 b 283 -336 299 -346 292 -336 b 275 -346 278 -336 275 -340 b 450 -410 275 -394 415 -410 b 556 -386 483 -410 526 -406 b 628 -281 590 -362 628 -325 z "},"Ğ":{"ha":1008,"x_min":0,"x_max":0,"o":"m 1053 1168 b 944 1110 1026 1133 1007 1110 b 868 1138 913 1110 892 1115 b 840 1181 851 1154 851 1181 b 824 1131 829 1181 817 1169 b 922 1071 831 1089 885 1071 b 1078 1167 994 1071 1050 1108 b 1053 1168 1081 1178 1063 1181 z m 1081 -192 b 776 -156 997 -171 900 -157 b 965 303 878 11 946 149 b 800 240 975 374 881 429 b 325 60 761 147 508 0 b 258 585 163 113 149 338 b 583 494 338 528 464 492 b 810 1040 1108 503 1192 978 b 228 721 610 1072 360 946 b 201 671 218 704 208 688 b 192 997 125 765 111 890 b 176 1007 213 1024 193 1026 b 181 632 63 886 86 736 b 278 14 47 338 104 74 b 853 210 507 -62 769 131 l 847 186 b 707 -156 818 57 775 -40 b 413 -178 619 -157 485 -167 b 46 -543 67 -226 -212 -449 b 757 -192 201 -600 579 -449 b 1069 -217 868 -190 1006 -200 b 1081 -192 1122 -229 1121 -201 z m 815 1001 b 604 535 1119 953 1021 579 b 274 618 478 522 351 557 b 313 689 285 642 299 665 b 815 1001 429 889 647 1026 z m 685 -193 b 82 -507 522 -426 206 -535 b 429 -215 -122 -464 183 -253 b 685 -193 507 -203 597 -196 z "},"Ĵ":{"ha":1386,"x_min":0,"x_max":0,"o":"m 1758 985 b 1681 1021 1758 1022 1722 1032 b 1568 910 1635 1007 1581 931 b 796 426 1314 878 847 747 b 1047 213 769 263 899 161 b 1206 497 1164 254 1251 390 b 1176 486 1183 525 1154 500 b 1049 246 1197 464 1197 299 b 889 418 932 203 869 290 b 1544 874 933 688 1321 838 b 1322 451 1514 825 1419 667 b 486 -501 1192 163 974 -393 b -17 -131 263 -550 -104 -435 b 158 88 15 -17 110 68 b 160 107 174 94 189 108 b -37 -69 115 106 0 21 b 503 -546 -183 -417 108 -600 b 1124 -174 683 -521 961 -426 b 1586 879 1372 213 1406 571 b 1646 890 1599 879 1629 890 b 1758 985 1700 907 1757 928 z m 1692 981 b 1611 914 1707 981 1735 935 b 1692 981 1635 939 1676 988 z m 1840 1029 l 1790 1176 b 1738 1176 1789 1183 1738 1176 l 1531 1029 b 1565 1029 1519 1021 1551 1017 b 1749 1128 1583 1039 1749 1128 l 1813 1029 b 1840 1029 1818 1019 1846 1017 z "},"ħ":{"ha":461,"x_min":0,"x_max":0,"o":"m 482 696 l 389 696 b 483 838 429 764 463 817 b 425 843 464 835 443 842 b 326 756 381 846 358 814 l 293 696 l 190 696 l 172 668 l 279 668 b -56 -10 160 442 43 196 b -8 -1 -42 -1 -29 -3 b 43 19 21 -1 33 0 b 238 294 122 174 190 251 b 336 303 344 394 369 357 b 260 157 297 240 271 193 b 333 -6 218 28 285 -6 b 558 254 436 -6 513 158 b 539 268 572 283 551 293 b 351 24 510 208 415 19 b 331 97 333 25 319 40 b 497 456 349 194 497 456 b 240 325 450 472 307 385 b 128 203 203 293 165 250 b 372 668 199 347 294 532 l 465 668 z "},"ĥ":{"ha":461,"x_min":0,"x_max":0,"o":"m 558 254 b 539 268 572 283 551 293 b 351 24 510 208 415 19 b 331 97 333 25 319 40 b 497 456 349 194 497 456 b 240 325 450 472 307 385 b 128 203 203 293 165 250 b 483 838 242 435 422 775 b 425 843 464 835 443 842 b 326 756 381 846 358 814 b -56 -10 192 507 57 224 b -8 -1 -42 -1 -29 -3 b 43 19 21 -1 33 0 b 238 294 122 174 190 251 b 336 303 344 394 369 357 b 260 157 297 240 271 193 b 333 -6 218 28 285 -6 b 558 254 436 -6 513 158 z m 611 929 l 561 1076 b 508 1076 560 1083 508 1076 l 301 929 b 336 929 290 921 322 917 b 519 1028 354 939 519 1028 l 583 929 b 611 929 589 919 617 917 z "},"ş":{"ha":356,"x_min":0,"x_max":0,"o":"m 233 -156 b 68 -50 233 -76 131 -50 b 14 -54 50 -50 32 -51 b 75 -6 13 -46 67 -12 b 74 -3 75 -4 75 -3 b 108 -6 85 -4 96 -6 b 165 8 126 -6 146 0 b 457 263 322 -39 406 147 b 436 271 464 276 443 285 b 332 89 407 214 364 128 b 207 25 297 47 254 18 l 197 26 b 296 181 251 63 293 126 b 246 344 299 242 268 292 b 275 521 225 394 211 490 b 319 519 289 528 306 525 b 325 543 344 507 350 531 b 274 550 311 550 294 553 b 158 431 225 543 183 485 b 39 190 122 351 76 261 b 57 1 -19 188 -51 38 b -43 -75 33 -12 -35 -67 b -49 -87 -47 -79 -49 -82 b -22 -108 -49 -100 -35 -108 b 78 -75 -8 -108 25 -75 b 182 -154 125 -75 182 -100 b 163 -211 182 -174 174 -194 b 29 -261 138 -250 72 -261 b -90 -226 -6 -261 -65 -253 b -111 -211 -96 -221 -103 -211 b -119 -221 -117 -211 -119 -215 b 56 -285 -119 -269 21 -285 b 161 -261 89 -285 132 -281 b 233 -156 196 -237 233 -200 z m 211 181 b 150 36 207 107 181 60 b 92 143 118 51 89 90 b 63 188 93 189 63 188 b 193 444 96 249 156 369 b 211 181 182 382 215 268 z m 126 24 b 99 18 118 19 108 18 b 71 128 44 18 26 83 b 126 24 74 75 97 42 z "},"ğ":{"ha":544,"x_min":0,"x_max":0,"o":"m 643 256 b 622 267 657 283 635 292 b 542 119 608 240 588 181 b 444 29 514 82 478 53 b 463 367 474 139 481 256 b 376 311 440 350 396 375 b 133 46 350 224 215 11 b 240 360 61 78 139 246 b 464 411 325 454 428 510 b 479 451 479 369 528 411 b 157 388 375 533 239 486 b 110 6 54 265 -29 65 b 376 246 221 -28 332 160 b 375 132 381 231 381 186 b 343 -22 369 76 360 26 b -26 -172 236 -65 110 -92 b -147 -332 -93 -211 -147 -264 b -17 -439 -147 -404 -104 -439 b 429 -17 185 -439 368 -192 b 643 256 532 32 572 110 z m 329 -62 b 250 -203 310 -110 283 -156 b 125 -339 211 -254 168 -304 b -50 -411 92 -364 10 -411 b -25 -212 -165 -411 -115 -272 b 281 -79 63 -154 179 -114 z m 572 746 b 438 672 539 703 515 672 b 342 707 397 672 371 679 b 307 761 321 728 321 761 b 286 699 293 761 278 747 b 410 625 294 647 363 625 b 603 744 499 625 569 671 b 572 746 607 758 585 761 z "},"ĵ":{"ha":246,"x_min":0,"x_max":0,"o":"m 82 225 b -15 25 58 176 18 92 b -60 -56 -28 -1 -44 -29 b -397 -156 -172 -87 -304 -111 b -528 -269 -451 -181 -501 -218 b -417 -439 -569 -347 -556 -439 b 14 -69 -211 -439 -74 -226 b 344 256 214 3 250 63 b 325 268 358 283 338 293 b 242 119 311 242 286 185 b 38 -25 179 28 121 7 b 124 158 68 36 97 97 l 235 418 b 206 467 250 451 250 467 l 129 465 b 143 407 135 458 156 432 l 69 247 b 82 225 61 229 74 225 z m -86 -100 b -117 -151 -96 -118 -106 -136 b -450 -411 -179 -239 -328 -411 b -374 -186 -568 -411 -517 -247 b -86 -100 -294 -151 -175 -124 z m 354 540 l 304 688 b 251 688 303 694 251 688 l 44 540 b 79 540 33 532 65 528 b 263 639 97 550 263 639 l 326 540 b 354 540 332 531 360 528 z "},"ȷ":{"ha":246,"x_min":0,"x_max":0,"o":"m 82 225 b -15 25 58 176 18 92 b -60 -56 -28 -1 -44 -29 b -397 -156 -172 -87 -304 -111 b -528 -269 -451 -181 -501 -218 b -417 -439 -569 -347 -556 -439 b 14 -69 -211 -439 -74 -226 b 344 256 214 3 250 63 b 325 268 358 283 338 293 b 242 119 311 242 286 185 b 38 -25 179 28 121 7 b 124 158 68 36 97 97 l 235 418 b 206 467 250 451 250 467 l 129 465 b 143 407 135 458 156 432 l 69 247 b 82 225 61 229 74 225 z m -86 -100 b -117 -151 -96 -118 -106 -136 b -450 -411 -179 -239 -328 -411 b -374 -186 -568 -411 -517 -247 b -86 -100 -294 -151 -175 -124 z "},"Ċ":{"ha":986,"x_min":0,"x_max":0,"o":"m 1047 1144 b 1014 1181 1047 1163 1035 1181 b 949 1103 983 1181 949 1132 b 979 1075 949 1085 963 1075 b 1047 1144 1014 1075 1047 1108 z m 1083 254 b 1067 268 1097 282 1078 292 b 839 -12 1008 149 960 58 b 374 -71 701 -94 522 -115 b 300 704 13 40 251 654 b 636 521 371 588 494 536 b 858 1024 1194 456 1388 976 b 294 826 644 1043 440 976 b 283 1032 281 885 268 964 b 257 1038 290 1063 263 1056 b 263 789 229 957 240 856 b 319 -97 74 600 -29 50 b 860 -35 521 -183 718 -132 b 1083 254 978 49 1024 132 z m 871 983 b 657 546 1267 938 1146 503 b 326 739 508 560 388 614 b 871 983 461 903 668 1007 z "},"Ĉ":{"ha":986,"x_min":0,"x_max":0,"o":"m 1092 1044 l 1046 1178 b 999 1178 1044 1183 999 1178 l 822 1060 b 854 1060 813 1051 842 1047 b 1008 1133 871 1068 1008 1133 l 1067 1044 b 1092 1044 1071 1035 1096 1032 z m 1083 254 b 1067 268 1097 282 1078 292 b 839 -12 1008 149 960 58 b 374 -71 701 -94 522 -115 b 300 704 13 40 251 654 b 636 521 371 588 494 536 b 858 1024 1194 456 1388 976 b 294 826 644 1043 440 976 b 283 1032 281 885 268 964 b 257 1038 290 1063 263 1056 b 263 789 229 957 240 856 b 319 -97 74 600 -29 50 b 860 -35 521 -183 718 -132 b 1083 254 978 49 1024 132 z m 871 983 b 657 546 1267 938 1146 503 b 326 739 508 560 388 614 b 871 983 461 903 668 1007 z "},"Ġ":{"ha":1008,"x_min":0,"x_max":0,"o":"m 1081 -192 b 776 -156 997 -171 900 -157 b 965 303 878 11 946 149 b 800 240 975 374 881 429 b 325 60 761 147 508 0 b 258 585 163 113 149 338 b 583 494 338 528 464 492 b 810 1040 1108 503 1192 978 b 228 721 610 1072 360 946 b 201 671 218 704 208 688 b 192 997 125 765 111 890 b 176 1007 213 1024 193 1026 b 181 632 63 886 86 736 b 278 14 47 338 104 74 b 853 210 507 -62 769 131 l 847 186 b 707 -156 818 57 775 -40 b 413 -178 619 -157 485 -167 b 46 -543 67 -226 -212 -449 b 757 -192 201 -600 579 -449 b 1069 -217 868 -190 1006 -200 b 1081 -192 1122 -229 1121 -201 z m 815 1001 b 604 535 1119 953 1021 579 b 274 618 478 522 351 557 b 313 689 285 642 299 665 b 815 1001 429 889 647 1026 z m 685 -193 b 82 -507 522 -426 206 -535 b 429 -215 -122 -464 183 -253 b 685 -193 507 -203 597 -196 z m 925 1151 b 899 1181 925 1165 915 1181 b 846 1118 874 1181 846 1142 b 871 1096 846 1104 857 1096 b 925 1151 899 1096 925 1122 z "},"Ĝ":{"ha":1008,"x_min":0,"x_max":0,"o":"m 1040 1060 l 1000 1178 b 958 1178 1000 1183 958 1178 l 793 1060 b 821 1060 783 1053 810 1050 b 967 1139 835 1067 967 1139 l 1018 1060 b 1040 1060 1022 1051 1044 1050 z m 1081 -192 b 776 -156 997 -171 900 -157 b 965 303 878 11 946 149 b 800 240 975 374 881 429 b 325 60 761 147 508 0 b 258 585 163 113 149 338 b 583 494 338 528 464 492 b 832 1022 1108 503 1214 960 b 228 721 632 1054 360 946 b 201 671 218 704 208 688 b 192 997 125 765 111 890 b 176 1007 213 1024 193 1026 b 181 632 63 886 86 736 b 278 14 47 338 104 74 b 853 210 507 -62 769 131 l 847 186 b 707 -156 818 57 775 -40 b 413 -178 619 -157 485 -167 b 46 -543 67 -226 -212 -449 b 757 -192 201 -600 579 -449 b 1069 -217 868 -190 1006 -200 b 1081 -192 1122 -229 1121 -201 z m 838 983 b 604 535 1142 935 1021 579 b 274 618 478 522 351 557 b 313 689 285 642 299 665 b 838 983 429 889 669 1008 z m 685 -193 b 82 -507 522 -426 206 -535 b 429 -215 -122 -464 183 -253 b 685 -193 507 -203 597 -196 z "},"Ŭ":{"ha":1308,"x_min":0,"x_max":0,"o":"m 1369 669 b 1292 596 1353 669 1322 650 b 1058 163 1235 493 1151 297 b 749 63 906 -58 764 -82 b 996 801 728 265 946 582 b 878 1153 1031 954 1014 1094 b 425 1092 754 1207 583 1179 b 388 217 -251 722 -28 40 b 453 682 694 346 739 803 b 460 658 442 678 388 642 b 389 249 725 718 579 319 b 422 1046 3 104 -133 721 b 885 1108 581 1138 771 1178 b 914 807 951 1068 947 940 b 669 63 863 606 639 250 b 1079 124 699 -115 894 -114 b 1164 249 1114 168 1143 214 b 1246 -118 1140 129 1115 -94 b 1256 -86 1289 -125 1322 -81 b 1236 229 1179 -90 1196 79 b 1319 454 1263 328 1301 415 b 1369 669 1357 539 1438 636 z m 1435 1113 b 1300 1039 1401 1069 1378 1039 b 1204 1074 1260 1039 1233 1046 b 1169 1128 1183 1094 1183 1128 b 1149 1065 1156 1128 1140 1114 b 1272 992 1157 1014 1225 992 b 1465 1111 1361 992 1432 1038 b 1435 1113 1469 1125 1447 1128 z "},"Ŝ":{"ha":1251,"x_min":0,"x_max":0,"o":"m 1199 763 b 1157 983 1276 829 1246 938 b 754 976 1067 1031 879 1024 b 643 583 571 908 456 714 b 983 404 738 518 906 469 b 835 -53 1135 275 1046 63 b 136 171 585 -190 133 -156 b 207 417 138 254 161 343 b 293 515 229 456 260 488 b 281 535 335 549 299 543 b 65 171 157 475 60 296 b 906 -60 88 -201 622 -237 b 1031 472 1118 74 1286 307 b 733 628 938 533 810 579 b 801 942 564 738 651 885 b 1121 747 1206 1093 1278 767 b 1114 721 1079 742 1081 711 b 1199 763 1150 731 1178 746 z m 1208 1060 l 1168 1178 b 1126 1178 1168 1183 1126 1178 l 961 1060 b 989 1060 951 1053 978 1050 b 1135 1139 1003 1067 1135 1139 l 1186 1060 b 1208 1060 1190 1051 1213 1050 z "},"ĉ":{"ha":361,"x_min":0,"x_max":0,"o":"m 469 254 b 450 264 482 282 463 289 b 207 19 394 154 328 19 b 125 126 147 19 125 71 b 201 339 125 207 176 303 b 350 458 240 394 300 458 b 378 390 376 458 390 439 b 335 319 371 365 350 338 b 428 393 365 289 422 347 b 332 489 435 450 401 489 b 146 379 265 489 197 449 b 193 -6 46 244 -26 -6 b 469 254 346 -6 401 110 z m 488 561 l 438 708 b 385 708 436 715 385 708 l 178 561 b 213 561 167 553 199 549 b 396 660 231 571 396 660 l 460 561 b 488 561 465 551 493 549 z "},"ċ":{"ha":361,"x_min":0,"x_max":0,"o":"m 469 254 b 450 264 482 282 463 289 b 207 19 394 154 328 19 b 125 126 147 19 125 71 b 201 339 125 207 176 303 b 350 458 240 394 300 458 b 378 390 376 458 390 439 b 335 319 371 365 350 338 b 428 393 365 289 422 347 b 332 489 435 450 401 489 b 146 379 265 489 197 449 b 193 -6 46 244 -26 -6 b 469 254 346 -6 401 110 z m 446 643 b 413 679 446 661 433 679 b 347 601 382 679 347 631 b 378 574 347 583 361 574 b 446 643 413 574 446 607 z "},"ġ":{"ha":544,"x_min":0,"x_max":0,"o":"m 643 256 b 622 267 657 283 635 292 b 542 119 608 240 588 181 b 444 29 514 82 478 53 b 463 367 474 139 481 256 b 376 311 440 350 396 375 b 133 46 350 224 215 11 b 240 360 61 78 139 246 b 464 411 325 454 428 510 b 479 451 479 369 528 411 b 157 388 375 533 239 486 b 110 6 54 265 -29 65 b 376 246 221 -28 332 160 b 375 132 381 231 381 186 b 343 -22 369 76 360 26 b -26 -172 236 -65 110 -92 b -147 -332 -93 -211 -147 -264 b -17 -439 -147 -404 -104 -439 b 429 -17 185 -439 368 -192 b 643 256 532 32 572 110 z m 329 -62 b 250 -203 310 -110 283 -156 b 125 -339 211 -254 168 -304 b -50 -411 92 -364 10 -411 b -25 -212 -165 -411 -115 -272 b 281 -79 63 -154 179 -114 z m 493 692 b 460 728 493 710 481 728 b 394 650 429 728 394 679 b 425 622 394 632 408 622 b 493 692 460 622 493 656 z "},"ĝ":{"ha":544,"x_min":0,"x_max":0,"o":"m 643 256 b 622 267 657 283 635 292 b 542 119 608 240 588 181 b 444 29 514 82 478 53 b 463 367 474 139 481 256 b 376 311 440 350 396 375 b 133 46 350 224 215 11 b 240 360 61 78 139 246 b 464 411 325 454 428 510 b 479 451 479 369 528 411 b 157 388 375 533 239 486 b 110 6 54 265 -29 65 b 376 246 221 -28 332 160 b 375 132 381 231 381 186 b 343 -22 369 76 360 26 b -26 -172 236 -65 110 -92 b -147 -332 -93 -211 -147 -264 b -17 -439 -147 -404 -104 -439 b 429 -17 185 -439 368 -192 b 643 256 532 32 572 110 z m 329 -62 b 250 -203 310 -110 283 -156 b 125 -339 211 -254 168 -304 b -50 -411 92 -364 10 -411 b -25 -212 -165 -411 -115 -272 b 281 -79 63 -154 179 -114 z m 524 540 l 474 688 b 421 688 472 694 421 688 l 214 540 b 249 540 203 532 235 528 b 432 639 267 550 432 639 l 496 540 b 524 540 501 531 529 528 z "},"ŭ":{"ha":496,"x_min":0,"x_max":0,"o":"m 594 256 b 575 268 608 283 586 293 b 390 36 528 168 458 36 b 364 119 371 38 351 60 b 457 340 372 167 418 263 b 553 478 499 426 513 446 l 478 478 b 424 449 451 478 435 471 b 217 86 371 339 294 176 b 135 182 126 -18 68 38 b 222 361 160 235 222 361 b 311 478 260 438 279 454 l 226 478 b 172 449 200 478 183 471 b 94 296 151 406 122 349 l 69 247 b 82 225 61 229 74 225 b 35 64 57 175 22 124 b 122 1 46 11 94 1 b 310 179 190 1 263 96 b 374 1 274 67 311 1 b 594 256 475 1 550 161 z m 543 732 b 408 658 510 689 486 658 b 313 693 368 658 342 665 b 278 747 292 714 292 747 b 257 685 264 747 249 733 b 381 611 265 633 333 611 b 574 731 469 611 540 657 b 543 732 578 744 556 747 z "},"ŝ":{"ha":356,"x_min":0,"x_max":0,"o":"m 351 540 l 301 688 b 249 688 300 694 249 688 l 42 540 b 76 540 31 532 63 528 b 260 639 94 550 260 639 l 319 546 b 274 550 307 551 292 553 b 158 431 225 543 183 485 b 39 190 122 351 76 261 b 108 -6 -28 188 -60 -6 b 165 8 126 -6 146 0 b 457 263 322 -39 406 147 b 436 271 464 276 443 285 b 332 89 407 214 364 128 b 207 25 297 47 254 18 l 197 26 b 296 181 251 63 293 126 b 246 344 299 242 268 292 b 275 521 225 394 211 490 b 319 519 289 528 306 525 b 338 532 338 510 344 521 b 351 540 346 531 354 533 z m 211 181 b 150 36 207 107 181 60 b 92 143 118 51 89 90 b 63 188 93 189 63 188 b 193 444 96 249 156 369 b 211 181 182 382 215 268 z m 126 24 b 99 18 118 19 108 18 b 71 128 44 18 26 83 b 126 24 74 75 97 42 z "},"ĸ":{"ha":479,"x_min":0,"x_max":0,"o":"m 522 457 b 393 465 507 483 465 492 b 160 263 310 433 218 336 b 274 486 197 338 235 414 l 286 511 l 253 517 b 154 429 208 519 183 489 b -51 -10 111 342 68 247 b -4 -1 -37 -1 -25 -3 b 47 19 25 -1 39 -1 b 103 143 65 60 82 101 b 169 246 122 181 146 215 b 171 124 164 221 161 183 b 301 -8 188 29 251 -3 b 578 258 382 -17 468 6 b 560 271 588 281 571 293 b 447 81 521 190 482 118 b 275 354 322 -51 189 107 b 461 382 376 433 458 421 b 522 457 503 371 539 413 z "},"Ŗ":{"ha":1422,"x_min":0,"x_max":0,"o":"m 1522 260 b 1499 260 1536 290 1511 283 b 1365 53 1483 229 1432 119 b 1126 110 1265 -46 1196 4 b 972 524 1022 268 979 485 b 1100 536 1003 525 1046 528 b 1335 1021 1540 608 1713 911 b 1197 1047 1293 1032 1247 1039 b 1146 1054 1211 1090 1206 1119 b 617 1047 985 1076 810 1075 b 132 686 308 1003 146 833 b 519 536 111 451 379 389 b 574 649 547 565 567 604 b 556 651 575 664 558 685 b 503 561 554 633 538 599 b 203 686 383 433 164 499 b 599 989 228 806 363 940 b 1115 1021 786 1029 958 1036 b 786 492 1001 894 899 689 b 238 -11 638 231 483 -24 b 319 186 46 -1 97 271 b 328 203 343 178 353 193 b 203 -50 4 314 -92 -15 b 640 122 364 -71 518 -10 b 885 507 754 247 818 375 b 1086 14 900 417 960 146 b 1381 13 1176 -81 1294 -81 b 1522 260 1440 78 1504 219 z m 1317 986 b 1089 578 1589 904 1376 614 b 914 560 1022 569 968 569 b 1181 1013 994 721 1093 860 b 1317 986 1231 1004 1276 997 z m 785 -150 b 729 -90 785 -118 767 -90 b 669 -142 701 -90 674 -112 b 713 -193 665 -169 683 -193 b 747 -181 725 -193 738 -187 b 653 -289 742 -236 699 -274 b 654 -303 636 -293 640 -308 b 785 -150 707 -285 785 -232 z "},"Ĩ":{"ha":1290,"x_min":0,"x_max":0,"o":"m 1661 982 b 1582 1015 1660 1019 1624 1028 b 1475 901 1538 1000 1486 924 b 683 424 1213 857 756 751 b 940 213 647 260 793 156 b 1085 500 1054 256 1139 396 b 1056 488 1074 525 1050 494 b 939 244 1078 467 1085 303 b 776 424 819 199 746 290 b 1453 865 843 724 1203 811 b 1244 417 1424 815 1326 635 b 540 -294 1169 215 944 -193 b 29 56 318 -350 -44 -247 b 197 279 58 171 149 258 b 196 299 211 286 225 300 b 6 117 151 296 40 208 b 567 -339 -125 -231 175 -404 b 1115 1 768 -306 963 -194 b 1496 872 1336 285 1326 561 b 1554 885 1508 872 1538 885 b 1661 982 1607 903 1663 925 z m 1594 976 b 1519 907 1611 976 1642 932 b 1594 976 1540 933 1581 982 z m 1782 1167 b 1758 1168 1785 1171 1760 1174 b 1693 1128 1744 1142 1725 1125 b 1551 1169 1647 1132 1601 1167 b 1436 1083 1497 1174 1458 1122 b 1464 1081 1435 1078 1461 1074 b 1525 1118 1475 1103 1496 1121 b 1667 1074 1572 1115 1617 1078 b 1782 1167 1722 1069 1761 1124 z "},"Ļ":{"ha":1036,"x_min":0,"x_max":0,"o":"m 1329 1076 b 829 765 1318 1204 1047 1311 b 711 479 829 765 728 517 b 644 949 265 426 358 914 b 642 972 706 957 700 986 b 692 444 167 864 292 432 b 546 176 642 342 599 258 b 197 161 444 194 296 190 b 311 -125 -176 49 21 -265 b 557 101 401 -82 485 0 b 1060 -93 733 67 925 26 b 1128 -364 1154 -175 1150 -315 b 1146 -406 1117 -387 1086 -437 b 1181 -368 1157 -400 1169 -389 b 1054 -43 1215 -310 1186 -146 b 599 164 925 57 735 131 l 628 211 b 750 450 678 300 710 368 b 1329 1076 1046 500 1354 796 z m 1272 1046 b 769 488 1274 789 1019 543 b 892 718 826 606 892 718 b 1272 1046 1107 1139 1271 1139 z m 503 110 b 289 -86 436 15 364 -50 b 214 104 35 -208 -122 18 b 503 110 304 128 411 129 z m 565 -193 b 510 -133 565 -161 547 -133 b 450 -185 482 -133 454 -156 b 493 -236 446 -212 464 -236 b 528 -224 506 -236 518 -231 b 433 -332 522 -279 479 -317 b 435 -346 417 -336 421 -351 b 565 -193 488 -328 565 -275 z "},"Ē":{"ha":1217,"x_min":0,"x_max":0,"o":"m 1190 1181 l 894 1181 l 876 1139 l 1174 1139 z m 1104 288 b 1075 269 1058 310 1011 285 b 999 74 1151 251 1101 154 b 458 -115 879 -19 672 -115 b 379 432 -19 -115 89 351 b 744 475 556 482 728 419 b 453 722 765 574 415 504 b 979 988 485 900 763 1008 b 951 700 1233 961 1079 714 b 956 675 889 693 876 657 b 985 1021 1236 738 1308 983 b 347 688 764 1046 368 926 b 514 514 340 606 436 542 b 374 490 469 513 421 504 b 453 -146 -81 354 -107 -146 b 1056 36 682 -146 918 -72 b 1104 288 1178 132 1206 236 z "},"Ģ":{"ha":776,"x_min":0,"x_max":0,"o":"m 536 -425 b 492 -378 536 -400 522 -378 b 444 -419 469 -378 447 -396 b 479 -460 440 -442 456 -460 b 507 -450 489 -460 499 -456 b 431 -536 501 -494 468 -525 b 432 -547 418 -540 421 -553 b 536 -425 474 -533 536 -492 z m 1081 -87 b 776 -51 997 -67 900 -53 b 965 407 878 115 946 253 b 800 344 975 478 881 533 b 325 164 761 251 508 104 b 258 689 163 217 149 442 b 583 599 338 632 464 596 b 810 1144 1108 607 1192 1082 b 228 825 610 1176 360 1050 b 201 775 218 808 208 792 b 192 1101 125 869 111 994 b 176 1111 213 1128 193 1131 b 181 736 63 990 86 840 b 278 118 47 442 104 178 b 853 314 507 42 769 235 l 847 290 b 707 -51 818 161 775 64 b 413 -74 619 -53 485 -62 b 46 -439 67 -122 -212 -344 b 757 -87 201 -496 579 -344 b 1069 -112 868 -86 1006 -96 b 1081 -87 1122 -125 1121 -97 z m 815 1106 b 604 639 1119 1057 1021 683 b 274 722 478 626 351 661 b 313 793 285 746 299 769 b 815 1106 429 993 647 1131 z m 685 -89 b 82 -403 522 -322 206 -431 b 429 -111 -122 -360 183 -149 b 685 -89 507 -99 597 -92 z "},"Ŧ":{"ha":1511,"x_min":0,"x_max":0,"o":"m 1450 578 l 1306 578 b 1438 864 1340 675 1379 771 b 1788 775 1467 851 1582 801 b 1944 847 1875 764 1944 794 b 1931 876 1944 854 1940 876 b 1915 856 1918 876 1915 868 b 1458 893 1915 761 1578 854 b 1531 949 1476 911 1518 958 b 1521 989 1576 935 1565 1003 l 1522 989 b 1419 904 1492 989 1432 919 b 967 1025 1331 929 1133 1011 b 624 463 446 1072 340 561 b 931 646 754 418 913 497 b 903 657 931 664 917 669 l 903 654 b 638 497 908 615 808 443 b 976 954 419 567 579 974 b 1397 878 1125 947 1251 924 b 1251 578 1369 842 1317 718 l 1086 578 l 1064 550 l 1238 550 b 989 128 1164 392 1074 219 b 517 -81 883 13 735 -75 b 96 353 303 -85 46 68 b 239 544 118 485 217 517 b 68 417 247 603 110 546 b 1056 61 -119 -176 761 -274 b 1294 550 1182 206 1233 376 l 1429 550 z "},"ŗ":{"ha":361,"x_min":0,"x_max":0,"o":"m 458 254 b 442 268 472 282 454 292 b 269 36 413 208 326 35 b 349 338 186 40 328 294 b 378 444 365 372 388 425 b 186 439 310 438 238 436 b 263 532 210 456 254 493 b 178 582 282 625 192 660 b -36 72 150 426 74 217 b -25 54 -44 60 -36 44 b 143 361 43 119 110 274 l 160 406 b 267 340 238 404 286 386 b 181 176 251 306 201 233 b 257 1 125 32 210 -10 b 458 254 347 24 418 171 z m 144 -124 b 89 -64 144 -92 126 -64 b 29 -115 61 -64 33 -86 b 72 -167 25 -143 43 -167 b 107 -154 85 -167 97 -161 b 13 -262 101 -210 58 -247 b 14 -276 -4 -267 0 -282 b 144 -124 67 -258 144 -206 z "},"ĩ":{"ha":242,"x_min":0,"x_max":0,"o":"m 328 254 b 310 267 342 282 322 292 b 179 57 272 189 226 103 b 118 31 165 43 139 28 b 89 118 78 33 75 72 b 106 158 92 128 106 158 b 250 428 143 254 250 428 b 301 478 265 457 290 467 l 231 478 b 156 411 186 478 190 478 l 35 181 b 110 0 -1 113 7 0 b 328 254 214 0 292 176 z m 475 651 b 451 653 478 656 453 658 b 386 613 438 626 418 610 b 244 654 340 617 294 651 b 129 568 190 658 151 607 b 157 565 128 563 154 558 b 218 603 168 588 189 606 b 360 558 265 600 310 563 b 475 651 415 554 454 608 z "},"ļ":{"ha":294,"x_min":0,"x_max":0,"o":"m 440 685 b 292 761 540 907 390 926 b 81 271 211 626 124 426 b 146 -3 57 188 -10 -3 b 393 258 286 -3 358 185 b 372 265 406 286 385 289 b 269 89 354 229 315 154 b 126 176 196 -14 85 10 b 156 268 135 211 149 244 b 440 685 292 392 376 542 z m 419 706 b 167 313 365 576 265 413 b 386 768 210 424 318 672 b 419 706 461 875 447 769 z m 167 -132 b 111 -72 167 -100 149 -72 b 51 -124 83 -72 56 -94 b 94 -175 47 -151 65 -175 b 129 -162 107 -175 119 -169 b 35 -271 124 -218 81 -256 b 36 -285 18 -275 22 -290 b 167 -132 89 -267 167 -214 z "},"ē":{"ha":342,"x_min":0,"x_max":0,"o":"m 442 260 b 417 261 456 289 428 286 b 188 24 385 188 310 24 b 140 214 96 24 119 164 b 311 275 178 214 268 243 b 388 478 400 343 440 438 b 150 388 326 524 221 471 b 43 128 89 315 42 211 b 176 -6 44 40 107 -6 b 442 260 331 -6 390 149 z m 297 299 b 150 238 247 257 175 238 b 233 368 163 263 197 324 b 297 299 404 575 411 394 z m 513 664 l 217 664 l 199 622 l 496 622 z "},"ģ":{"ha":544,"x_min":0,"x_max":0,"o":"m 643 256 b 622 267 657 283 635 292 b 542 119 608 240 588 181 b 444 29 514 82 478 53 b 463 367 474 139 481 256 b 376 311 440 350 396 375 b 133 46 350 224 215 11 b 240 360 61 78 139 246 b 464 411 325 454 428 510 b 479 451 479 369 528 411 b 157 388 375 533 239 486 b 110 6 54 265 -29 65 b 376 246 221 -28 332 160 b 375 132 381 231 381 186 b 343 -22 369 76 360 26 b -26 -172 236 -65 110 -92 b -147 -332 -93 -211 -147 -264 b -17 -439 -147 -404 -104 -439 b 429 -17 185 -439 368 -192 b 643 256 532 32 572 110 z m 329 -62 b 250 -203 310 -110 283 -156 b 125 -339 211 -254 168 -304 b -50 -411 92 -364 10 -411 b -25 -212 -165 -411 -115 -272 b 281 -79 63 -154 179 -114 z m 365 658 b 421 599 365 626 383 599 b 481 650 449 599 476 621 b 438 701 485 678 467 701 b 403 689 425 701 413 696 b 497 797 408 744 451 782 b 496 811 514 801 510 817 b 365 658 443 793 365 740 z "},"ŧ":{"ha":278,"x_min":0,"x_max":0,"o":"m 299 343 l 226 343 b 338 497 271 393 306 443 l 418 497 b 421 528 432 497 435 528 l 354 528 b 414 647 375 567 394 606 b 271 725 517 869 367 893 b 169 528 236 665 201 597 l 86 528 b 83 497 71 528 68 497 l 156 497 b 99 343 136 450 117 397 l 22 343 l 6 325 l 92 325 b 47 143 71 258 53 193 b 239 39 26 -10 164 -33 b 375 256 290 90 314 128 b 357 264 389 283 368 289 b 210 54 319 189 274 101 b 121 126 164 21 100 33 b 153 268 121 126 140 232 b 210 325 174 286 193 306 l 282 325 z m 393 669 b 324 528 374 624 350 575 l 254 528 b 353 731 289 607 319 683 b 393 669 439 851 419 728 z m 306 497 b 193 343 272 443 235 390 l 178 343 b 240 497 194 388 217 442 z m 165 313 l 169 325 l 176 325 z "},"Ŋ":{"ha":1443,"x_min":0,"x_max":0,"o":"m 1596 928 b 1297 1022 1579 1079 1421 1083 b 1004 733 1197 974 1093 860 b 850 483 944 650 892 561 b 842 499 829 443 789 342 b 918 822 876 603 918 715 b 353 1018 918 1164 567 1143 b 19 631 203 931 67 790 b 285 169 -65 347 108 169 b 450 614 653 169 769 693 b 456 592 436 611 428 589 b 285 196 699 624 576 196 b 375 958 8 196 -4 704 b 833 769 596 1107 871 1135 b 583 -58 803 475 639 42 b 697 -50 576 -103 679 -100 b 1035 711 764 139 867 474 b 1311 964 1118 829 1215 915 b 1488 913 1403 1011 1486 1010 b 1369 361 1489 769 1424 519 b 782 -511 1210 -106 1088 -429 b 396 -211 628 -550 358 -460 b 501 -32 408 -118 469 -47 b 500 -15 511 -25 521 -14 b 376 -161 469 -17 394 -86 b 799 -547 303 -446 525 -592 b 1468 383 1178 -483 1344 18 b 1596 928 1547 618 1606 838 z "}}}
